<svg id="Group_11204" data-name="Group 11204" xmlns="http://www.w3.org/2000/svg" width="24" height="24" viewBox="0 0 24 24">
  <ellipse id="Ellipse_500" data-name="Ellipse 500" cx="7.465" cy="7.463" rx="7.465" ry="7.463" transform="translate(4.535 4.534)" fill="#c4defe"/>
  <path id="Path_31876" data-name="Path 31876" d="M0,11.691A11.7,11.7,0,0,1,3.49,3.666,11.81,11.81,0,0,1,9.707.244a11.163,11.163,0,0,1,7.8,1.178,11.986,11.986,0,0,1,6.182,8.05,11.1,11.1,0,0,1-1.3,8.36,11.944,11.944,0,0,1-7.447,5.752A11.214,11.214,0,0,1,5.46,21.954,11.988,11.988,0,0,1,0,11.691M11.98,21.812a9.988,9.988,0,0,0,2-.189,9.345,9.345,0,0,0,6.34-4.309,9.819,9.819,0,0,0,1.3-7.3,9.243,9.243,0,0,0-4.883-6.679,9.85,9.85,0,0,0-6.714-.966,9.274,9.274,0,0,0-6.582,4.7A9.925,9.925,0,0,0,2.3,13.6a9.347,9.347,0,0,0,2.492,5.179,9.686,9.686,0,0,0,7.187,3.034" transform="translate(0 0)" fill="#689dde"/>
  <path id="Path_31877" data-name="Path 31877" d="M302.722,308.734c.106,0,.254-.055.307.012s-.034.2-.063.3q-.979,3.406-1.96,6.812c-.055.192-.1.388-.141.584a.509.509,0,0,0,0,.252.3.3,0,0,0,.379.205.679.679,0,0,0,.26-.158,5.687,5.687,0,0,0,.95-1.169c.072-.111.124-.14.243-.059.184.124.19.116.072.311a6.94,6.94,0,0,1-1.353,1.7,2.69,2.69,0,0,1-1.523.714,1.49,1.49,0,0,1-1.252-.37,1.3,1.3,0,0,1-.333-1.261c.125-.666.353-1.305.538-1.956.35-1.228.708-2.454,1.061-3.682a3.972,3.972,0,0,0,.113-.576.608.608,0,0,0-.6-.73,3.165,3.165,0,0,0-.347,0c-.076,0-.1-.01-.08-.094a.385.385,0,0,1,.381-.346c1.013-.147,2.022-.324,3.033-.485a2.058,2.058,0,0,1,.32,0" transform="translate(-289.036 -299.689)" fill="#689dde"/>
  <path id="Path_31878" data-name="Path 31878" d="M403.021,139.064a1.457,1.457,0,1,1-1.46-1.458,1.452,1.452,0,0,1,1.46,1.458" transform="translate(-389.014 -132.34)" fill="#689dde"/>
</svg>
