<svg xmlns="http://www.w3.org/2000/svg" xmlns:xlink="http://www.w3.org/1999/xlink" width="32.321" height="29.397" viewBox="0 0 32.321 29.397">
  <defs>
    <linearGradient id="linear-gradient" x1="0.749" y1="0.193" x2="0" y2="1" gradientUnits="objectBoundingBox">
      <stop offset="0" stop-color="#689dde"/>
      <stop offset="1" stop-color="#5745de"/>
    </linearGradient>
    <clipPath id="clip-path">
      <rect id="Rectangle_2375" data-name="Rectangle 2375" width="26.585" height="18.596" fill="url(#linear-gradient)"/>
    </clipPath>
  </defs>
  <g id="Group_11194" data-name="Group 11194" transform="translate(0 13.292) rotate(-30)">
    <g id="Group_11095" data-name="Group 11095" clip-path="url(#clip-path)">
      <path id="Path_31727" data-name="Path 31727" d="M8.644,0h7.469A1.028,1.028,0,0,1,17.276,1.16c0,.24.009.481,0,.721-.008.162.035.226.21.219.339-.014.679.008,1.018-.008a2.323,2.323,0,0,1,1.837.768q1.807,1.853,3.619,3.7.765.78,1.537,1.554a3.507,3.507,0,0,1,1.09,2.584c0,1.216-.021,2.433-.006,3.649.011.885-.3,1.18-1.188,1.194-.276,0-.552-.005-.827.008-.147.007-.182-.043-.2-.185a4.072,4.072,0,0,0-2.792-3.546,4.166,4.166,0,0,0-5.53,3.454c-.036.3-.036.3-.335.3H10.888c-.307,0-.307,0-.343-.311a4.185,4.185,0,0,0-8.32.1c-.017.161-.058.219-.224.213-.325-.012-.651,0-.976-.005A.983.983,0,0,1,0,14.532q0-6.748,0-13.5A.992.992,0,0,1,1.091,0Q3.329,0,5.568,0H8.644m15.015,8.4c-.054-.059-.1-.106-.138-.15q-.868-.886-1.737-1.771-1.252-1.281-2.5-2.566a.985.985,0,0,0-.808-.338,9.038,9.038,0,0,1-.954,0c-.19-.009-.251.044-.25.244q.013,2.184,0,4.368c0,.211.064.253.262.253,1.965-.007,3.93,0,5.895-.005a.4.4,0,0,0,.232-.034" transform="translate(0 0)" fill="url(#linear-gradient)"/>
      <path id="Path_31728" data-name="Path 31728" d="M89.389,307.688a2.8,2.8,0,0,1-2.87,2.8,2.83,2.83,0,1,1,2.87-2.8m-4.3-.021a1.479,1.479,0,1,0,1.449-1.489,1.488,1.488,0,0,0-1.449,1.489" transform="translate(-80.175 -291.893)" fill="url(#linear-gradient)"/>
      <path id="Path_31729" data-name="Path 31729" d="M414.966,307.668a2.823,2.823,0,1,1-2.774-2.84,2.8,2.8,0,0,1,2.774,2.84m-1.345-.008a1.48,1.48,0,1,0-1.477,1.489,1.489,1.489,0,0,0,1.477-1.489" transform="translate(-391.949 -291.892)" fill="url(#linear-gradient)"/>
    </g>
  </g>
</svg>
