<svg xmlns="http://www.w3.org/2000/svg" xmlns:xlink="http://www.w3.org/1999/xlink" width="24" height="24" viewBox="0 0 24 24">
  <defs>
    <clipPath id="clip-path">
      <rect id="Rectangle_2743" data-name="Rectangle 2743" width="24" height="24" transform="translate(335 102)" fill="#fff"/>
    </clipPath>
  </defs>
  <g id="Mask_Group_45" data-name="Mask Group 45" transform="translate(-335 -102)" clip-path="url(#clip-path)">
    <g id="note" transform="translate(335 102)">
      <g id="Group_14473" data-name="Group 14473">
        <g id="Group_14472" data-name="Group 14472">
          <g id="Group_14471" data-name="Group 14471">
            <path id="Path_32359" data-name="Path 32359" d="M16.522,10.313a.937.937,0,0,0-.938-.937H5.928a.938.938,0,0,0,0,1.875h9.656A.937.937,0,0,0,16.522,10.313Z" fill="#b8b7b7"/>
            <path id="Path_32360" data-name="Path 32360" d="M5.928,13.125a.938.938,0,0,0,0,1.875h5.865a.938.938,0,0,0,0-1.875Z" fill="#b8b7b7"/>
            <path id="Path_32361" data-name="Path 32361" d="M8.131,22.125H5A1.877,1.877,0,0,1,3.12,20.25V3.75A1.877,1.877,0,0,1,5,1.875H16.522A1.877,1.877,0,0,1,18.4,3.75V9.516a.938.938,0,0,0,1.875,0V3.75A3.754,3.754,0,0,0,16.522,0H5a3.754,3.754,0,0,0-3.75,3.75v16.5A3.754,3.754,0,0,0,5,24H8.131a.938.938,0,0,0,0-1.875Z" fill="#b8b7b7"/>
            <path id="Path_32362" data-name="Path 32362" d="M21.932,13.574a2.815,2.815,0,0,0-3.977,0l-5.147,5.136a.938.938,0,0,0-.235.391l-1.121,3.69A.937.937,0,0,0,12.6,23.966l3.784-1.048a.937.937,0,0,0,.412-.24l5.136-5.127A2.816,2.816,0,0,0,21.932,13.574Zm-6.286,7.6-1.9.527L14.3,19.87,17.772,16.4,19.1,17.731Zm4.961-4.952-.182.181L19.1,15.08l.181-.181a.938.938,0,0,1,1.326,1.325Z" fill="#b8b7b7"/>
            <path id="Path_32363" data-name="Path 32363" d="M15.584,5.625H5.928a.938.938,0,0,0,0,1.875h9.656a.938.938,0,0,0,0-1.875Z" fill="#b8b7b7"/>
          </g>
        </g>
      </g>
    </g>
  </g>
</svg>
