<svg xmlns="http://www.w3.org/2000/svg" xmlns:xlink="http://www.w3.org/1999/xlink" width="72" height="79" viewBox="0 0 72 79">
  <defs>
    <clipPath id="clip-path">
      <rect id="Rectangle_2705" data-name="Rectangle 2705" width="60" height="60" transform="translate(66 163)" fill="#fff"/>
    </clipPath>
  </defs>
  <g id="Group_14176" data-name="Group 14176" transform="translate(-50 -163)">
    <g id="Mask_Group_32" data-name="Mask Group 32" transform="translate(-10)" clip-path="url(#clip-path)">
      <g id="Pay_cash" data-name="Pay cash" transform="translate(66 163)">
        <g id="Group_14169" data-name="Group 14169">
          <g id="Group_14168" data-name="Group 14168">
            <path id="Path_32289" data-name="Path 32289" d="M20.221,45.926a1.223,1.223,0,0,0-.067-.22,1.189,1.189,0,0,0-.108-.2,1.139,1.139,0,0,0-.323-.323,1.157,1.157,0,0,0-.2-.108,1.1,1.1,0,0,0-.219-.067,1.154,1.154,0,0,0-.457,0,1.135,1.135,0,0,0-.22.067,1.189,1.189,0,0,0-.2.108,1.171,1.171,0,0,0-.431.525,1.135,1.135,0,0,0-.067.22,1.126,1.126,0,0,0,0,.457,1.1,1.1,0,0,0,.067.219,1.084,1.084,0,0,0,.108.2,1.139,1.139,0,0,0,.323.323,1.181,1.181,0,0,0,.2.108,1.136,1.136,0,0,0,.22.067,1.126,1.126,0,0,0,.457,0,1.1,1.1,0,0,0,.219-.067,1.157,1.157,0,0,0,.2-.108,1.139,1.139,0,0,0,.323-.323,1.157,1.157,0,0,0,.108-.2,1.183,1.183,0,0,0,.067-.219,1.126,1.126,0,0,0,0-.457Z" fill="#5745de"/>
          </g>
        </g>
        <g id="Group_14171" data-name="Group 14171">
          <g id="Group_14170" data-name="Group 14170">
            <path id="Path_32290" data-name="Path 32290" d="M53.905,46.287l-.014-.035c-1.079-2.524-3.608-3.457-6.6-2.434l-8.164,2.258a5.352,5.352,0,0,0-3.314-3.264L35.78,42.8l-8.974-3.046a9.256,9.256,0,0,0-7.468-3.436c-3.062,0-5.77,2.1-7.319,4.389H1.172A1.172,1.172,0,0,0,0,41.88V56.655a1.172,1.172,0,0,0,1.172,1.172H8.139a1.172,1.172,0,0,0,1.172-1.172V55.643h3.268a1.172,1.172,0,0,0,1.172-1.172v-.337a8.308,8.308,0,0,1,4.281,1.536,70.918,70.918,0,0,0,7.04,3.595l.051.022a10.519,10.519,0,0,0,3.77.711,9.341,9.341,0,0,0,3.883-.831L50.822,52.7c.032-.011.064-.024.095-.039C52.641,51.873,55.211,49.636,53.905,46.287Zm-46.938,9.2H2.344V43.052H6.968ZM11.407,53.3h-2.1V43.052h2.1ZM49.98,50.516,31.942,56.975l-.053.02-.047.02a7.6,7.6,0,0,1-5.836.1,67.884,67.884,0,0,1-6.8-3.475,10.547,10.547,0,0,0-5.451-1.854V42.347c1.111-1.821,3.265-3.684,5.587-3.684a6.762,6.762,0,0,1,5.737,2.695,1.172,1.172,0,0,0,.622.5l9.313,3.161a2.629,2.629,0,0,1,1.912,3.1,2.283,2.283,0,0,1-2.805,1.576l-10.5-3.327A1.172,1.172,0,1,0,22.91,48.6l10.517,3.333.034.01a4.6,4.6,0,0,0,3.518-.409,4.6,4.6,0,0,0,2.2-2.776q.04-.142.072-.285l8.8-2.437c1.271-.434,2.939-.591,3.682,1.12C52.5,49.164,50.5,50.269,49.98,50.516Z" fill="#5745de"/>
          </g>
        </g>
        <g id="Group_14173" data-name="Group 14173">
          <g id="Group_14172" data-name="Group 14172">
            <path id="Path_32291" data-name="Path 32291" d="M42.077,15.415a1.14,1.14,0,0,0-.068-.22,1.155,1.155,0,0,0-.431-.525,1.189,1.189,0,0,0-.2-.108A1.167,1.167,0,0,0,40.7,14.5a1.1,1.1,0,0,0-.219.067,1.157,1.157,0,0,0-.2.108,1.139,1.139,0,0,0-.323.323,1.189,1.189,0,0,0-.108.2,1.136,1.136,0,0,0-.067.22,1.126,1.126,0,0,0,0,.457,1.1,1.1,0,0,0,.067.219,1.156,1.156,0,0,0,.108.2,1.139,1.139,0,0,0,.323.323,1.157,1.157,0,0,0,.2.108,1.184,1.184,0,0,0,.219.067,1.154,1.154,0,0,0,.229.023,1.175,1.175,0,0,0,.23-.023,1.24,1.24,0,0,0,.219-.067,1.189,1.189,0,0,0,.2-.108,1.139,1.139,0,0,0,.323-.323,1.083,1.083,0,0,0,.108-.2,1.1,1.1,0,0,0,.068-.219,1.184,1.184,0,0,0,0-.457Z" fill="#5745de"/>
          </g>
        </g>
        <g id="Group_14175" data-name="Group 14175">
          <g id="Group_14174" data-name="Group 14174">
            <path id="Path_32292" data-name="Path 32292" d="M58.828,3.972H51.861a1.172,1.172,0,0,0-1.172,1.172V6.155H47.421a1.172,1.172,0,0,0-1.172,1.172v.337a8.309,8.309,0,0,1-4.281-1.536,70.91,70.91,0,0,0-7.04-3.595l-.052-.022a9.97,9.97,0,0,0-7.652.12L22.509,4.321,18.534.346a1.172,1.172,0,0,0-1.657,0L3.827,13.4a1.162,1.162,0,0,0,0,1.657l22.3,22.3a1.266,1.266,0,0,0,1.657,0L39.7,25.438c.31.027.631.041.964.041,3.062,0,5.77-2.1,7.319-4.389H58.828A1.172,1.172,0,0,0,60,19.918V5.143A1.172,1.172,0,0,0,58.828,3.972ZM17.705,2.832,20.376,5.5a5.109,5.109,0,0,1-5.342,0ZM8.984,16.9,6.313,14.224l2.671-2.671a5.109,5.109,0,0,1,0,5.342ZM26.955,34.866l-2.67-2.67a5.1,5.1,0,0,1,5.341,0Zm4.359-4.359a7.447,7.447,0,0,0-8.718,0L10.672,18.583a7.447,7.447,0,0,0,0-8.719l2.674-2.674a7.447,7.447,0,0,0,8.719,0L24.6,9.726a4.645,4.645,0,0,0-3.487,2.555,6.679,6.679,0,1,0,7.68,8.268l3.957,1.343a7.482,7.482,0,0,0,1.241,5.939ZM24.189,18.986,24.22,19l2.343.8a4.336,4.336,0,1,1-5.886-4.953A5.188,5.188,0,0,0,24.189,18.986Zm11.49,7.156a5.126,5.126,0,0,1-.749-2.437A9.112,9.112,0,0,0,37,24.825Zm10.571-6.692c-1.111,1.821-3.265,3.684-5.587,3.684a8.529,8.529,0,0,1-1.222-.086h0a6.712,6.712,0,0,1-4.341-2.376c-.024-.035-.126-.168-.141-.191a1.168,1.168,0,0,0-.646-.537L24.99,16.783a2.63,2.63,0,0,1-1.913-3.1v-.005a2.283,2.283,0,0,1,2.8-1.572l10.5,3.327A1.172,1.172,0,0,0,37.09,13.2l-8.35-2.646-.073-.073,0,0L24.342,6.154l3.716-1.331.04-.015.012,0,.047-.02a7.6,7.6,0,0,1,5.836-.1,67.882,67.882,0,0,1,6.8,3.475,10.546,10.546,0,0,0,5.451,1.854Zm4.44-.7h-2.1V8.5h2.1Zm6.968,0H53.032V6.315h4.624Z" fill="#5745de"/>
          </g>
        </g>
      </g>
    </g>
    <text id="Pay_in_Cash" data-name="Pay in Cash" transform="translate(86 238)" fill="#5745de" font-size="12" font-family="Poppins-Medium, Poppins" font-weight="500"><tspan x="-35.532" y="0">Pay in Cash</tspan></text>
  </g>
</svg>
