<svg xmlns="http://www.w3.org/2000/svg" xmlns:xlink="http://www.w3.org/1999/xlink" width="23.296" height="16.641" viewBox="0 0 23.296 16.641">
  <defs>
    <linearGradient id="linear-gradient" x1="1.359" y1="0.129" x2="0.092" y2="0.91" gradientUnits="objectBoundingBox">
      <stop offset="0" stop-color="#5745de"/>
      <stop offset="1" stop-color="#689dde"/>
    </linearGradient>
  </defs>
  <path id="Path_31861" data-name="Path 31861" d="M463.694-1298.314q-3.67,0-7.339,0c-.187,0-.243-.039-.24-.235.013-.757.01-1.515,0-2.273a.82.82,0,0,0-.724-.814.831.831,0,0,0-.891.57,1.138,1.138,0,0,0-.037.364c0,.722,0,1.443,0,2.165,0,.158-.025.225-.209.224-1.58-.008-3.161,0-4.741-.005a.831.831,0,0,1-.883-.881c0-1.14,0-2.28,0-3.421a.283.283,0,0,1,.18-.3,3.991,3.991,0,0,0,2.31-3.684,4,4,0,0,0-2.308-3.75.283.283,0,0,1-.182-.294c.006-1.126,0-2.251,0-3.377a.844.844,0,0,1,.925-.928c1.559,0,3.118,0,4.676-.005.2,0,.236.061.234.244-.01.758-.008,1.516,0,2.273a.811.811,0,0,0,.559.771.828.828,0,0,0,.9-.258.874.874,0,0,0,.193-.582c0-.743,0-1.487-.005-2.23,0-.166.037-.218.212-.218q7.35.008,14.7,0a.833.833,0,0,1,.895.891c0,1.14,0,2.28,0,3.421a.268.268,0,0,1-.168.281,3.993,3.993,0,0,0-2.321,3.721,3.994,3.994,0,0,0,2.317,3.724.267.267,0,0,1,.173.278c-.007,1.133,0,2.266,0,3.4a.838.838,0,0,1-.912.916Zm-4.25-3.331a.851.851,0,0,0,.633-.283q4.108-4.111,8.218-8.22c.031-.031.062-.061.09-.094a.822.822,0,0,0-.374-1.332.843.843,0,0,0-.9.264q-4.092,4.1-8.187,8.19a1.2,1.2,0,0,0-.144.161.8.8,0,0,0-.066.859A.794.794,0,0,0,459.443-1301.645Zm7.487,0a1.656,1.656,0,0,0,1.66-1.662,1.663,1.663,0,0,0-1.649-1.655,1.672,1.672,0,0,0-1.674,1.656A1.663,1.663,0,0,0,466.931-1301.647Zm-5-8.316a1.651,1.651,0,0,0-1.67-1.65,1.653,1.653,0,0,0-1.642,1.677,1.66,1.66,0,0,0,1.659,1.643A1.66,1.66,0,0,0,461.936-1309.963Zm-5.816,3.337c0-.541,0-1.082,0-1.623a.83.83,0,0,0-.825-.871.823.823,0,0,0-.827.866q-.006,1.623,0,3.246a.828.828,0,0,0,.822.873.836.836,0,0,0,.831-.889C456.121-1305.558,456.12-1306.092,456.12-1306.626Z" transform="translate(-448.631 1314.95)" fill="url(#linear-gradient)"/>
</svg>
