<svg id="Group_11210" data-name="Group 11210" xmlns="http://www.w3.org/2000/svg" width="24" height="24" viewBox="0 0 24 24">
  <circle id="Ellipse_496" data-name="Ellipse 496" cx="7.039" cy="7.039" r="7.039" transform="translate(5.839 3.891)" fill="#c4defe"/>
  <path id="Path_31884" data-name="Path 31884" d="M0,10.692a10.64,10.64,0,0,1,3.231-7.34A10.972,10.972,0,0,1,8.987.224,10.445,10.445,0,0,1,16.208,1.3a10.981,10.981,0,0,1,5.724,7.363,10.044,10.044,0,0,1-1.2,7.646,11.04,11.04,0,0,1-6.895,5.261,10.487,10.487,0,0,1-8.777-1.491A10.986,10.986,0,0,1,.239,13.152,10.867,10.867,0,0,1,0,10.692m11.091,9.257a9.356,9.356,0,0,0,1.849-.173,8.655,8.655,0,0,0,5.87-3.941,8.89,8.89,0,0,0,1.2-6.673,8.462,8.462,0,0,0-4.52-6.108A9.218,9.218,0,0,0,9.275,2.17a8.582,8.582,0,0,0-6.093,4.3A8.983,8.983,0,0,0,2.13,12.437a8.507,8.507,0,0,0,2.307,4.737,9.021,9.021,0,0,0,6.653,2.775" transform="translate(1.781 0)" fill="#689dde"/>
  <circle id="Ellipse_497" data-name="Ellipse 497" cx="1.242" cy="1.242" r="1.242" transform="translate(11.642 9.344)" fill="#689dde"/>
  <circle id="Ellipse_498" data-name="Ellipse 498" cx="1.242" cy="1.242" r="1.242" transform="translate(15.756 9.344)" fill="#689dde"/>
  <circle id="Ellipse_499" data-name="Ellipse 499" cx="1.242" cy="1.242" r="1.242" transform="translate(7.529 9.344)" fill="#689dde"/>
  <path id="Polygon_19" data-name="Polygon 19" d="M3.312,0,6.625,4.969H0Z" transform="translate(4.685 24) rotate(-135)" fill="#689dde"/>
</svg>
