<svg xmlns="http://www.w3.org/2000/svg" width="24" height="24" viewBox="0 0 24 24">
  <g id="Group_13500" data-name="Group 13500" transform="translate(-297 -234)">
    <rect id="Rectangle_2570" data-name="Rectangle 2570" width="24" height="24" transform="translate(297 234)" fill="#fff" opacity="0"/>
    <path id="Path_32135" data-name="Path 32135" d="M8,16H6a2,2,0,0,1-2-2V6A2,2,0,0,1,6,4h8a2,2,0,0,1,2,2V8M10,20h8a2,2,0,0,0,2-2V10a2,2,0,0,0-2-2H10a2,2,0,0,0-2,2v8A2,2,0,0,0,10,20Z" transform="translate(297.5 233.5)" fill="none" stroke="#000" stroke-linecap="round" stroke-linejoin="round" stroke-width="1"/>
  </g>
</svg>
