<svg xmlns="http://www.w3.org/2000/svg" width="24" height="24" viewBox="0 0 24 24">
  <g id="Group_11211" data-name="Group 11211" transform="translate(-28 -454.105)">
    <path id="Path_31884" data-name="Path 31884" d="M0,11.691A11.7,11.7,0,0,1,3.49,3.666,11.81,11.81,0,0,1,9.707.244a11.163,11.163,0,0,1,7.8,1.178,11.986,11.986,0,0,1,6.182,8.05,11.1,11.1,0,0,1-1.3,8.36,11.944,11.944,0,0,1-7.447,5.752A11.214,11.214,0,0,1,5.46,21.954,11.988,11.988,0,0,1,0,11.691M11.98,21.812a9.987,9.987,0,0,0,2-.189,9.345,9.345,0,0,0,6.34-4.309,9.819,9.819,0,0,0,1.3-7.3,9.243,9.243,0,0,0-4.883-6.679,9.851,9.851,0,0,0-6.714-.966,9.274,9.274,0,0,0-6.582,4.7A9.924,9.924,0,0,0,2.3,13.6a9.347,9.347,0,0,0,2.492,5.179,9.686,9.686,0,0,0,7.186,3.034" transform="translate(28 454.105)" fill="#689dde"/>
    <path id="Path_31904" data-name="Path 31904" d="M11.893,15.827c1.594,0,3.187,0,4.781,0,.13,0,.3-.074.383.067.069.123-.075.228-.138.33-.6.967-1.19,1.938-1.807,2.892a.565.565,0,0,0,.011.716c.617.955,1.209,1.926,1.807,2.893.063.1.2.205.122.331s-.234.052-.354.052c-3.2,0-6.4,0-9.6.009-.29,0-.388-.067-.386-.375q.02-3.282,0-6.563c0-.286.082-.364.363-.362,1.606.012,3.212.006,4.819.006Z" transform="translate(29.161 446.758)" fill="#c4defe"/>
    <g id="Group_11220" data-name="Group 11220" transform="translate(35.361 461.127)">
      <g id="Group_11214" data-name="Group 11214" transform="translate(0 0)">
        <path id="Path_31885" data-name="Path 31885" d="M.217,36.426q0-.227,0-.454c.216-.07.128-.253.128-.387q.009-3.3.006-6.6c.248.063.147.267.147.409.007,1.947.013,3.893,0,5.839,0,.35.1.49.444.434a18.423,18.423,0,0,1,2.872-.07c2.5-.014,4.993,0,7.489-.006.123,0,.277.033.328-.118.041-.119-.068-.194-.147-.281-.487-.533-.769-1.207-1.209-1.774-.3-.392-.285-.989-.819-1.244-.132-.063-.1-.952.018-1.042.267-.212.352-.545.545-.8.169-.221.1-.634.509-.668.012.09-.08.182.007.269a.056.056,0,0,1-.035.056.416.416,0,0,0-.073-.04c-.041.051,0,.074.038.1-.274.452-.54.911-.828,1.355a.386.386,0,0,0,0,.477c.708,1.163,1.41,2.33,2.171,3.46.15.222.045.418-.243.424-.518.012-1.037,0-1.555,0-2.959,0-5.917.006-8.876-.009-.357,0-.435.1-.433.443C.712,37.747.694,39.288.686,40.83c-.185.082-.074.252-.112.377-.187.033-.2-.211-.355-.225q0-.075,0-.15c.18-.046.129-.195.129-.311q0-1.892,0-3.785c0-.116.05-.265-.131-.31" transform="translate(-0.201 -26.783)" fill="#689dde" stroke="#689dde" stroke-width="1"/>
        <path id="Path_31886" data-name="Path 31886" d="M11.955,9.64c.315-.007.631-.019.946-.019q4.608,0,9.217,0c.163,0,.326.022.489.033h0a.271.271,0,0,1,.046.4,9.328,9.328,0,0,1-.82,1.191l-.005,0a1.739,1.739,0,0,1,.469-.922.425.425,0,0,0,.144-.365c.077-.051.079-.1,0-.151h-10.4l-.078-.162" transform="translate(-11.047 -8.888)" fill="#689dde" stroke="#689dde" stroke-width="1"/>
        <path id="Path_31887" data-name="Path 31887" d="M.151,2.2q0,3.3-.006,6.6c0,.134.088.317-.128.386q-.008-2.5-.015-5Q0,2.358,0,.522A1.532,1.532,0,0,1,.02.183.23.23,0,0,1,.273,0a.211.211,0,0,1,.21.184A1.143,1.143,0,0,1,.489.672C.456.639.411.613.392.574.332.452.456.191.279.208.062.229.177.493.151.652a.618.618,0,0,0,0,.111v.3q0,.382,0,.763V2.2" transform="translate(-0.001 0)" fill="#689dde" stroke="#689dde" stroke-width="1"/>
        <path id="Path_31888" data-name="Path 31888" d="M.218,126.957c.181.045.13.193.131.31q0,1.892,0,3.785c0,.116.051.265-.129.311q0-2.2,0-4.406" transform="translate(-0.201 -117.314)" fill="#689dde" stroke="#689dde" stroke-width="1"/>
        <path id="Path_31889" data-name="Path 31889" d="M1.886,3.283a.619.619,0,0,1,0-.111c.027-.159-.089-.422.128-.443.178-.017.053.244.113.365.019.039.064.066.1.1l.195.081c.027.059.052.052.075,0h.149l.078.162c-.068.24-.227.176-.336.067a.929.929,0,0,0-.5-.218" transform="translate(-1.736 -2.52)" fill="#689dde" stroke="#689dde" stroke-width="1"/>
        <path id="Path_31890" data-name="Path 31890" d="M135.549,31.762c-.086-.088,0-.18-.007-.269a.738.738,0,0,1,.452-.533l.005,0a4.953,4.953,0,0,1-.45.8" transform="translate(-125.219 -28.608)" fill="#689dde" stroke="#689dde" stroke-width="1"/>
        <path id="Path_31891" data-name="Path 31891" d="M.251,186.936c.157.014.168.258.355.225l.012.012,0,.03c-.285.173-.352.124-.364-.267" transform="translate(-0.232 -172.737)" fill="#689dde" stroke="#689dde" stroke-width="1"/>
        <path id="Path_31892" data-name="Path 31892" d="M4.924,185.312c.038-.125-.074-.3.112-.377.021.133.058.269-.056.382l-.043.007Z" transform="translate(-4.55 -170.888)" fill="#689dde" stroke="#689dde" stroke-width="1"/>
        <path id="Path_31893" data-name="Path 31893" d="M134.422,41.825c-.035-.025-.079-.048-.038-.1a.415.415,0,0,1,.073.04l-.035.058" transform="translate(-124.161 -38.557)" fill="#689dde" stroke="#689dde" stroke-width="1"/>
        <path id="Path_31894" data-name="Path 31894" d="M5.04,189.971l.043-.007-.027.065.005-.007L5.037,190l0-.03" transform="translate(-4.654 -175.535)" fill="#689dde" stroke="#689dde" stroke-width="1"/>
        <path id="Path_31895" data-name="Path 31895" d="M152.131,9.821h0l.021-.02Z" transform="translate(-140.576 -9.057)" fill="#689dde" stroke="#689dde" stroke-width="1"/>
        <path id="Path_31896" data-name="Path 31896" d="M9.074,9.881c-.023.054-.048.062-.075,0l.075,0" transform="translate(-8.316 -9.131)" fill="#689dde" stroke="#689dde" stroke-width="1"/>
        <path id="Path_31897" data-name="Path 31897" d="M12.605,11.629a.738.738,0,0,0-.452.533c-.406.033-.339.447-.509.668-.193.251-.277.585-.545.8-.114.09-.15.979-.018,1.042.534.255.515.852.819,1.244.44.567.722,1.241,1.209,1.774.079.086.188.161.147.281-.051.151-.206.118-.328.118-2.5,0-4.993-.008-7.489.006a18.415,18.415,0,0,0-2.872.07c-.348.057-.447-.084-.444-.434.017-1.946.01-3.893,0-5.839,0-.142.1-.346-.147-.409q0-.188,0-.377a.53.53,0,0,0,0-.763q0-.149,0-.3a.929.929,0,0,1,.5.218c.109.109.268.173.336-.067h10.4q0,.075,0,.151a.425.425,0,0,1-.144.365,1.74,1.74,0,0,0-.469.922M7.521,10.494v0c-1.606,0-3.212.006-4.819-.006-.281,0-.364.076-.363.362q.018,3.282,0,6.563c0,.308.1.376.386.375,3.2-.01,6.4-.006,9.6-.009.12,0,.279.061.354-.052s-.059-.229-.122-.331c-.6-.967-1.19-1.938-1.807-2.893a.565.565,0,0,1-.011-.716c.618-.954,1.21-1.925,1.807-2.892.063-.1.207-.207.138-.33-.078-.141-.253-.066-.383-.067-1.594-.005-3.187,0-4.781,0M2.969,17.953c0,.011,0,.021,0,.032h8.788c0-.011,0-.021,0-.032ZM12.9,10.327l-.006-.036H8.3c0,.012,0,.024,0,.036Zm-5.25,0,.015-.038H3.371v.038Z" transform="translate(-1.83 -9.277)" fill="#689dde" stroke="#689dde" stroke-width="1"/>
        <path id="Path_31898" data-name="Path 31898" d="M149.911,12.179q0-.075,0-.151c.081.049.079.1,0,.151" transform="translate(-138.523 -11.114)" fill="#689dde" stroke="#689dde" stroke-width="1"/>
        <path id="Path_31899" data-name="Path 31899" d="M1.981,13.973a.53.53,0,0,1,0,.763q0-.382,0-.763" transform="translate(-1.83 -12.912)" fill="#689dde" stroke="#689dde" stroke-width="1"/>
        <path id="Path_31901" data-name="Path 31901" d="M15.006,114.227h8.788c0,.011,0,.021,0,.032H15.006c0-.011,0-.021,0-.032" transform="translate(-13.866 -105.551)" fill="#689dde" stroke="#689dde" stroke-width="1"/>
        <path id="Path_31902" data-name="Path 31902" d="M89.809,13.379h-4.6c0-.012,0-.024,0-.036H89.8l.006.036" transform="translate(-78.739 -12.33)" fill="#689dde" stroke="#689dde" stroke-width="1"/>
        <path id="Path_31903" data-name="Path 31903" d="M24.571,13.405H20.292v-.038h4.294l-.015.038" transform="translate(-18.751 -12.352)" fill="#689dde" stroke="#689dde" stroke-width="1"/>
      </g>
    </g>
  </g>
</svg>
