<svg xmlns="http://www.w3.org/2000/svg" width="24" height="24" viewBox="0 0 24 24">
  <g id="Group_13483" data-name="Group 13483" transform="translate(-250 -319)">
    <rect id="Rectangle_2568" data-name="Rectangle 2568" width="24" height="24" transform="translate(250 319)" fill="#fff" opacity="0"/>
    <g id="Iconly_Light_Edit" data-name="Iconly/Light/Edit" transform="translate(254 323)">
      <g id="Edit" transform="translate(-0.75 -0.75)">
        <path id="Stroke_1" data-name="Stroke 1" d="M0,.5H6.377" transform="translate(10.2 15.898)" fill="none" stroke="#000" stroke-linecap="round" stroke-linejoin="round" stroke-miterlimit="10" stroke-width="1.5"/>
        <path id="Stroke_3" data-name="Stroke 3" d="M8.6.706A1.947,1.947,0,0,1,11.473.553l1.39,1.09A1.946,1.946,0,0,1,13.4,4.464L5.11,15.039a1.481,1.481,0,0,1-1.15.568l-3.2.041L.039,12.533a1.486,1.486,0,0,1,.277-1.252Z" transform="translate(0.75 0.75)" fill="none" stroke="#000" stroke-linecap="round" stroke-linejoin="round" stroke-miterlimit="10" stroke-width="1.5"/>
        <path id="Stroke_5" data-name="Stroke 5" d="M0,0,4.794,3.758" transform="translate(7.803 3.436)" fill="none" stroke="#000" stroke-linecap="round" stroke-linejoin="round" stroke-miterlimit="10" stroke-width="1.5"/>
      </g>
    </g>
  </g>
</svg>
