<svg xmlns="http://www.w3.org/2000/svg" xmlns:xlink="http://www.w3.org/1999/xlink" width="60" height="60" viewBox="0 0 60 60">
  <defs>
    <clipPath id="clip-path">
      <rect id="Rectangle_2705" data-name="Rectangle 2705" width="60" height="60" transform="translate(243 152)" fill="#fff"/>
    </clipPath>
  </defs>
  <g id="Mask_Group_31" data-name="Mask Group 31" transform="translate(-243 -152)" clip-path="url(#clip-path)">
    <g id="G_Pay" data-name="G Pay" transform="translate(243 152)">
      <g id="G_Pay_Lockup_1_">
        <g id="Pay_Typeface_3_">
          <path id="Letter_p_3_" d="M28,29.679V36.62H25.8V19.48h5.839a5.267,5.267,0,0,1,3.774,1.48,4.942,4.942,0,0,1,0,7.25,5.257,5.257,0,0,1-3.774,1.457H28v.011Zm0-8.088v5.977h3.683a2.94,2.94,0,0,0,2.18-.883,2.889,2.889,0,0,0,.883-2.1A3.057,3.057,0,0,0,31.686,21.6H28v-.011Z" fill="#383e41"/>
          <path id="Letter_a_3_" d="M42.757,24.5a5.449,5.449,0,0,1,3.855,1.308,4.64,4.64,0,0,1,1.411,3.579V36.62h-2.1V34.991h-.092A4.19,4.19,0,0,1,42.195,37a4.721,4.721,0,0,1-3.247-1.147,3.663,3.663,0,0,1-1.308-2.868,3.464,3.464,0,0,1,1.377-2.891,5.776,5.776,0,0,1,3.671-1.078,6.417,6.417,0,0,1,3.224.723v-.5a2.5,2.5,0,0,0-.906-1.95,3.109,3.109,0,0,0-2.134-.8,3.347,3.347,0,0,0-2.914,1.56l-1.939-1.216A5.38,5.38,0,0,1,42.757,24.5Zm-2.845,8.512a1.737,1.737,0,0,0,.734,1.434,2.7,2.7,0,0,0,1.709.574,3.493,3.493,0,0,0,2.478-1.033,3.24,3.24,0,0,0,1.09-2.421,4.537,4.537,0,0,0-2.868-.815,3.765,3.765,0,0,0-2.237.642A1.959,1.959,0,0,0,39.912,33.017Z" fill="#383e41"/>
          <path id="Letter_y_3_" d="M60,24.883,52.658,41.771H50.386l2.73-5.908L48.275,24.883h2.4L54.161,33.3h.046l3.4-8.421H60Z" fill="#383e41"/>
        </g>
        <path id="Path_32285" data-name="Path 32285" d="M19.059,26.213H9.826V30h5.317a4.555,4.555,0,0,1-1.973,3.049h0l-.1,2.263,3.261.192h0a9.621,9.621,0,0,0,2.907-7.226A11.606,11.606,0,0,0,19.059,26.213Z" fill="#0085f7"/>
        <path id="Path_32286" data-name="Path 32286" d="M13.171,33.049h0a5.955,5.955,0,0,1-8.86-3.115h0L1.588,29.5l-.542,2.964A9.829,9.829,0,0,0,9.828,37.88a9.374,9.374,0,0,0,6.507-2.375h0Z" fill="#00a94b"/>
        <path id="Path_32287" data-name="Path 32287" d="M4,28.055a5.925,5.925,0,0,1,.307-1.88l-.85-2.533H1.045a9.842,9.842,0,0,0,0,8.827h0L4.31,29.936h0A5.923,5.923,0,0,1,4,28.055Z" fill="#fb0"/>
        <path id="Path_32288" data-name="Path 32288" d="M9.828,18.229a9.83,9.83,0,0,0-8.783,5.413L4.31,26.175a5.879,5.879,0,0,1,5.518-4.057A5.341,5.341,0,0,1,13.6,23.593l2.805-2.8A9.441,9.441,0,0,0,9.828,18.229Z" fill="#ff4031"/>
      </g>
    </g>
  </g>
</svg>
