<svg xmlns="http://www.w3.org/2000/svg" xmlns:xlink="http://www.w3.org/1999/xlink" width="19.844" height="23.634" viewBox="0 0 19.844 23.634">
  <defs>
    <clipPath id="clip-path">
      <rect id="Rectangle_2433" data-name="Rectangle 2433" width="19.844" height="23.634" fill="none"/>
    </clipPath>
  </defs>
  <g id="Group_11371" data-name="Group 11371" clip-path="url(#clip-path)">
    <path id="Path_31949" data-name="Path 31949" d="M19.145,74.467c-1.641,1.3-2.727,2.869-2.534,5.029a5.272,5.272,0,0,0,3.232,4.582c-.29.658-.55,1.344-.886,1.992a11.388,11.388,0,0,1-2.538,3.456,3.019,3.019,0,0,1-3.048.687c-.434-.134-.872-.256-1.3-.413a5.011,5.011,0,0,0-3.771.1,7.039,7.039,0,0,1-1.689.484,3.018,3.018,0,0,1-2.435-.931,10.117,10.117,0,0,1-2.02-2.616A14.686,14.686,0,0,1,.005,79.874a8.863,8.863,0,0,1,1.172-4.989,5.125,5.125,0,0,1,5.814-2.531c.744.155,1.481.353,2.213.559a3.6,3.6,0,0,0,2.032-.044,21.969,21.969,0,0,1,2.593-.692,5.369,5.369,0,0,1,5.315,2.291" transform="translate(0 -66.778)" fill="#fff"/>
    <path id="Path_31950" data-name="Path 31950" d="M136.724,0c.923,2.234-2.03,5.9-4.593,5.723A5.358,5.358,0,0,1,136.724,0" transform="translate(-122.375)" fill="#fff"/>
  </g>
</svg>
