<svg xmlns="http://www.w3.org/2000/svg" width="24" height="23.072" viewBox="0 0 24 23.072">
    <g id="Group_13909" data-name="Group 13909" transform="translate(-0.001 -0.464)">
        <path id="Path_32238" data-name="Path 32238" d="M12,1.816a10.513,10.513,0,0,0-7.478,17.9c-.334.428-.847,1.084-1.552,1.988A1.134,1.134,0,0,0,4.759,23.1s.948-1.218,1.523-1.952a10.478,10.478,0,0,0,11.439,0c.574.734,1.522,1.952,1.522,1.952a1.134,1.134,0,0,0,1.788-1.394c-.7-.9-1.218-1.561-1.552-1.989A10.513,10.513,0,0,0,12,1.816ZM3.511,12.33A8.489,8.489,0,1,1,12,20.822,8.5,8.5,0,0,1,3.511,12.33Z"/>
        <path id="Path_32239" data-name="Path 32239" d="M12.693,10.9,12.7,7.956a.675.675,0,1,0-1.35,0l-.005,2.929a1.6,1.6,0,0,0-.81.828L5.645,11.7a.675.675,0,0,0,0,1.35l4.951.008a1.587,1.587,0,1,0,2.1-2.157Z"/>
        <path id="Path_32240" data-name="Path 32240" d="M1.218,1.658a4.121,4.121,0,0,0-.213,5.621L6.842,1.49A4.123,4.123,0,0,0,1.218,1.658Z"/>
        <path id="Path_32241" data-name="Path 32241" d="M22.785,1.658a4.124,4.124,0,0,0-5.624-.167L23,7.28A4.123,4.123,0,0,0,22.785,1.658Z"/>
    </g>
</svg>
