<svg xmlns="http://www.w3.org/2000/svg" width="23.906" height="24" viewBox="0 0 23.906 24">
    <g id="Group_14047" data-name="Group 14047" transform="translate(-0.047 0)">
        <path id="Path_32251" data-name="Path 32251" d="M23.9,8.88h0l0-.011v0l-1.87-4.674a.7.7,0,0,0-.653-.442H19.5V.7a.7.7,0,0,0-.7-.7H5.2a.7.7,0,0,0-.7.7V3.75H2.625a.7.7,0,0,0-.653.442L.1,8.866v0l0,.011h0a.7.7,0,0,0-.051.261v1.031a2.954,2.954,0,0,0,1.406,2.514V23.3a.7.7,0,0,0,.7.7H21.844a.7.7,0,0,0,.7-.7V12.686a2.954,2.954,0,0,0,1.406-2.514V9.141A.7.7,0,0,0,23.9,8.88Zm-18-7.473H18.094V5.625H5.906ZM3.1,5.156H4.5V6.328a.7.7,0,0,0,.7.7H18.8a.7.7,0,0,0,.7-.7V5.156h1.4l1.313,3.281H1.789ZM14.953,9.844h3.094v.328a1.547,1.547,0,0,1-3.094,0Zm-4.5,0h3.094v.328a1.547,1.547,0,0,1-3.094,0Zm-4.5,0H9.047v.328a1.547,1.547,0,0,1-3.094,0Zm-4.5.328V9.844H4.547v.328a1.547,1.547,0,0,1-3.094,0ZM5.672,22.594V16.031H9.891v6.563Zm15.469,0H11.3V15.328a.7.7,0,0,0-.7-.7H4.969a.7.7,0,0,0-.7.7v7.266H2.859V13.121c.047,0,.093,0,.141,0a2.947,2.947,0,0,0,2.25-1.044,2.947,2.947,0,0,0,4.5,0,2.947,2.947,0,0,0,4.5,0,2.947,2.947,0,0,0,4.5,0A2.947,2.947,0,0,0,21,13.125c.047,0,.094,0,.141,0Zm1.406-12.422a1.547,1.547,0,0,1-3.094,0V9.844h3.094Z" fill="#5745de"/>
        <path id="Path_32252" data-name="Path 32252" d="M8.016,4.219h7.969a.7.7,0,0,0,0-1.406H8.016a.7.7,0,0,0,0,1.406Z" fill="#5745de"/>
        <path id="Path_32253" data-name="Path 32253" d="M19.031,14.625H13.406a.7.7,0,0,0-.7.7v4.219a.7.7,0,0,0,.7.7h5.625a.7.7,0,0,0,.7-.7V15.328A.7.7,0,0,0,19.031,14.625Zm-.7,4.219H14.109V16.031h4.219Z" fill="#5745de"/>
        <path id="Path_32254" data-name="Path 32254" d="M8.25,17.906a.7.7,0,0,0-.7.7v.938a.7.7,0,0,0,1.406,0v-.937A.7.7,0,0,0,8.25,17.906Z" fill="#5745de"/>
    </g>
</svg>
