<svg xmlns="http://www.w3.org/2000/svg" width="21.622" height="21.619" viewBox="0 0 21.622 21.619">
  <g id="Iconly_Light_Buy" data-name="Iconly/Light/Buy" transform="translate(0.869 0.869)">
    <g id="Buy">
      <path id="Stroke_1" data-name="Stroke 1" d="M.826,0a.837.837,0,0,1,.827.845.836.836,0,0,1-.827.844A.835.835,0,0,1,0,.845.836.836,0,0,1,.826,0Z" transform="translate(4.225 18.31)" fill="none" stroke="#2d2d2d" stroke-linecap="round" stroke-linejoin="round" stroke-miterlimit="10" stroke-width="1.5"/>
      <path id="Stroke_3" data-name="Stroke 3" d="M.827,0a.837.837,0,0,1,.827.845.836.836,0,0,1-.827.844A.836.836,0,0,1,0,.845.837.837,0,0,1,.827,0Z" transform="translate(16.389 18.31)" fill="none" stroke="#2d2d2d" stroke-linecap="round" stroke-linejoin="round" stroke-miterlimit="10" stroke-width="1.5"/>
      <path id="Stroke_5" data-name="Stroke 5" d="M0,0,2.249.4,3.29,13.076A1.966,1.966,0,0,0,5.232,14.9h11.8a1.965,1.965,0,0,0,1.93-1.708l1.026-7.247A1.471,1.471,0,0,0,18.55,4.253H2.61" fill="none" stroke="#2d2d2d" stroke-linecap="round" stroke-linejoin="round" stroke-miterlimit="10" stroke-width="1.5"/>
      <path id="Stroke_7" data-name="Stroke 7" d="M0,.5H3" transform="translate(12.298 7.837)" fill="none" stroke="#2d2d2d" stroke-linecap="round" stroke-linejoin="round" stroke-miterlimit="10" stroke-width="1.5"/>
    </g>
  </g>
</svg>
