<svg xmlns="http://www.w3.org/2000/svg" width="40" height="40" viewBox="0 0 40 40">
    <path id="Category"
        d="M28.161,40a5.1,5.1,0,0,1-5.081-5.121V28.062a5.086,5.086,0,0,1,5.081-5.123H34.92A5.1,5.1,0,0,1,40,28.062v6.817A5.108,5.108,0,0,1,34.92,40ZM5.08,40A5.109,5.109,0,0,1,0,34.879V28.062a5.1,5.1,0,0,1,5.08-5.123h6.761a5.086,5.086,0,0,1,5.08,5.123v6.817A5.1,5.1,0,0,1,11.841,40ZM28.161,17.061A5.085,5.085,0,0,1,23.08,11.94V5.123A5.1,5.1,0,0,1,28.161,0H34.92A5.109,5.109,0,0,1,40,5.123V11.94a5.1,5.1,0,0,1-5.08,5.121Zm-23.082,0A5.1,5.1,0,0,1,0,11.94V5.123A5.11,5.11,0,0,1,5.08,0h6.761a5.1,5.1,0,0,1,5.08,5.123V11.94a5.084,5.084,0,0,1-5.08,5.121Z"
        fill="#fff" />
</svg>
