<svg xmlns="http://www.w3.org/2000/svg" width="14" height="7.579" viewBox="0 0 14 7.579">
    <g id="Delivery" transform="translate(0.027 -3.297)">
        <path id="Path_32118" data-name="Path 32118" d="M12.02,10.876a1.2,1.2,0,1,1,1.2-1.2,1.2,1.2,0,0,1-1.2,1.2Zm0-1.961a.762.762,0,1,0,.761.762.762.762,0,0,0-.761-.762Z" fill="#fff"/>
        <path id="Path_32119" data-name="Path 32119" d="M5.7,10.876a1.2,1.2,0,1,1,1.2-1.2,1.2,1.2,0,0,1-1.2,1.2Zm0-1.961a.762.762,0,1,0,.761.762A.762.762,0,0,0,5.7,8.915Z" fill="#fff"/>
        <path id="Path_32120" data-name="Path 32120" d="M13.6,9.9H13a.219.219,0,1,1,0-.438h.536V8.3a.922.922,0,0,0-.117-.448L12.235,5.727a.117.117,0,0,0-.1-.06H10.52V9.459h.521a.219.219,0,0,1,0,.438H10.3a.219.219,0,0,1-.219-.219V5.448a.219.219,0,0,1,.219-.219h1.833a.554.554,0,0,1,.484.284L13.8,7.637a1.36,1.36,0,0,1,.172.661V9.52A.376.376,0,0,1,13.6,9.9Z" fill="#fff"/>
        <path id="Path_32121" data-name="Path 32121" d="M4.72,9.9h-2.1A.219.219,0,0,1,2.4,9.677V7.994a.219.219,0,0,1,.438,0V9.458H4.72a.219.219,0,1,1,0,.438Z" fill="#fff"/>
        <path id="Path_32122" data-name="Path 32122" d="M2.623,7.218A.219.219,0,0,1,2.4,7V5.53a.219.219,0,1,1,.438,0V7a.219.219,0,0,1-.219.218Z" fill="#fff"/>
        <path id="Path_32123" data-name="Path 32123" d="M10.3,9.9H6.679a.219.219,0,1,1,0-.438h3.4V3.735H2.841v.9a.219.219,0,0,1-.438,0V3.695a.4.4,0,0,1,.4-.4h7.321a.4.4,0,0,1,.4.4V9.677A.219.219,0,0,1,10.3,9.9Z" fill="#fff"/>
        <path id="Path_32124" data-name="Path 32124" d="M3.488,8.213H.711a.219.219,0,1,1,0-.438H3.488a.219.219,0,1,1,0,.438Z" fill="#fff"/>
        <path id="Path_32125" data-name="Path 32125" d="M5.7,7.218H1.826a.219.219,0,1,1,0-.438H5.7a.219.219,0,0,1,0,.438Z" fill="#fff"/>
        <path id="Path_32126" data-name="Path 32126" d="M1.705,6.063H.192a.219.219,0,1,1,0-.438H1.705a.219.219,0,1,1,0,.438Z" fill="#fff"/>
        <path id="Path_32127" data-name="Path 32127" d="M4.131,4.855H1.46a.219.219,0,1,1,0-.438H4.131a.219.219,0,1,1,0,.438Z" fill="#fff"/>
    </g>
</svg>
