<svg xmlns="http://www.w3.org/2000/svg" width="300" height="194.491" viewBox="0 0 300 194.491">
    <g id="undraw_notify_re_65on" transform="translate(0 -0.018)">
        <path id="Path_32048" data-name="Path 32048" d="M351.48,267.565l-8.568-25.857s9.425,9.425,9.425,17.158l-1.692-17.883a27.291,27.291,0,0,1,4.35,16.433C354.511,267.324,351.48,267.565,351.48,267.565Z" transform="translate(-77.848 -73.631)" fill="#e6e6e6"/>
        <path id="Path_32049" data-name="Path 32049" d="M167.476,244.021l-8.362-25.236s9.2,9.2,9.2,16.745l-1.651-17.453a26.635,26.635,0,0,1,4.245,16.038C170.435,243.785,167.476,244.021,167.476,244.021Z" transform="translate(-77.848 -73.631)" fill="#e6e6e6"/>
        <path id="Path_32050" data-name="Path 32050" d="M298,255.666c.014,16.6-32.911,11.494-73.219,11.529s-72.735,5.2-72.749-11.4,32.9-20.239,73.206-20.274S297.983,239.066,298,255.666Z" transform="translate(-77.848 -73.631)" fill="#e6e6e6"/>
        <rect id="Rectangle_2488" data-name="Rectangle 2488" width="300" height="0.759" transform="translate(0 193.554)" fill="#3f3d56"/>
        <path id="Path_32051" data-name="Path 32051" d="M191.9,159.616h-5.27l-2.508-20.326H191.9Z" fill="#a0616a"/>
        <path id="Path_32052" data-name="Path 32052" d="M182.281,158.11h10.748v6.4H176.467v-.585a5.814,5.814,0,0,1,5.814-5.814Z" fill="#2f2e41"/>
        <path id="Path_32053" data-name="Path 32053" d="M230.634,189.616h-5.27l-2.508-20.326h7.778Z" fill="#a0616a"/>
        <path id="Path_32054" data-name="Path 32054" d="M221.015,188.11h10.748v6.4H215.2v-.585a5.814,5.814,0,0,1,5.814-5.814Z" fill="#2f2e41"/>
        <path id="Path_32055" data-name="Path 32055" d="M332.789,202.863a3.917,3.917,0,0,0-1.1-5.905L319.45,147.1l-7.826,3.367,14.558,48.208a3.939,3.939,0,0,0,6.607,4.188Z" transform="translate(-77.848 -73.631)" fill="#a0616a"/>
        <path id="Path_32056" data-name="Path 32056" d="M323.244,102.1a4.322,4.322,0,0,0-6.613.438l-18.944,2.175,2.882,7.307,17.228-3.224a4.346,4.346,0,0,0,5.447-6.695Z" transform="translate(-77.848 -73.631)" fill="#a0616a"/>
        <path id="Path_32057" data-name="Path 32057" d="M292.025,197.692l8.266,62.041,10.289-2.118s-1.513-45.183,3.631-50.63S307.595,192,307.595,192Z" transform="translate(-77.848 -73.631)" fill="#2f2e41"/>
        <path id="Path_32058" data-name="Path 32058" d="M295.443,180.6l-3.8,5.7s-29.241-12.152-29.241,7.215-1.673,32.51-2.278,33.418,7,3.263,10.633,2.658c0,0,4.48-31.222,4.177-33.038,0,0,28.684,14.063,34.131,12.853s6.734-5.5,7.642-7.916-.38-21.646-.38-21.646L298.173,174.3Z" transform="translate(-77.848 -73.631)" fill="#2f2e41"/>
        <path id="Path_32059" data-name="Path 32059" d="M295.955,146.4l-1.082-1.3s-12.123-27.276-7.36-34.637,25.545-8.443,26.194-8.01-1.551,6.054-.036,8.652c0,0-16.1,3.49-17.181,3.923s8.342,16.433,8.342,16.433l-1.082,9.742Z" transform="translate(-77.848 -73.631)" fill="#ccc"/>
        <path id="Path_32060" data-name="Path 32060" d="M317.171,132.982s-11.257,1.3-11.69,1.3-.649-2.814-.649-2.814L294.873,145.1s-4.906,39.566-3.607,38.917,25.255,3.08,25.472,1.349-.216-10.391.433-10.824,11.257-27.276,11.257-27.276-1.082-5.628-4.763-7.577S317.171,132.982,317.171,132.982Z" transform="translate(-77.848 -73.631)" fill="#ccc"/>
        <path id="Path_32061" data-name="Path 32061" d="M324.964,143.589l3.464,3.68s5.146,42.289,2.332,43.587S322.405,192,322.405,192l-5.451-20.048Z" transform="translate(-77.848 -73.631)" fill="#ccc"/>
        <circle id="Ellipse_537" data-name="Ellipse 537" cx="9.964" cy="9.964" r="9.964" transform="translate(218.541 36.744)" fill="#a0616a"/>
        <path id="Path_32062" data-name="Path 32062" d="M304.015,121.894c-.135-2.068-2.743-2.138-4.815-2.158s-4.549.054-5.721-1.654a3.861,3.861,0,0,1,.013-3.907,11.1,11.1,0,0,1,2.729-3.037,37.819,37.819,0,0,1,8.64-6.086,13.856,13.856,0,0,1,10.3-.89c4.09,1.459,9.619,8.972,10.1,13.288a15.654,15.654,0,0,1-4.155,11.941c-2.908,3.225-9.563,1.924-13.751,3.071,2.546-3.6.868-10.152-3.211-11.834Z" transform="translate(-77.848 -73.631)" fill="#2f2e41"/>
        <circle id="Ellipse_538" data-name="Ellipse 538" cx="23.92" cy="23.92" r="23.92" transform="translate(113.443 129.31)" fill="#5745de"/>
        <path id="Path_32063" data-name="Path 32063" d="M199.236,201.241a17.15,17.15,0,0,1-15.667-10.173l-37.956-85.477a22.72,22.72,0,1,1,42.482-15.9l27.485,89.4a17.119,17.119,0,0,1-16.344,22.151Z" transform="translate(-77.848 -73.631)" fill="#5745de"/>
    </g>
</svg>
