<svg xmlns="http://www.w3.org/2000/svg" width="24" height="24" viewBox="0 0 24 24">
  <g id="Group_13249" data-name="Group 13249" transform="translate(-146 -622)">
    <rect id="Rectangle_2481" data-name="Rectangle 2481" width="24" height="24" transform="translate(146 622)" fill="#fff" opacity="0"/>
    <g id="Iconly_Light_Heart" data-name="Iconly/Light/Heart" transform="translate(148 624)">
      <g id="Heart">
        <path id="Path_33961" d="M10.236,19.838a38.535,38.535,0,0,1-6.656-5.21A13.333,13.333,0,0,1,.412,9.55C-.777,5.834.612,1.579,4.5.319a6.579,6.579,0,0,1,6,1.016h0a6.589,6.589,0,0,1,6-1.016c3.887,1.259,5.286,5.514,4.1,9.231a13.333,13.333,0,0,1-3.168,5.078,38.535,38.535,0,0,1-6.656,5.21l-.26.162Z" transform="translate(0)" fill="none" stroke="#2d2d2d" stroke-linecap="round" stroke-linejoin="round" stroke-miterlimit="10" stroke-width="1.5"/>
        <path id="Path_33964" d="M0,0A3.087,3.087,0,0,1,2.119,2.691" transform="translate(14.633 4.503)" fill="none" stroke="#2d2d2d" stroke-linecap="round" stroke-linejoin="round" stroke-miterlimit="10" stroke-width="1.5"/>
      </g>
    </g>
  </g>
</svg>
