<svg xmlns="http://www.w3.org/2000/svg" width="17.032" height="16.029" viewBox="0 0 17.032 16.029">
  <g id="Iconly_Light_Heart" data-name="Iconly/Light/Heart" transform="translate(0.516 0.529)">
    <g id="Heart">
      <path id="Path_33961" d="M7.8,14.878a29.3,29.3,0,0,1-5.071-3.907A9.978,9.978,0,0,1,.314,7.163C-.592,4.375.466,1.184,3.428.24A5.077,5.077,0,0,1,8,1H8A5.085,5.085,0,0,1,12.565.24c2.962.944,4.028,4.136,3.122,6.923a9.978,9.978,0,0,1-2.414,3.808A29.3,29.3,0,0,1,8.2,14.878L8,15Z" transform="translate(0 0)" fill="none" stroke="#df2e2e" stroke-linecap="round" stroke-linejoin="round" stroke-miterlimit="10" stroke-width="1"/>
      <path id="Path_33964" d="M0,0A2.323,2.323,0,0,1,1.614,2.018" transform="translate(11.149 3.378)" fill="none" stroke="#df2e2e" stroke-linecap="round" stroke-linejoin="round" stroke-miterlimit="10" stroke-width="1"/>
    </g>
  </g>
</svg>
