<svg xmlns="http://www.w3.org/2000/svg" width="21.335" height="21.852" viewBox="0 0 21.335 21.852">
  <path id="Path_31929" data-name="Path 31929" d="M31.019,54.708l-3,3.008a20.014,20.014,0,0,0-3.08-1.123,6.347,6.347,0,0,0-7.323,4.841,6.478,6.478,0,0,0,7.273,7.91A5.319,5.319,0,0,0,29.476,66.1a6.466,6.466,0,0,0,.211-.661c.023-.075.031-.156.055-.275H23.964V60.98c.165-.009.325-.026.484-.026,3.02,0,6.041.007,9.061-.014.459,0,.642.138.7.592.7,4.985-1.755,10.873-8.2,12.125A10.919,10.919,0,1,1,22.44,52.123a10.6,10.6,0,0,1,8.514,2.5.351.351,0,0,1,.065.083Z" transform="translate(-12.99 -52.01)" fill="#f9f9f9"/>
</svg>
