<svg xmlns="http://www.w3.org/2000/svg" width="10" height="13.052" viewBox="0 0 10 13.052">
    <g id="Location" transform="translate(0.5 0.5)">
        <path id="Path_33958" d="M0,5.026A4.79,4.79,0,0,1,4.515,0,4.8,4.8,0,0,1,9,5.06v.057A7.842,7.842,0,0,1,6.961,9.909a12.234,12.234,0,0,1-2.1,1.942.5.5,0,0,1-.713,0A12.276,12.276,0,0,1,1.182,8.744,6.955,6.955,0,0,1,0,5.043Z" fill="none" stroke="#000" stroke-linecap="round" stroke-linejoin="round" stroke-miterlimit="10" stroke-width="1"/>
        <ellipse id="Ellipse_740" cx="1.442" cy="1.616" rx="1.442" ry="1.616" transform="translate(3.058 3.507)" fill="none" stroke="#000" stroke-linecap="round" stroke-linejoin="round" stroke-miterlimit="10" stroke-width="1"/>
    </g>
</svg>
