<svg xmlns="http://www.w3.org/2000/svg" width="24" height="24" viewBox="0 0 24 24">
  <g id="Group_13248" data-name="Group 13248" transform="translate(-240 -618)">
    <rect id="Rectangle_2483" data-name="Rectangle 2483" width="24" height="24" transform="translate(240 618)" fill="#fff" opacity="0"/>
    <g id="offer_discount" data-name="offer discount" transform="translate(231.641 620.002)">
      <g id="Group_13240" data-name="Group 13240" transform="translate(10.359 -0.002)">
        <g id="Group_13239" data-name="Group 13239" transform="translate(0 0)">
          <path id="Path_32042" data-name="Path 32042" d="M28.443,10.257a.591.591,0,0,1,0-.518l.739-1.526a1.745,1.745,0,0,0-.742-2.306l-1.485-.8a.586.586,0,0,1-.3-.419l-.291-1.673a1.721,1.721,0,0,0-1.942-1.425l-1.665.238a.577.577,0,0,1-.488-.16L21.059.491a1.707,1.707,0,0,0-2.4,0L17.45,1.672a.577.577,0,0,1-.488.16L15.3,1.595A1.721,1.721,0,0,0,13.356,3.02l-.291,1.673a.586.586,0,0,1-.3.419l-1.485.8a1.745,1.745,0,0,0-.742,2.306l.738,1.526a.591.591,0,0,1,0,.518l-.739,1.526a1.745,1.745,0,0,0,.742,2.306l1.485.8a.586.586,0,0,1,.3.419l.291,1.673a1.723,1.723,0,0,0,1.695,1.443A1.749,1.749,0,0,0,15.3,18.4l1.665-.238a.576.576,0,0,1,.488.16L18.659,19.5a1.707,1.707,0,0,0,2.4,0l1.209-1.181a.577.577,0,0,1,.488-.16l1.665.238a1.721,1.721,0,0,0,1.942-1.425l.291-1.673a.586.586,0,0,1,.3-.419l1.485-.8a1.745,1.745,0,0,0,.742-2.306ZM27.9,13.07l-1.485.8a1.731,1.731,0,0,0-.891,1.239l-.291,1.673a.582.582,0,0,1-.657.482l-1.665-.238a1.7,1.7,0,0,0-1.442.473l-1.209,1.181a.578.578,0,0,1-.812,0l-1.209-1.181a1.7,1.7,0,0,0-1.2-.491,1.736,1.736,0,0,0-.246.018l-1.665.238a.582.582,0,0,1-.657-.482L14.19,15.1a1.731,1.731,0,0,0-.891-1.239l-1.485-.8a.59.59,0,0,1-.251-.78l.739-1.526a1.748,1.748,0,0,0,0-1.531l-.739-1.526a.59.59,0,0,1,.251-.78l1.485-.8a1.731,1.731,0,0,0,.891-1.239l.291-1.673a.582.582,0,0,1,.657-.482l1.665.238A1.7,1.7,0,0,0,18.244,2.5L19.453,1.32a.578.578,0,0,1,.812,0L21.474,2.5a1.7,1.7,0,0,0,1.442.473l1.665-.238a.582.582,0,0,1,.657.482l.291,1.673a1.731,1.731,0,0,0,.891,1.239l1.485.8a.59.59,0,0,1,.251.78l-.739,1.526a1.748,1.748,0,0,0,0,1.531l.739,1.526A.59.59,0,0,1,27.9,13.07Z" transform="translate(-10.359 0.002)" fill="#2d2d2d"/>
        </g>
      </g>
      <g id="Group_13242" data-name="Group 13242" transform="translate(15.422 5.562)">
        <g id="Group_13241" data-name="Group 13241">
          <path id="Path_32043" data-name="Path 32043" d="M152.493,143.962a.584.584,0,0,0-.826,0l-7.705,7.705a.584.584,0,1,0,.826.826l7.705-7.705A.584.584,0,0,0,152.493,143.962Z" transform="translate(-143.791 -143.791)" fill="#2d2d2d"/>
        </g>
      </g>
      <g id="Group_13244" data-name="Group 13244" transform="translate(15.449 4.792)">
        <g id="Group_13243" data-name="Group 13243">
          <path id="Path_32044" data-name="Path 32044" d="M144.943,123.116a2.141,2.141,0,1,0,2.141,2.141A2.143,2.143,0,0,0,144.943,123.116Zm0,3.113a.973.973,0,1,1,.973-.973A.974.974,0,0,1,144.943,126.229Z" transform="translate(-142.802 -123.116)" fill="#2d2d2d"/>
        </g>
      </g>
      <g id="Group_13246" data-name="Group 13246" transform="translate(19.988 10.924)">
        <g id="Group_13245" data-name="Group 13245">
          <path id="Path_32045" data-name="Path 32045" d="M263.063,280.61a2.141,2.141,0,1,0,2.14,2.141A2.143,2.143,0,0,0,263.063,280.61Zm0,3.113a.973.973,0,1,1,.973-.973A.974.974,0,0,1,263.063,283.723Z" transform="translate(-260.922 -280.61)" fill="#2d2d2d"/>
        </g>
      </g>
    </g>
  </g>
</svg>
