<svg xmlns="http://www.w3.org/2000/svg" xmlns:xlink="http://www.w3.org/1999/xlink" width="20.189" height="27.866" viewBox="0 0 20.189 27.866">
    <defs>
        <linearGradient id="linear-gradient" x1="0.682" y1="0.138" x2="0.108" y2="0.887" gradientUnits="objectBoundingBox">
            <stop offset="0" stop-color="#689dde"/>
            <stop offset="1" stop-color="#5745de"/>
        </linearGradient>
        <clipPath id="clip-path">
            <rect id="Rectangle_2398" data-name="Rectangle 2398" width="20.189" height="27.866" fill="url(#linear-gradient)"/>
        </clipPath>
    </defs>
    <g id="Group_11198" data-name="Group 11198" clip-path="url(#clip-path)">
        <path id="Path_31875" data-name="Path 31875" d="M18.139,14.325c-.782-.927-1.737-1.707-2.611-2.557-.675-.657-1.352-1.312-2.015-1.982a3.24,3.24,0,0,1-.355-.533c.1-.083.165-.135.228-.193a1.356,1.356,0,0,0-.156-2.11c-.128-.086-.323-.155-.36-.273s.062-.307.1-.464c.01-.037.024-.072.036-.108a35.326,35.326,0,0,1,2-4.7A.873.873,0,0,0,14.885.3.833.833,0,0,0,13.8.2c-.69.454-1.346.959-2.015,1.445-.089.065-.167.145-.259.226-.152-.21-.281-.4-.421-.579A3.594,3.594,0,0,0,9.563.068a.861.861,0,0,0-1.192.943c.053.435.094.871.136,1.308a2.048,2.048,0,0,1-.013.271l-.306-.181A7.767,7.767,0,0,0,5.134,1.263a.738.738,0,0,0-.83.352A.736.736,0,0,0,4.49,2.5,18.094,18.094,0,0,1,6.678,5.39c.257.441.465.91.7,1.381-.136.083-.2.12-.265.161A1.318,1.318,0,0,0,6.806,8.9c.256.281.182.445.011.688a11.475,11.475,0,0,1-1.956,2A21.458,21.458,0,0,0,1.877,14.5,8.079,8.079,0,0,0,.288,21.814a7.452,7.452,0,0,0,4.264,4.873,12.029,12.029,0,0,0,4.857,1.163,12.611,12.611,0,0,0,6.483-1.3,7.346,7.346,0,0,0,3.879-4.34,7.95,7.95,0,0,0-1.631-7.89M16.1,23.747a.472.472,0,0,1-.73.026.486.486,0,0,1,.065-.731,5.089,5.089,0,0,0,1.558-2.853.473.473,0,0,1,.549-.417.488.488,0,0,1,.412.544,4.769,4.769,0,0,1-.667,1.91A14.839,14.839,0,0,1,16.1,23.747m-2.723-3.415c.13.693.241,1.389.364,2.083a1.028,1.028,0,0,1-1.5,1.113c-.635-.326-1.271-.653-1.9-1a.473.473,0,0,0-.523,0c-.592.326-1.2.626-1.793.948a1.04,1.04,0,0,1-1.184-.021,1.016,1.016,0,0,1-.4-1.11c.131-.673.231-1.352.354-2.026a.464.464,0,0,0-.152-.477c-.509-.474-1-.97-1.5-1.451a1.041,1.041,0,0,1,.622-1.833c.7-.091,1.4-.19,2.092-.307a.5.5,0,0,0,.312-.232c.339-.65.656-1.311.982-1.968a1.031,1.031,0,0,1,1.868.006c.322.648.649,1.293.958,1.948a.419.419,0,0,0,.365.261c.7.1,1.4.2,2.093.3a1,1,0,0,1,.9.691,1.015,1.015,0,0,1-.293,1.12c-.5.482-.99.978-1.5,1.453a.485.485,0,0,0-.169.5M7.573,7.822a.411.411,0,0,1,.521-.061,5.5,5.5,0,0,0,2.254.436,4.572,4.572,0,0,0,1.826-.406c.316-.142.537-.1.634.125s-.011.418-.331.564a5.55,5.55,0,0,1-2.415.478,6.15,6.15,0,0,1-2.274-.508c-.319-.138-.411-.415-.217-.627" transform="translate(0.001 0)" fill="url(#linear-gradient)"/>
    </g>
</svg>
