<svg xmlns="http://www.w3.org/2000/svg" xmlns:xlink="http://www.w3.org/1999/xlink" width="24" height="24" viewBox="0 0 24 24">
  <defs>
    <linearGradient id="linear-gradient" y1="0.5" x2="1" y2="0.5" gradientUnits="objectBoundingBox">
      <stop offset="0" stop-color="#bd3a8e"/>
      <stop offset="1" stop-color="#5d6cef"/>
    </linearGradient>
    <linearGradient id="linear-gradient-2" x1="0.358" y1="0.885" x2="0.604" y2="0.185" gradientUnits="objectBoundingBox">
      <stop offset="0" stop-color="#e8b63d"/>
      <stop offset="1" stop-color="#efd23d"/>
    </linearGradient>
    <linearGradient id="linear-gradient-3" x1="0.537" y1="0.915" x2="0.432" y2="0.135" gradientUnits="objectBoundingBox">
      <stop offset="0" stop-color="#d0523f"/>
      <stop offset="1" stop-color="#de8e3e"/>
    </linearGradient>
    <linearGradient id="linear-gradient-4" x1="1.462" y1="2.884" x2="0.405" y2="0.055" xlink:href="#linear-gradient"/>
    <linearGradient id="linear-gradient-5" x1="1.067" y1="1.306" x2="-0.593" y2="-0.494" xlink:href="#linear-gradient"/>
    <linearGradient id="linear-gradient-6" x1="0.555" y1="0.477" x2="-0.654" y2="-1.716" xlink:href="#linear-gradient"/>
    <linearGradient id="linear-gradient-7" x1="0.983" y1="0.519" x2="0.095" y2="0.496" xlink:href="#linear-gradient"/>
    <linearGradient id="linear-gradient-8" x1="1.573" y1="0.518" x2="-3.921" y2="0.424" xlink:href="#linear-gradient"/>
    <linearGradient id="linear-gradient-9" x1="4.22" y1="0.563" x2="-1.293" y2="0.469" xlink:href="#linear-gradient"/>
    <linearGradient id="linear-gradient-10" x1="2.328" y1="0.619" x2="-1.863" y2="0.34" xlink:href="#linear-gradient"/>
  </defs>
  <g id="Group_14492" data-name="Group 14492" transform="translate(-163 -331)">
    <rect id="Rectangle_2745" data-name="Rectangle 2745" width="24" height="24" transform="translate(163 331)" fill="#fff"/>
    <g id="Layer_2" data-name="Layer 2" transform="translate(164.986 333.001)">
      <g id="Layer_1" data-name="Layer 1" transform="translate(0.014 -0.001)">
        <path id="Path_32371" data-name="Path 32371" d="M137.667,284.3a4.45,4.45,0,0,1-.679,2.46,3.427,3.427,0,0,1-1.672,1.314,4.733,4.733,0,0,1-1.576.312,2.921,2.921,0,0,1-1-.161,8.409,8.409,0,0,1-2.347-1.32c-.728-.536-1.454-1.091-2.189-1.628a5.181,5.181,0,0,0-1.262-.692,1.935,1.935,0,0,0-1.158-.109,1.752,1.752,0,0,0-.881.56,3.565,3.565,0,0,0-.52.769.713.713,0,0,1-1.23.065.689.689,0,0,1-.087-.571c.085-.3.154-.615.262-.91a2.232,2.232,0,0,1,1.131-1.21,4.766,4.766,0,0,1,1.452-.439,4.24,4.24,0,0,1,1.2-.04,6.127,6.127,0,0,1,1.311.323,21.771,21.771,0,0,1,2.54,1.184,19.594,19.594,0,0,0,1.921.89,6.581,6.581,0,0,0,1.49.392,1.489,1.489,0,0,0,1.355-.549,3.917,3.917,0,0,0,.76-1.355.583.583,0,0,1,.6-.414.568.568,0,0,1,.512.466,1.088,1.088,0,0,1,.027.139C137.64,283.973,137.656,284.169,137.667,284.3Z" transform="translate(-116.667 -268.387)" fill="url(#linear-gradient)"/>
        <path id="Path_32372" data-name="Path 32372" d="M18.569,10.152V9.825a8.194,8.194,0,0,0-.1-1.575,8.313,8.313,0,0,0-.617-2.021,8.716,8.716,0,0,0-1.486-2.263,9.045,9.045,0,0,0-2.511-1.952,8.509,8.509,0,0,0-1.969-.751A8.278,8.278,0,0,0,10.3,1.034a8.837,8.837,0,0,0-1.9.1A9.01,9.01,0,0,0,3.84,3.314,8.3,8.3,0,0,0,1.728,6.248,8.916,8.916,0,0,0,1.2,7.956,8.63,8.63,0,0,0,1,9.842,8.02,8.02,0,0,0,1.2,11.5a8.677,8.677,0,0,0,1.6,3.419,8.348,8.348,0,0,0,2.442,2.152c.472.276.972.5,1.461.753a.335.335,0,0,0,.064.019l-.005.024c-.068-.015-.137-.025-.206-.045A8.827,8.827,0,0,1,4.31,16.81,9.25,9.25,0,0,1,.733,12.6,8.911,8.911,0,0,1,.2,10.9,8.66,8.66,0,0,1,.026,8.65,9.094,9.094,0,0,1,.644,5.808,8.984,8.984,0,0,1,2.413,3,9.366,9.366,0,0,1,9.331,0a9.5,9.5,0,0,1,1.664.159,9.615,9.615,0,0,1,2.646.884,9.09,9.09,0,0,1,2.125,1.487A9.256,9.256,0,0,1,18.424,7.1a8.379,8.379,0,0,1,.223,2.392c-.01.2-.03.4-.046.6a.351.351,0,0,1-.013.064Z" transform="translate(-0.014 0.001)" fill="#e11a13"/>
        <path id="Path_32373" data-name="Path 32373" d="M31.419,88.624a6.462,6.462,0,0,1,1.595-4.253c.092-.108.186-.214.283-.316a.307.307,0,0,1,.378-.071L35.992,85l.6.265c.012.006.026.009.037.015.279.142.316.367.073.564-.271.216-.558.41-.839.615-.486.352-.974.7-1.458,1.053q-1.208.884-2.413,1.777a.369.369,0,0,1-.421.068.278.278,0,0,1-.151-.247C31.415,88.948,31.419,88.786,31.419,88.624Z" transform="translate(-29.808 -79.703)" fill="url(#linear-gradient-2)"/>
        <path id="Path_32374" data-name="Path 32374" d="M45.653,210.925c-.094-.04-.193-.074-.282-.122a6.412,6.412,0,0,1-2.284-2.054,6.654,6.654,0,0,1-.8-1.647c-.018-.054-.034-.109-.051-.164a.312.312,0,0,1,.15-.43c.347-.251.7-.5,1.041-.75.458-.336.912-.677,1.371-1.013a.579.579,0,0,1,.223-.109c.189-.034.315.076.342.294.037.3.063.61.1.915.051.489.106.978.157,1.467.047.442.091.884.138,1.327q.076.729.154,1.457c.016.151.036.3.051.452A.322.322,0,0,1,45.653,210.925Z" transform="translate(-40.048 -194.292)" fill="url(#linear-gradient-3)"/>
        <path id="Path_32375" data-name="Path 32375" d="M121.2,31.68a7.533,7.533,0,0,1,1.594.2.311.311,0,0,1,.286.325c.079.72.16,1.437.24,2.159.035.318.065.637.093.956a.469.469,0,0,1-.014.179.278.278,0,0,1-.41.158c-.417-.18-.831-.365-1.246-.549q-1.359-.6-2.716-1.208c-.439-.2-.878-.388-1.315-.588a.3.3,0,0,1-.047-.553A6.412,6.412,0,0,1,119,32.089a5.836,5.836,0,0,1,1.267-.328C120.566,31.717,120.883,31.706,121.2,31.68Z" transform="translate(-111.454 -30.057)" fill="url(#linear-gradient-4)"/>
        <path id="Path_32376" data-name="Path 32376" d="M265.724,65.43c-.023-.277.062-.419.252-.43a.54.54,0,0,1,.267.07,6.422,6.422,0,0,1,3.214,3.943.307.307,0,0,1-.148.407c-.364.266-.732.527-1.1.793q-.676.5-1.348,1a.322.322,0,0,1-.558-.219c-.034-.209-.048-.421-.07-.632-.057-.557-.113-1.112-.172-1.669-.068-.643-.138-1.286-.2-1.929C265.812,66.306,265.767,65.85,265.724,65.43Z" transform="translate(-252.052 -61.716)" fill="url(#linear-gradient-5)"/>
        <path id="Path_32377" data-name="Path 32377" d="M246.881,203.782a6.21,6.21,0,0,1-.545,2.538,6.472,6.472,0,0,1-1.149,1.723c-.215.233-.28.242-.572.111-.051-.024-.106-.045-.158-.068L242.014,207a.808.808,0,0,1-.183-.1.252.252,0,0,1-.027-.4,3.517,3.517,0,0,1,.387-.307c.624-.452,1.252-.9,1.875-1.354.756-.551,1.508-1.107,2.263-1.659a.718.718,0,0,1,.175-.1.289.289,0,0,1,.376.27.294.294,0,0,1,0,.03Z" transform="translate(-229.276 -192.794)" fill="url(#linear-gradient-6)"/>
        <path id="Path_32378" data-name="Path 32378" d="M115.191,152.813h-1.4c-.067,0-.134-.014-.2-.012-.238.008-.3-.159-.356-.341l-.236-.789c-.092-.307-.182-.615-.276-.922-.077-.256-.159-.512-.237-.766s-.154-.492-.222-.74a.128.128,0,0,0-.145-.108,4.5,4.5,0,0,1-.526,0,.4.4,0,0,1-.253-.118.28.28,0,0,1,.211-.459,8.159,8.159,0,0,1,.86,0,.4.4,0,0,1,.351.317c.058.2.115.41.177.615a.168.168,0,0,0,.185.12c.948,0,1.9,0,2.843,0,.5,0,1.005.007,1.508,0a.381.381,0,0,1,.373.478c-.079.286-.166.571-.249.857-.075.254-.148.507-.225.76-.1.313-.193.626-.294.938a.2.2,0,0,1-.2.15c-.114.009-.228.026-.342.027Zm-.007-2.191h1.79c.093,0,.144-.028.154-.127a.924.924,0,0,1,.055-.193c.037-.108.035-.113-.08-.113h-1.467c-.795,0-1.589-.009-2.385-.012-.051,0-.085.02-.067.081s.046.147.061.222c.024.118.093.145.208.143C114.032,150.617,114.608,150.622,115.184,150.622Z" transform="translate(-105.551 -141.027)" fill="url(#linear-gradient-7)"/>
        <path id="Path_32379" data-name="Path 32379" d="M204,235.289a.523.523,0,0,1,.533-.532.506.506,0,0,1,.531.526.512.512,0,0,1-.526.531A.532.532,0,0,1,204,235.289Z" transform="translate(-193.512 -222.851)" fill="url(#linear-gradient-8)"/>
        <path id="Path_32380" data-name="Path 32380" d="M150.358,235.26a.538.538,0,0,1-.534.53.528.528,0,0,1-.527-.542.53.53,0,0,1,1.061.011Z" transform="translate(-141.621 -222.825)" fill="url(#linear-gradient-9)"/>
        <path id="Path_32381" data-name="Path 32381" d="M174.069,235.3h.525a.159.159,0,0,1,.178.15c.009.124-.03.177-.147.2a.274.274,0,0,1-.051,0h-.988c-.149,0-.212-.066-.208-.188a.167.167,0,0,1,.166-.165C173.719,235.3,173.894,235.3,174.069,235.3Z" transform="translate(-164.463 -223.366)" fill="url(#linear-gradient-10)"/>
      </g>
    </g>
  </g>
</svg>
