<svg xmlns="http://www.w3.org/2000/svg" width="24" height="24" viewBox="0 0 24 24">
  <g id="Group_13247" data-name="Group 13247" transform="translate(-292 -619)">
    <rect id="Rectangle_2482" data-name="Rectangle 2482" width="24" height="24" transform="translate(292 619)" fill="#fff" opacity="0"/>
    <g id="Group_11358" data-name="Group 11358" transform="translate(-55.756 603.385)">
      <path id="Path_31947" data-name="Path 31947" d="M16.506,7.561A2.764,2.764,0,0,1,13.763,10c-1.494.02-2.328-.927-2.768-2.372A3.123,3.123,0,0,1,9.454,9.718a2.546,2.546,0,0,1-2.5-.056,2.972,2.972,0,0,1-1.48-2.15c-.028.11-.058.219-.085.33a2.832,2.832,0,0,1-2.42,2.165,2.852,2.852,0,0,1-2.8-1.784A2.648,2.648,0,0,1,.051,7.37C.023,6.181.012,4.992,0,3.8A.326.326,0,0,1,.077,3.6C1.112,2.514,2.154,1.44,3.189.358A1.1,1.1,0,0,1,4.051,0c4.777.013,9.553.01,14.33.017a.407.407,0,0,1,.265.119q1.627,1.7,3.24,3.411a.478.478,0,0,1,.114.3q-.01,1.99-.042,3.98a.792.792,0,0,1-.074.308,3.1,3.1,0,0,1-1.643,1.689,2.7,2.7,0,0,1-3.509-1.6c-.086-.2-.143-.42-.226-.668" transform="translate(348.756 17.614)" fill="none" stroke="#2d2d2d" stroke-linecap="round" stroke-linejoin="round" stroke-width="1.25"/>
      <g id="Path_31948" data-name="Path 31948" transform="translate(301.158 -186.122)" fill="none" stroke-linecap="round" stroke-linejoin="round">
        <path d="M67.424,222.33s.011.933.011,1.407H49.759c0-.468,0-1.408,0-1.408v-8.442a2.876,2.876,0,0,0,1.85-.179,3.7,3.7,0,0,0,1.5-1.184c1.826,1.947,3.651,1.913,5.5.018a3.3,3.3,0,0,0,5.435-.027,3.424,3.424,0,0,0,3.376,1.389Zm-6.107-5.66H55.879v5.652h5.438Z" stroke="none"/>
        <path d="M 67.43508911132812 223.7374572753906 C 67.43508911132812 223.2628631591797 67.42375946044922 222.3302917480469 67.42375946044922 222.3302917480469 L 67.42375946044922 213.9042053222656 C 66.04203796386719 214.1441192626953 64.95460510253906 213.6001281738281 64.04735565185547 212.5149993896484 C 63.31626129150391 213.4046173095703 62.44483184814453 213.9556121826172 61.33058166503906 213.9586791992188 C 61.32749938964844 213.9586944580078 61.32442474365234 213.9586944580078 61.32134628295898 213.9586944580078 C 60.20383453369141 213.9586944580078 59.33046722412109 213.401123046875 58.61279296875 212.5421905517578 C 56.76115036010742 214.4380187988281 54.93585968017578 214.4712982177734 53.11032104492188 212.5245208740234 C 52.69681167602539 213.0573577880859 52.20698165893555 213.4593811035156 51.61253356933594 213.7088165283203 C 51.02053070068359 213.9572601318359 50.41304016113281 214.0468902587891 49.76299285888672 213.8877716064453 L 49.76299285888672 222.3294372558594 C 49.76299285888672 222.3294372558594 49.75899124145508 223.269775390625 49.75899124145508 223.7374572753906 L 67.43508911132812 223.7374572753906 M 55.87858200073242 216.6700744628906 L 61.31672286987305 216.6700744628906 L 61.31672286987305 222.3222351074219 L 55.87858200073242 222.3222351074219 L 55.87858200073242 216.6700744628906 M 67.43508911132812 224.9874572753906 L 49.75899124145508 224.9874572753906 C 49.06863021850586 224.9874572753906 48.50899124145508 224.4278259277344 48.50899124145508 223.7374572753906 C 48.50899124145508 223.2817230224609 48.51277160644531 222.37890625 48.51299285888672 222.3265075683594 L 48.51299285888672 213.8877716064453 C 48.51299285888672 213.5039367675781 48.6893310546875 213.1413879394531 48.99128341674805 212.9044342041016 C 49.29323196411133 212.6674652099609 49.68731689453125 212.5823516845703 50.06013107299805 212.6735992431641 C 50.18037033081055 212.7030334472656 50.29608154296875 212.7173309326172 50.41388320922852 212.7173309326172 C 50.63657379150391 212.7173309326172 50.87045288085938 212.6646270751953 51.12887191772461 212.5561828613281 C 51.50268173217773 212.3993225097656 51.82780075073242 212.1382904052734 52.122802734375 211.7581634521484 C 52.34706115722656 211.4691772460938 52.68664169311523 211.2929382324219 53.05202102661133 211.27587890625 C 53.41753768920898 211.2587890625 53.77193450927734 211.4026641845703 54.02214050292969 211.6694793701172 C 54.67849349975586 212.3694152832031 55.29219055175781 212.7243194580078 55.84618377685547 212.7243194580078 C 56.40450286865234 212.7243194580078 57.03446197509766 212.3691864013672 57.71856307983398 211.6687774658203 C 57.96553802490234 211.4158935546875 58.30801010131836 211.2792510986328 58.66126251220703 211.2931365966797 C 59.01448059082031 211.3068389892578 59.34538269042969 211.4694519042969 59.572021484375 211.7407073974609 C 60.29697036743164 212.6083526611328 60.9175910949707 212.7086944580078 61.32135391235352 212.7086944580078 L 61.32652282714844 212.7086944580078 C 61.7672233581543 212.7074737548828 62.36436080932617 212.5941467285156 63.08162307739258 211.7213592529297 C 63.3178825378418 211.4338684082031 63.66995239257812 211.2665863037109 64.04206085205078 211.2650146484375 C 64.4139404296875 211.2622680664062 64.76765441894531 211.427734375 65.00633239746094 211.7132263183594 C 65.75344848632812 212.6068267822266 66.38494110107422 212.7101745605469 66.79494476318359 212.7101745605469 C 66.92681121826172 212.7101745605469 67.06644439697266 212.6975402832031 67.20994567871094 212.6726226806641 C 67.57338714599609 212.6094970703125 67.94620513916016 212.7101745605469 68.22850036621094 212.9477081298828 C 68.51080322265625 213.1852111816406 68.67375946044922 213.5352783203125 68.67375946044922 213.9042053222656 L 68.67375946044922 222.3226165771484 C 68.67491149902344 222.4185943603516 68.68508911132812 223.2779998779297 68.68508911132812 223.7374572753906 C 68.68508911132812 224.4278259277344 68.12545013427734 224.9874572753906 67.43508911132812 224.9874572753906 Z M 57.12858200073242 221.0722351074219 L 60.06672286987305 221.0722351074219 L 60.06672286987305 217.9200744628906 L 57.12858200073242 217.9200744628906 L 57.12858200073242 221.0722351074219 Z" stroke="none" fill="#2d2d2d"/>
      </g>
    </g>
  </g>
</svg>
