<svg xmlns="http://www.w3.org/2000/svg" width="21.651" height="21.51" viewBox="0 0 21.651 21.51">
    <path id="Star" d="M10.75.49l2.438,5.177a.845.845,0,0,0,.631.486l5.457.832a.832.832,0,0,1,.556.34.89.89,0,0,1-.089,1.147l-3.955,4.038a.876.876,0,0,0-.238.779l.947,5.7a.844.844,0,0,1-1.229.9l-4.86-2.69a.779.779,0,0,0-.781,0l-4.9,2.7A.832.832,0,0,1,3.6,19.535a.928.928,0,0,1-.085-.556l.947-5.7a.907.907,0,0,0-.238-.778L.244,8.468a.908.908,0,0,1,0-1.236l0,0A.938.938,0,0,1,.72,6.981l5.458-.832a.86.86,0,0,0,.631-.487L9.245.49A.843.843,0,0,1,9.727.045a.8.8,0,0,1,.642.049A.887.887,0,0,1,10.75.49Z" transform="translate(0.837 0.756)" fill="none" stroke="#2d2d2d" stroke-linecap="round" stroke-linejoin="round" stroke-miterlimit="10" stroke-width="1.5"/>
</svg>
