<svg xmlns="http://www.w3.org/2000/svg" xmlns:xlink="http://www.w3.org/1999/xlink" width="32" height="32" viewBox="0 0 32 32">
  <defs>
    <clipPath id="clip-path"/>
  </defs>
  <g id="Mask_Group_25" data-name="Mask Group 25" transform="translate(-51 -137)" clip-path="url(#clip-path)">
    <g id="Super_market" data-name="Super market" transform="translate(51 137)">
      <g id="Group_14066" data-name="Group 14066">
        <path id="Path_32259" data-name="Path 32259" d="M10.781,27.313a2.344,2.344,0,1,0,2.344,2.344A2.346,2.346,0,0,0,10.781,27.313Zm0,3.75a1.406,1.406,0,1,1,1.406-1.406A1.408,1.408,0,0,1,10.781,31.063Z" fill="#fff"/>
        <circle id="Ellipse_587" data-name="Ellipse 587" cx="0.469" cy="0.469" r="0.469" transform="translate(10.313 29.188)" fill="#fff"/>
        <circle id="Ellipse_588" data-name="Ellipse 588" cx="0.469" cy="0.469" r="0.469" transform="translate(26.375 29.188)" fill="#fff"/>
        <path id="Path_32260" data-name="Path 32260" d="M26.844,27.313a2.344,2.344,0,1,0,2.344,2.344A2.346,2.346,0,0,0,26.844,27.313Zm0,3.75a1.406,1.406,0,1,1,1.406-1.406A1.408,1.408,0,0,1,26.844,31.063Z" fill="#fff"/>
        <path id="Path_32261" data-name="Path 32261" d="M7.74,22.685l3.412-1.935h7.66a2.348,2.348,0,0,0,2.3-1.875h4.882a3.279,3.279,0,0,0,3.179-2.468L31.985,5.4a.469.469,0,0,0-.454-.585H8.516l-.239-.935A5.152,5.152,0,0,0,3.281,0H1.406a1.406,1.406,0,0,0,0,2.813H3.281A2.341,2.341,0,0,1,5.552,4.574l3.6,14.077-2.8,1.587a3.281,3.281,0,0,0,1.615,6.137h20.75a1.406,1.406,0,0,0,0-2.812H7.969a.469.469,0,0,1-.228-.878Zm17.375-9.122H22.235l.176-3.437h3.232Zm1.476-3.437h3.218l-.879,3.438H26.064ZM24.971,14.5l-.527,3.437H22.011l.176-3.437ZM21.3,13.563H18.41l-.176-3.437h3.237Zm1.162-4.375.176-3.437h3.68l-.527,3.438Zm-.939,0H18.187L18.011,5.75H21.7Zm-4.272,0H15.392a.469.469,0,0,0,0,.938h1.9l.176,3.438h-2.88l-1.2-7.813h3.68Zm-3.605,4.375H10.754l-.879-3.437h3.24Zm.144.938.528,3.437H11.873L10.994,14.5Zm1.476,3.437L14.735,14.5H17.52l.176,3.438Zm3.372,0L18.458,14.5h2.789l-.176,3.438Zm9.627-1.763a2.343,2.343,0,0,1-2.271,1.763h-.6L25.92,14.5h2.77Zm1.787-6.987H26.735l.527-3.437h3.665ZM12.444,5.75l.528,3.438H9.635L8.756,5.75ZM3.281,1.875H1.406a.469.469,0,0,1,0-.937H3.281a4.214,4.214,0,0,1,2.634.922l-.668.668a3.277,3.277,0,0,0-1.965-.653ZM7.969,24.5h20.75a.469.469,0,0,1,0,.938H7.969a2.344,2.344,0,0,1-1.153-4.384l3.111-1.764a.469.469,0,0,0,.223-.524L6.461,4.342A3.269,3.269,0,0,0,5.91,3.191l.668-.668A4.2,4.2,0,0,1,7.369,4.11l3.686,14.413a.469.469,0,0,0,.454.353h8.629a1.409,1.409,0,0,1-1.326.938H11.029a.468.468,0,0,0-.231.061l-3.519,2a1.406,1.406,0,0,0,.69,2.631Z" fill="#fff"/>
      </g>
    </g>
  </g>
</svg>
