<svg xmlns="http://www.w3.org/2000/svg" width="24" height="24" viewBox="0 0 24 24">
    <g id="Group_11208" data-name="Group 11208" transform="translate(-28 -454.105)">
        <ellipse id="Ellipse_496" data-name="Ellipse 496" cx="7.542" cy="7.54" rx="7.542" ry="7.54" transform="translate(32.458 458.469)" fill="#c4defe"/>
        <g id="Group_11207" data-name="Group 11207" transform="translate(31.93 460.797)">
            <g id="Group_11209" data-name="Group 11209" transform="translate(0 0)">
                <path id="Path_31883" data-name="Path 31883" d="M5.536,9c.455.452.92.9,1.354,1.37.32.349.544.311.871-.019,2.2-2.233,4.429-4.447,6.649-6.664.147-.147.313-.276.487-.427l1.242,1.13c0-1.474.01-2.766-.017-4.057,0-.113-.241-.315-.372-.317C14.477-.007,13.2,0,11.756,0L12.9,1.27,7.209,6.912,3.841,3.259,0,7.415a9.7,9.7,0,0,0,1.027,2.614l2.76-2.751C4.366,7.848,4.953,8.423,5.536,9" transform="translate(0 -0.001)" fill="#689dde"/>
            </g>
        </g>
        <path id="Path_31884" data-name="Path 31884" d="M0,11.691A11.7,11.7,0,0,1,3.49,3.666,11.81,11.81,0,0,1,9.707.244a11.163,11.163,0,0,1,7.8,1.178,11.986,11.986,0,0,1,6.182,8.05,11.1,11.1,0,0,1-1.3,8.36,11.944,11.944,0,0,1-7.447,5.752A11.214,11.214,0,0,1,5.46,21.954,11.988,11.988,0,0,1,0,11.691M11.98,21.812a9.988,9.988,0,0,0,2-.189,9.345,9.345,0,0,0,6.34-4.309,9.819,9.819,0,0,0,1.3-7.3,9.243,9.243,0,0,0-4.883-6.679,9.851,9.851,0,0,0-6.714-.966,9.274,9.274,0,0,0-6.582,4.7A9.925,9.925,0,0,0,2.3,13.6a9.347,9.347,0,0,0,2.492,5.179,9.686,9.686,0,0,0,7.187,3.034" transform="translate(28 454.105)" fill="#689dde"/>
    </g>
</svg>
