<svg xmlns="http://www.w3.org/2000/svg" width="24" height="24" viewBox="0 0 24 24">
    <g id="Group_13280" data-name="Group 13280" transform="translate(-23 -294)">
        <rect id="Rectangle_2495" data-name="Rectangle 2495" width="24" height="24" transform="translate(23 294)" fill="#fff"/>
        <g id="Group_11205" data-name="Group 11205" transform="translate(26 294)">
            <g id="Group_11203" data-name="Group 11203" transform="translate(0 0)">
                <path id="Path_31879" data-name="Path 31879" d="M32.694,23.776q0,3.519,0,7.038c0,1.442-.173,1.6-1.717,1.6-2.447,0-4.894.006-7.341,0-.567,0-1.324.178-1.531-.49a2.2,2.2,0,0,1,.178-2.293c.642-.65.6-1.046-.035-1.642-.533-.5-.4-3.255.14-3.773s.519-.9-.008-1.412c-.638-.624-.606-3.255.032-3.922.461-.482.542-.889.005-1.333a1.684,1.684,0,0,1-.313-2.035c.2-.613.89-.487,1.43-.488q3.835,0,7.67,0c1.248,0,1.483.224,1.488,1.4.009,2.451,0,4.9,0,7.353M27.35,18.987c.766,0,1.531.009,2.3,0,.542-.009.923-.224.914-.808-.008-.542-.382-.72-.873-.723-1.568-.008-3.135,0-4.7,0-.552,0-.963.233-.927.791.034.529.435.76.995.75.765-.015,1.531,0,2.3,0m-.023,3.149v.006c.508,0,1.017,0,1.525,0a.806.806,0,0,0,.914-.715A.727.727,0,0,0,29,20.594c-1.122-.043-2.248-.052-3.37-.01a.739.739,0,0,0-.752.855.769.769,0,0,0,.818.694c.544.012,1.089,0,1.634,0" transform="translate(-17.238 -11.716)" fill="#c4defe"/>
                <path id="Path_31880" data-name="Path 31880" d="M19,12.014c0,3.014.006,6.028,0,9.042-.006,2.056-.878,2.932-2.939,2.936q-5.994.013-11.988,0c-1.954-.006-2.889-.954-2.9-2.889,0-.638,0-1.277,0-1.915-.006-.6.2-1.294-.8-1.379-.282-.024-.377-.4-.361-.7a.666.666,0,0,1,.564-.689c.677-.012.611-.417.6-.847-.01-.567,0-1.135,0-1.7-.008-.616.238-1.347-.812-1.439-.272-.024-.37-.411-.347-.711.028-.352.216-.66.578-.661.584,0,.6-.323.587-.747-.019-.673,0-1.347-.006-2.021C1.16,7.766,1.36,7.15.444,7.1.108,7.081-.02,6.684.013,6.337a.676.676,0,0,1,.7-.672c.827-.023,1.655-.017,2.482-.009a.729.729,0,0,1,.785.593.684.684,0,0,1-.543.9c-.726.057-.648.494-.644.957.006.709-.014,1.419.007,2.127.015.5-.143,1.146.8.98.255-.045.394.269.4.54.009.4-.188.755-.583.77-.671.026-.622.434-.619.871.005.674.014,1.348,0,2.021-.013.51-.055.968.687,1.033a.653.653,0,0,1,.518.722c-.017.4-.2.711-.622.739-.572.037-.587.389-.582.809q.018,1.276,0,2.553c-.008.737.3,1.1,1.1,1.095q6.21-.027,12.42,0c.793,0,1.08-.353,1.079-1.1q-.018-9.255,0-18.51c0-.755-.292-1.1-1.081-1.1q-6.21.02-12.42,0c-.794,0-1.109.358-1.095,1.1C2.8,3.331,2.793,4,2,4c-.844,0-.848-.7-.837-1.327A2.457,2.457,0,0,1,3.763.027q6.317-.053,12.636,0c1.695.014,2.581.983,2.592,2.733.018,3.085.005,6.17.005,9.255" transform="translate(0 0)" fill="#689dde"/>
            </g>
            <path id="Path_31881" data-name="Path 31881" d="M35.118,28.191c-.766,0-1.531-.011-2.3,0-.56.011-.961-.23-.995-.782-.036-.582.375-.824.927-.825,1.568,0,3.135-.006,4.7,0,.491,0,.865.189.872.754.009.609-.372.833-.914.842-.765.013-1.531,0-2.3,0" transform="translate(-25 -20.937)" fill="#689dde"/>
            <path id="Path_31882" data-name="Path 31882" d="M37.981,42.993c-.545,0-1.089.01-1.634,0a.78.78,0,0,1-.818-.724.76.76,0,0,1,.752-.892c1.122-.043,2.248-.035,3.37.01a.746.746,0,0,1,.769.87.815.815,0,0,1-.914.745c-.508,0-1.017,0-1.525,0v-.006" transform="translate(-27.885 -32.562)" fill="#689dde"/>
        </g>
    </g>
</svg>
