<svg xmlns="http://www.w3.org/2000/svg" width="19.744" height="21.5" viewBox="0 0 19.744 21.5">
    <g id="Setting" transform="translate(0.877 0.75)">
        <path id="Path_33946"
            d="M17.738,5.562l-.63-1.124a1.907,1.907,0,0,0-2.64-.733h0a1.881,1.881,0,0,1-1.462.211,1.962,1.962,0,0,1-1.437-1.868h0A2.021,2.021,0,0,0,11.022.6,1.91,1.91,0,0,0,9.633,0H8.364A1.9,1.9,0,0,0,7,.584,2.01,2.01,0,0,0,6.437,1.99h0A1.963,1.963,0,0,1,4.5,3.952a1.815,1.815,0,0,1-.926-.267h0a1.907,1.907,0,0,0-2.64.733L.259,5.562a2.021,2.021,0,0,0,.7,2.714h0A2,2,0,0,1,1.931,10a2,2,0,0,1-.968,1.724h0a2.012,2.012,0,0,0-.7,2.7h0L.9,15.562a1.946,1.946,0,0,0,1.164.95,1.889,1.889,0,0,0,1.476-.178h0A1.872,1.872,0,0,1,5,16.132a1.926,1.926,0,0,1,1.169.925,1.945,1.945,0,0,1,.259.952h0A1.964,1.964,0,0,0,8.364,20H9.633a1.963,1.963,0,0,0,1.936-1.981h0a2.01,2.01,0,0,1,.564-1.41,1.9,1.9,0,0,1,1.372-.58,1.932,1.932,0,0,1,.926.267h0a1.907,1.907,0,0,0,2.64-.724h0l.667-1.143a2.03,2.03,0,0,0,.2-1.508,1.975,1.975,0,0,0-.9-1.207h0a1.975,1.975,0,0,1-.9-1.207A2.03,2.03,0,0,1,16.33,9a1.927,1.927,0,0,1,.7-.724h0a2.022,2.022,0,0,0,.7-2.7h0Z"
            transform="translate(0 0)" fill="none" stroke="#2d2d2d" stroke-linecap="round"
            stroke-linejoin="round" stroke-miterlimit="10" stroke-width="1.5" />
        <ellipse id="Ellipse_737" cx="2.668" cy="2.743" rx="2.668" ry="2.743"
            transform="translate(6.335 7.257)" fill="none" stroke="#2d2d2d" stroke-linecap="round"
            stroke-linejoin="round" stroke-miterlimit="10" stroke-width="1.5" />
    </g>
</svg>
