<svg xmlns="http://www.w3.org/2000/svg" width="24" height="17.391" viewBox="0 0 24 17.391">
    <g id="Group_13274" data-name="Group 13274" transform="translate(0 -3.305)">
        <path id="Path_32064" data-name="Path 32064"
            d="M21.891,3.3H2.109A2.112,2.112,0,0,0,0,5.414v11.3a2.112,2.112,0,0,0,2.109,2.109h8.133l1.2,1.594a.7.7,0,0,0,1.125,0l1.2-1.594h8.133A2.112,2.112,0,0,0,24,16.711V5.414A2.112,2.112,0,0,0,21.891,3.3Zm.7,13.407a.7.7,0,0,1-.7.7H13.406a.7.7,0,0,0-.563.281L12,18.821,11.156,17.7a.7.7,0,0,0-.563-.281H2.109a.7.7,0,0,1-.7-.7V5.414a.7.7,0,0,1,.7-.7H21.891a.7.7,0,0,1,.7.7Z"
            fill="#689dde" />
        <path id="Path_32065" data-name="Path 32065"
            d="M10.974,8.218A.824.824,0,0,0,9.442,8.2L7.429,13.484a.7.7,0,1,0,1.314.5l.327-.859h2.253l.324.857a.7.7,0,0,0,1.316-.5Zm-1.368,3.5.6-1.565.591,1.565Z"
            fill="#689dde" />
        <path id="Path_32066" data-name="Path 32066"
            d="M6.4,9.133a.7.7,0,1,0,0-1.406H4.245a.7.7,0,0,0-.7.7v5.3a.7.7,0,0,0,1.406,0v-2H6.224a.7.7,0,1,0,0-1.406H4.948v-1.2Z"
            fill="#689dde" />
        <path id="Path_32067" data-name="Path 32067"
            d="M19.909,12.872a3.377,3.377,0,1,0-.985,1l.334.334a.7.7,0,1,0,.994-.994Zm-4.815-1.81a1.968,1.968,0,1,1,3.779.773l-.33-.33a.7.7,0,1,0-.994.994l.346.346a1.97,1.97,0,0,1-2.8-1.784Z"
            fill="#689dde" />
    </g>
</svg>
