<svg xmlns="http://www.w3.org/2000/svg" width="12.283" height="9.982" viewBox="0 0 12.283 9.982">
    <path id="twitter-1" d="M12.283,3.43a5.047,5.047,0,0,1-1.447.4,2.524,2.524,0,0,0,1.108-1.394,5.048,5.048,0,0,1-1.6.612,2.522,2.522,0,0,0-4.294,2.3A7.153,7.153,0,0,1,.855,2.709a2.523,2.523,0,0,0,.779,3.364A2.509,2.509,0,0,1,.494,5.758a2.522,2.522,0,0,0,2.021,2.5A2.533,2.533,0,0,1,1.377,8.3a2.523,2.523,0,0,0,2.354,1.75A5.069,5.069,0,0,1,0,11.1,7.138,7.138,0,0,0,3.863,12.23a7.127,7.127,0,0,0,7.162-7.5A5.12,5.12,0,0,0,12.283,3.43Z" transform="translate(0 -2.248)" fill="#5745de"/>
</svg>
