<svg xmlns="http://www.w3.org/2000/svg" width="11.795" height="9.98" viewBox="0 0 11.795 9.98">
    <path id="Path_27771" data-name="Path 27771" d="M1429.157-877.789c-.111.115-.218.228-.328.339s-.207.2-.312.305c-.215.206-.43.413-.649.615a2.492,2.492,0,0,1-.3.238.389.389,0,0,1-.585-.143,3.5,3.5,0,0,1-.192-.49q-.464-1.412-.921-2.826a.091.091,0,0,0-.067-.067l-2.563-.8a.512.512,0,0,1-.263-.164.4.4,0,0,1,.049-.547.787.787,0,0,1,.243-.152c.912-.349,1.827-.692,2.74-1.037l3.124-1.183,2.891-1.094,1.946-.74a.691.691,0,0,1,.353-.05.432.432,0,0,1,.364.448,2.321,2.321,0,0,1-.081.565c-.108.548-.221,1.1-.332,1.643q-.23,1.136-.46,2.272-.241,1.19-.48,2.38c-.141.7-.28,1.4-.428,2.1a1.162,1.162,0,0,1-.136.337.475.475,0,0,1-.538.22,1.446,1.446,0,0,1-.554-.3C1430.845-876.543,1430.008-877.16,1429.157-877.789Zm-1.848.908.01,0,0-.023q.068-.591.136-1.182c.037-.322.072-.643.11-.965a.143.143,0,0,1,.044-.079c.132-.122.268-.241.4-.362l2.4-2.161q1.069-.962,2.138-1.925a.266.266,0,0,0,.068-.107.113.113,0,0,0-.144-.156.582.582,0,0,0-.146.064c-.114.068-.225.141-.338.212l-3.322,2.084q-1.149.721-2.3,1.441a.1.1,0,0,0-.051.135q.43,1.3.855,2.612Z" transform="translate(-1422.895 885.589)" fill="#5745de"/>
</svg>
