<svg id="Group_11217" data-name="Group 11217" xmlns="http://www.w3.org/2000/svg" width="24" height="24" viewBox="0 0 24 24">
  <path id="Path_31906" data-name="Path 31906" d="M10.947,11.137H21.391L18.3,26.066H15.645c-1.2,0-2.4.009-3.6-.006a1.028,1.028,0,0,1-1.094-1.03c-.017-.178-.008-.359-.008-.539q0-6.293,0-12.586v-.768m4.856,5.63c0,.5,0,.936,0,1.373s.2.743.667.74a.626.626,0,0,0,.653-.7c.01-1.118.044-2.238-.012-3.353a2.338,2.338,0,0,0-4.673.16c-.01,1.038,0,2.076,0,3.114,0,.438.143.764.623.779.509.016.692-.325.7-.779.01-.434,0-.868,0-1.333Z" transform="translate(-8.908 -8.242)" fill="#c4defe"/>
  <path id="Path_31907" data-name="Path 31907" d="M68.288,34.437c1.61,0,3.187-.007,4.763,0a.862.862,0,0,1,.88.8,2.425,2.425,0,0,1,.019.467q0,5.54,0,11.079v.589h-9.9c.02-.15.033-.266.052-.382.141-.868.142-.89,1.007-.865a.752.752,0,0,0,.884-.71c.716-3.546,1.457-7.087,2.191-10.63.021-.1.059-.2.1-.348m2.256,8.21.058.134q-1.073,1.053-2.145,2.106c-.45.445-.53.778-.267,1.057s.627.222,1.091-.267c.341-.359.65-.748,1.006-1.16.512.53.9.927,1.281,1.327.273.286.59.416.9.112.337-.327.2-.66-.106-.94-.417-.382-.84-.758-1.29-1.163.508-.494.933-.857,1.29-1.277a.88.88,0,0,0,.216-.713.846.846,0,0,0-.654-.345c-1.038-.036-2.077-.011-3.116-.018-.4,0-.756.06-.763.555s.343.589.743.591c.584,0,1.168,0,1.753,0m-.208-1.754v0a3.1,3.1,0,0,0,.924-.022.869.869,0,0,0,.509-.532.486.486,0,0,0-.511-.579c-.585-.024-1.173-.021-1.758,0a.517.517,0,0,0-.538.57.527.527,0,0,0,.548.564c.275.018.552,0,.827,0" transform="translate(-53.257 -26.284)" fill="#c4defe"/>
  <g id="Group_11218" data-name="Group 11218">
    <path id="Path_31905" data-name="Path 31905" d="M15.08,3.3c2.085,0,4.056.009,6.026,0a2.471,2.471,0,0,1,2.251,1.074,3.833,3.833,0,0,1,.611,1.889c.047,5.547.03,11.1.025,16.643,0,.879-.215,1.1-1.085,1.1q-7.3.009-14.593,0c-.917,0-1.17-.34-.984-1.245.131-.64.264-1.28.413-2-.283-.017-.5-.042-.725-.043-1.41,0-2.82.01-4.23-.007A2.732,2.732,0,0,1,.027,18.136C0,17.9,0,17.667,0,17.432Q0,9.357,0,1.282C0,.171.167,0,1.255,0Q7.812,0,14.368,0c1.105,0,1.321.278,1.1,1.375-.121.594-.239,1.19-.385,1.919M1.547,1.572v.9q0,7.406,0,14.812c0,.212-.011.425.009.634a1.209,1.209,0,0,0,1.287,1.212c1.41.018,2.82.007,4.231.007H10.2l3.634-17.57ZM14.782,4.863c-.061.2-.112.335-.141.472-1,4.8-2,9.608-2.97,14.417a1.019,1.019,0,0,1-1.2.963c-1.172-.034-1.174,0-1.365,1.173-.025.156-.043.314-.071.518H22.46v-.8q0-7.514,0-15.027a3.3,3.3,0,0,0-.026-.633,1.169,1.169,0,0,0-1.193-1.08c-2.137-.014-4.275-.005-6.458-.005" transform="translate(-0.001 -0.001)" fill="#689dde"/>
    <path id="Path_31908" data-name="Path 31908" d="M27.322,28.287h-2.4c0,.548.01,1.058,0,1.569-.013.535-.228.936-.828.917-.565-.018-.737-.4-.733-.917.008-1.222-.007-2.444.005-3.666a2.752,2.752,0,0,1,5.5-.189c.066,1.313.026,2.631.014,3.947a.737.737,0,0,1-.769.827c-.555,0-.785-.344-.785-.871s0-1.03,0-1.617m-.036-1.625c.1-.717,0-1.339-.634-1.56a1.767,1.767,0,0,0-1.291.138c-.527.292-.505.875-.373,1.423Z" transform="translate(-20.059 -20.088)" fill="#689dde"/>
    <path id="Path_31909" data-name="Path 31909" d="M105.8,103.871c-.793,0-1.585,0-2.378,0-.542,0-1.017-.14-1.007-.8s.491-.756,1.035-.753c1.409.009,2.82-.025,4.227.025a1.147,1.147,0,0,1,.887.468,1.194,1.194,0,0,1-.293.967c-.485.57-1.06,1.062-1.75,1.732.61.55,1.184,1.06,1.749,1.578.416.38.6.832.144,1.275-.426.413-.855.236-1.226-.151-.519-.543-1.043-1.081-1.738-1.8-.482.559-.9,1.087-1.364,1.574-.63.664-1.1.761-1.48.362-.357-.379-.249-.831.362-1.435.966-.956,1.94-1.905,2.91-2.857l-.078-.182" transform="translate(-87.958 -87.875)" fill="#689dde"/>
    <path id="Path_31910" data-name="Path 31910" d="M113.117,86.986c-.374,0-.75.019-1.122,0a.715.715,0,0,1-.743-.765.7.7,0,0,1,.73-.774c.794-.026,1.591-.03,2.385,0a.66.66,0,0,1,.693.786,1.179,1.179,0,0,1-.691.721,4.21,4.21,0,0,1-1.253.03v0" transform="translate(-95.559 -73.367)" fill="#689dde"/>
  </g>
  <path id="Path_31911" data-name="Path 31911" d="M36.731,36.679h-2.3c-.132-.548-.154-1.13.373-1.423a1.767,1.767,0,0,1,1.291-.138c.634.221.734.844.634,1.56" transform="translate(-29.507 -30.105)" fill="#c4defe"/>
</svg>
