<svg xmlns="http://www.w3.org/2000/svg" xmlns:xlink="http://www.w3.org/1999/xlink" width="18" height="18" viewBox="0 0 18 18">
  <defs>
    <clipPath id="clip-path">
      <rect id="Rectangle_2699" data-name="Rectangle 2699" width="18" height="18" transform="translate(171 472)" fill="#fff"/>
    </clipPath>
  </defs>
  <g id="Mask_Group_24" data-name="Mask Group 24" transform="translate(-171 -472)" clip-path="url(#clip-path)">
    <g id="self_service" data-name="self service" transform="translate(171 472)">
      <g id="Group_14062" data-name="Group 14062">
        <path id="Path_32255" data-name="Path 32255" d="M17.639,11.324l-2.662-.887L16.84,5.224a.527.527,0,0,0-.5-.7H14.3L9.938.155A.527.527,0,0,0,9.193.9l3.618,3.618H4.061L7.679.9A.527.527,0,0,0,6.933.155L2.569,4.519H.529a.53.53,0,0,0-.5.7l2.824,7.907a.527.527,0,0,0,.5.35H8.7a1.711,1.711,0,0,0,.488.975l2.1,2.1v.911a.527.527,0,0,0,.527.527h5.648A.527.527,0,0,0,18,17.472V11.824a.527.527,0,0,0-.361-.5Zm-8.458.7a1.721,1.721,0,0,0-.292.4H3.724L1.277,5.574H15.595l-.987,2.762a1.657,1.657,0,0,0-3.311.1v3.318A1.736,1.736,0,0,0,9.181,12.028Zm7.764,4.917H12.352v-.6a.527.527,0,0,0-.154-.373L9.938,13.71a.671.671,0,0,1,.949-.948l.565.565a.527.527,0,0,0,.9-.373V8.435a.6.6,0,0,1,1.2,0v2.259a.527.527,0,0,0,.361.5L16.945,12.2v4.741Z" fill="#b8b7b7"/>
        <path id="Path_32256" data-name="Path 32256" d="M7.306,7.343a.527.527,0,0,0-.527.527V10.13a.527.527,0,1,0,1.055,0V7.87a.527.527,0,0,0-.527-.527Z" fill="#b8b7b7"/>
        <path id="Path_32257" data-name="Path 32257" d="M5.047,7.343a.527.527,0,0,0-.527.527V10.13a.527.527,0,1,0,1.055,0V7.87a.527.527,0,0,0-.527-.527Z" fill="#b8b7b7"/>
        <path id="Path_32258" data-name="Path 32258" d="M9.565,7.343a.527.527,0,0,0-.527.527V10.13a.527.527,0,1,0,1.055,0V7.87a.527.527,0,0,0-.527-.527Z" fill="#b8b7b7"/>
      </g>
    </g>
  </g>
</svg>
