<svg xmlns="http://www.w3.org/2000/svg" xmlns:xlink="http://www.w3.org/1999/xlink" width="24" height="24" viewBox="0 0 24 24">
  <defs>
    <clipPath id="clip-path">
      <rect id="Rectangle_2507" data-name="Rectangle 2507" width="24" height="24" transform="translate(168 352)" fill="#fff" opacity="0"/>
    </clipPath>
  </defs>
  <g id="Mask_Group_7" data-name="Mask Group 7" transform="translate(-168 -352)" clip-path="url(#clip-path)">
    <g id="Trash" transform="translate(169.547 354)">
      <g id="Group_13325" data-name="Group 13325" transform="translate(1.453)">
        <g id="Group_13324" data-name="Group 13324">
          <path id="Path_32070" data-name="Path 32070" d="M17.244,2.339H13.766l-.38-1.14A1.752,1.752,0,0,0,11.722,0H8.729A1.754,1.754,0,0,0,7.064,1.2l-.38,1.14H3.208A1.756,1.756,0,0,0,1.453,4.094v1.17c0,.651.586.585,1.216.585H18.413A.584.584,0,0,0,19,5.263V4.094A1.756,1.756,0,0,0,17.244,2.339Zm-9.326,0,.256-.77a.585.585,0,0,1,.555-.4h2.993a.583.583,0,0,1,.555.4l.256.77Z" transform="translate(-1.453)" fill="#df2e2e"/>
        </g>
      </g>
      <g id="Group_13327" data-name="Group 13327" transform="translate(2.766 7.096)">
        <g id="Group_13326" data-name="Group 13326">
          <path id="Path_32071" data-name="Path 32071" d="M3.031,8.531,3.964,19.8a1.746,1.746,0,0,0,1.747,1.6h9.561a1.747,1.747,0,0,0,1.748-1.6l.932-11.265Zm4.536,9.942a.585.585,0,0,1-1.17,0V10.286a.585.585,0,0,1,1.17,0Zm3.509,0a.585.585,0,0,1-1.17,0V10.286a.585.585,0,0,1,1.17,0Zm3.509,0a.585.585,0,0,1-1.17,0V10.286a.585.585,0,0,1,1.17,0Z" transform="translate(-3.031 -8.531)" fill="#df2e2e"/>
        </g>
      </g>
    </g>
  </g>
</svg>
