<svg xmlns="http://www.w3.org/2000/svg" xmlns:xlink="http://www.w3.org/1999/xlink" width="250" height="250" viewBox="0 0 250 250">
  <defs>
    <clipPath id="clip-path">
      <rect id="Rectangle_2445" data-name="Rectangle 2445" width="250" height="250" transform="translate(63 128)" fill="#fff"/>
    </clipPath>
  </defs>
  <g id="Mask_Group_2" data-name="Mask Group 2" transform="translate(-63 -128)" clip-path="url(#clip-path)">
    <g id="undraw_sharing_articles_re_jnkp" transform="translate(62.988 139.093)">
      <path id="Path_31959" data-name="Path 31959" d="M199.709,167.1h-55.04a.727.727,0,0,1-.726-.726V105.814a.727.727,0,0,1,.726-.726h55.04a.727.727,0,0,1,.726.726v60.558A.727.727,0,0,1,199.709,167.1Z" transform="translate(-47.184 -15.235)" fill="#fff"/>
      <path id="Path_31960" data-name="Path 31960" d="M199.709,167.1h-55.04a.727.727,0,0,1-.726-.726V105.814a.727.727,0,0,1,.726-.726h55.04a.727.727,0,0,1,.726.726v60.558A.727.727,0,0,1,199.709,167.1Zm-55.04-61.72a.436.436,0,0,0-.436.436v60.558a.436.436,0,0,0,.436.436h55.04a.436.436,0,0,0,.436-.436V105.814a.436.436,0,0,0-.436-.436Z" transform="translate(-47.184 -15.235)" fill="#3f3d56"/>
      <path id="Path_31961" data-name="Path 31961" d="M168.413,128.179H154.762a.727.727,0,0,1-.726-.726V113.8a.727.727,0,0,1,.726-.726h13.651a.727.727,0,0,1,.726.726v13.651a.727.727,0,0,1-.726.726Zm-13.651-14.813a.436.436,0,0,0-.436.436v13.651a.436.436,0,0,0,.436.436h13.651a.436.436,0,0,0,.436-.436V113.8a.436.436,0,0,0-.436-.436Z" transform="translate(-47.184 -15.235)" fill="#f2f2f2"/>
      <path id="Path_31962" data-name="Path 31962" d="M164.492,129.848H150.841a.654.654,0,0,1-.654-.654V115.544a.654.654,0,0,1,.654-.653h13.651a.654.654,0,0,1,.654.654v13.651a.654.654,0,0,1-.654.654Z" transform="translate(-47.184 -15.235)" fill="#5745de"/>
      <path id="Path_31963" data-name="Path 31963" d="M193.537,136.529h-42.7a.654.654,0,1,1,0-1.307h42.7a.654.654,0,0,1,0,1.307Z" transform="translate(-47.184 -15.235)" fill="#ccc"/>
      <path id="Path_31964" data-name="Path 31964" d="M183.226,141.031H150.841a.654.654,0,1,1,0-1.307h32.385a.654.654,0,0,1,0,1.307Z" transform="translate(-47.184 -15.235)" fill="#ccc"/>
      <path id="Path_31965" data-name="Path 31965" d="M193.392,119.973H174.513a.654.654,0,0,1,0-1.307h18.879a.654.654,0,0,1,0,1.307Z" transform="translate(-47.184 -15.235)" fill="#5745de"/>
      <path id="Path_31966" data-name="Path 31966" d="M188.68,124.475H174.513a.654.654,0,0,1,0-1.307H188.68a.654.654,0,0,1,0,1.307Z" transform="translate(-47.184 -15.235)" fill="#5745de"/>
      <path id="Path_31967" data-name="Path 31967" d="M193.537,145.533h-42.7a.654.654,0,1,1,0-1.307h42.7a.654.654,0,1,1,0,1.307Z" transform="translate(-47.184 -15.235)" fill="#ccc"/>
      <path id="Path_31968" data-name="Path 31968" d="M183.226,150.035H150.841a.654.654,0,1,1,0-1.307h32.385a.654.654,0,0,1,0,1.307Z" transform="translate(-47.184 -15.235)" fill="#ccc"/>
      <path id="Path_31969" data-name="Path 31969" d="M193.537,154.537h-42.7a.654.654,0,1,1,0-1.307h42.7a.654.654,0,0,1,0,1.307Z" transform="translate(-47.184 -15.235)" fill="#ccc"/>
      <path id="Path_31970" data-name="Path 31970" d="M193.537,159.039h-42.7a.654.654,0,0,1,0-1.307h42.7a.654.654,0,1,1,0,1.307Z" transform="translate(-47.184 -15.235)" fill="#ccc"/>
      <path id="Path_31971" data-name="Path 31971" d="M132.467,193.925a42.474,42.474,0,0,1-26.932,39.535c-.615.247-1.25.479-1.887.694q-1.068.366-2.158.672-.758.211-1.53.4a42.738,42.738,0,0,1-23.421-1c-.594-.2-1.182-.41-1.765-.631-.783-.3-1.558-.626-2.319-.973-.057-.023-.112-.049-.166-.075-.3-.138-.588-.276-.884-.422h0q-.607-.293-1.2-.608-1.369-.723-2.678-1.541-.68-.422-1.34-.875a42.456,42.456,0,0,1,15.21-76.773q1.124-.232,2.27-.4c.479-.075.964-.138,1.449-.192.347-.04.694-.077,1.047-.106h0q1.416-.129,2.858-.161l.4-.009c.075,0,.149,0,.224,0h0c.115,0,.23,0,.347,0,.482,0,.964.009,1.444.026q1.584.052,3.134.218c.6.063,1.185.141,1.774.227.066.011.135.02.2.032.2.032.393.063.588.1.413.066.824.143,1.234.227.385.077.766.158,1.148.244a41.356,41.356,0,0,1,4.173,1.185,42.591,42.591,0,0,1,22.367,17.773q.22.349.43.706c.109.178.212.356.316.537q.056.09.1.181c.023.034.04.069.06.1.189.33.373.666.551,1A42.285,42.285,0,0,1,132.467,193.925Z" transform="translate(-47.184 -15.235)" fill="#fff"/>
      <path id="Path_31972" data-name="Path 31972" d="M90,236.686A42.99,42.99,0,0,1,76.451,234.5c-.565-.188-1.146-.4-1.778-.636-.8-.307-1.583-.636-2.336-.98-.05-.02-.11-.048-.169-.076-.286-.132-.565-.264-.849-.4l-.04-.018c-.4-.194-.811-.4-1.212-.613-.914-.483-1.821-1.005-2.7-1.551-.455-.282-.91-.579-1.351-.882a42.743,42.743,0,0,1,15.315-77.291c.751-.155,1.521-.291,2.286-.4.453-.07.945-.136,1.459-.194.35-.04.7-.078,1.056-.107.946-.086,1.914-.14,2.878-.162l.476-.009c.055,0,.109,0,.164,0,.1,0,.219,0,.339,0,.486,0,.975.009,1.454.026,1.058.035,2.12.108,3.154.22.548.058,1.131.133,1.784.228l.276.044c.174.028.349.056.522.087.372.059.768.132,1.241.228.386.078.77.159,1.154.245a41.828,41.828,0,0,1,4.2,1.194A43,43,0,0,1,126.3,171.328q.221.35.434.712c.108.176.213.357.318.54.034.054.069.116.1.178.016.025.03.05.044.076l.016.029c.18.314.362.645.557,1.012a42.773,42.773,0,0,1-22.123,59.85c-.608.244-1.25.48-1.907.7-.712.244-1.443.472-2.173.676-.505.141-1.023.275-1.54.4A43.042,43.042,0,0,1,90,236.686Zm-18.53-4.851h0l.063.03c.293.145.581.282.877.418.052.025.1.048.153.069.755.344,1.53.67,2.315.971.623.237,1.2.442,1.753.627a42.413,42.413,0,0,0,23.263.992c.51-.122,1.021-.255,1.519-.393.719-.2,1.439-.426,2.142-.666.648-.219,1.281-.452,1.88-.692a41.946,41.946,0,0,0,26.744-39.265h0a42.144,42.144,0,0,0-4.917-19.781c-.192-.362-.37-.687-.547-.993l-.021-.038c-.009-.016-.018-.033-.029-.049l-.016-.026q-.043-.081-.093-.163c-.107-.187-.209-.362-.316-.538-.142-.24-.284-.473-.429-.7A42.424,42.424,0,0,0,103.6,153.979a41.194,41.194,0,0,0-4.144-1.177c-.379-.086-.758-.166-1.141-.242-.466-.094-.854-.166-1.223-.225-.175-.031-.347-.059-.518-.086L96.3,152.2c-.638-.093-1.214-.167-1.755-.224-1.02-.11-2.068-.183-3.113-.217-.473-.017-.955-.026-1.434-.026-.117,0-.228,0-.34,0-.066,0-.111,0-.156,0l-.471.009c-.951.021-1.906.075-2.838.16h-.029c-.326.027-.67.064-1.014.1-.507.057-.991.121-1.438.191-.757.112-1.515.246-2.256.4a42.169,42.169,0,0,0-15.108,76.255c.436.3.883.591,1.331.869.863.539,1.758,1.055,2.66,1.531C70.71,231.459,71.091,231.652,71.469,231.835Z" transform="translate(-47.184 -15.235)" fill="#cbcbcb"/>
      <path id="Path_31973" data-name="Path 31973" d="M126.339,184.7a5.215,5.215,0,0,1-7.989.347L107.144,189.1l-4.125-6.209,15.905-5.5a5.243,5.243,0,0,1,7.415,7.311Z" transform="translate(-47.184 -15.235)" fill="#9f616a"/>
      <path id="Path_31974" data-name="Path 31974" d="M44.14,170.045l23.086-7.631,3.89,8.492-21.524,6.6Z" fill="#ccc"/>
      <path id="Path_31975" data-name="Path 31975" d="M99.96,235.221a42.738,42.738,0,0,1-23.421-1l.517-4.884.479-4.563,7.189-11.115,2.3-3.561,9.5,3.452.967,6.1,1.541,9.726Z" transform="translate(-47.184 -15.235)" fill="#2f2e41"/>
      <path id="Path_31976" data-name="Path 31976" d="M105.542,233.456c-.623.25-1.257.482-1.894.7q-1.068.366-2.158.672-.758.211-1.53.4a42.738,42.738,0,0,1-23.421-1c-.594-.2-1.182-.41-1.765-.631a33.055,33.055,0,0,1-.155,5.094,60.216,60.216,0,0,1-2.164-6.067c-.043-.138-.083-.276-.123-.413-.2-.695-.379-1.357-.54-1.98-.184-.72-.342-1.389-.474-2-.525-2.4-.692-3.883-.692-3.883l5.611-11.651,1.122.129.465.052,2.812.321,4.087.468,6.621.755,6.147,5.235L103,224.342s.459,1.561,1.179,4.147C104.569,229.878,105.031,231.562,105.542,233.456Z" transform="translate(-47.184 -15.235)" fill="#2f2e41"/>
      <circle id="Ellipse_514" data-name="Ellipse 514" cx="9.927" cy="9.927" r="9.927" transform="translate(30.644 120.863)" fill="#9f616a"/>
      <path id="Path_31977" data-name="Path 31977" d="M94.665,166.937s-2.386-7.375-8-7.375a10.139,10.139,0,0,0-5.507,1.317A27.368,27.368,0,0,0,68.9,182.771l-1.725,44.161s9.5,3.453,12.948,2.158,6.906-9.927,6.906-9.927-.863,11.653,2.59,11.222,16.4-1.295,16.833-3.021-6.607-38.846-6.607-38.846Z" transform="translate(-47.184 -15.235)" fill="#ccc"/>
      <path id="Path_31978" data-name="Path 31978" d="M82.929,148.935a14.023,14.023,0,0,1,2.644.365,6.693,6.693,0,0,0,7.154-4.99,3.829,3.829,0,0,1,.366-1.192,2.362,2.362,0,0,1,2.51-.764,19.379,19.379,0,0,0,2.712.66,4.153,4.153,0,0,0,3.584-2.028,6.878,6.878,0,0,0,.88-4.154l-.689.723a3.5,3.5,0,0,1-.312-1.9,2.208,2.208,0,0,0-2.091.535c-.608.065-.149-1.127-.6-1.539a1.044,1.044,0,0,0-.735-.137c-1.293.012-2.339-.976-3.357-1.772a14.266,14.266,0,0,0-6.025-2.748,7.927,7.927,0,0,0-4.4.213,9.391,9.391,0,0,0-2.969,2.106,18.125,18.125,0,0,0-4.988,7.4,12.459,12.459,0,0,0-.06,7.225c.363,1.226,1.458,5.426,3.061,5.524C81.631,152.581,80.422,149.085,82.929,148.935Z" transform="translate(-47.184 -15.235)" fill="#2f2e41"/>
      <path id="Path_31979" data-name="Path 31979" d="M39.937,164.772,29.772,179.681l-3.251,34.63Z" opacity="0.1"/>
      <ellipse id="Ellipse_515" data-name="Ellipse 515" cx="0.758" cy="0.284" rx="0.758" ry="0.284" transform="matrix(0.581, -0.814, 0.814, 0.581, 82.116, 155.946)" fill="#3f3d56"/>
      <path id="Path_31980" data-name="Path 31980" d="M116.647,186.955h0a1.327,1.327,0,0,1-.31-1.851h0L127.9,168.9a1.327,1.327,0,0,1,1.851-.31h0l-13.1,18.365Z" transform="translate(-47.184 -15.235)" fill="#5745de"/>
      <path id="Path_31981" data-name="Path 31981" d="M117.122,188.575l-.669-.477a1.074,1.074,0,0,1-.251-1.5l13.164-18.45a.907.907,0,0,1,1.265-.212h0l.805.574h0l-14.314,20.062Z" transform="translate(-47.184 -15.235)" fill="#2f2e41"/>
      <rect id="Rectangle_2447" data-name="Rectangle 2447" width="1.517" height="0.379" transform="matrix(0.581, -0.814, 0.814, 0.581, 80.904, 156.013)" fill="#d0cde1"/>
      <rect id="Rectangle_2448" data-name="Rectangle 2448" width="1.517" height="0.379" transform="matrix(0.581, -0.814, 0.814, 0.581, 79.693, 157.71)" fill="#d0cde1"/>
      <path id="Path_31982" data-name="Path 31982" d="M76.012,240.842a5.215,5.215,0,0,0-1.977-7.748l.644-11.9-7.136-2.155-.673,16.817a5.243,5.243,0,0,0,9.142,4.985Z" transform="translate(-47.184 -15.235)" fill="#9f616a"/>
      <path id="Path_31983" data-name="Path 31983" d="M75.974,231.054H65.651l-2.841-31.8.01-.029,9.662-28.378a7.6,7.6,0,1,1,13.843,6.141l-11.37,20.475Z" transform="translate(-47.184 -15.235)" fill="#ccc"/>
      <path id="Path_31984" data-name="Path 31984" d="M296.909,93.149a42.512,42.512,0,1,1-43.446-42.462l.4-.009c.189,0,.382,0,.574,0,.482,0,.964.009,1.444.026q1.584.052,3.134.218c.6.063,1.185.141,1.774.227.066.011.135.02.2.032a41.955,41.955,0,0,1,7.143,1.753A42.5,42.5,0,0,1,296.909,93.149Z" transform="translate(-47.184 -15.235)" fill="#fff"/>
      <path id="Path_31985" data-name="Path 31985" d="M254.395,135.988a42.8,42.8,0,0,1-.94-85.588l.4-.009c.676-.01,1.364,0,2.034.023,1.057.035,2.119.108,3.154.22.548.058,1.132.133,1.785.228l.208.033a42.713,42.713,0,0,1,36.159,42.254h0a42.848,42.848,0,0,1-42.759,42.84Zm.035-85.026c-.189,0-.379,0-.565,0l-.4.009a42.225,42.225,0,0,0,.927,84.44h.041A42.273,42.273,0,0,0,296.621,93.15h0a42.139,42.139,0,0,0-35.678-41.688l-.206-.032c-.637-.093-1.214-.167-1.755-.224-1.022-.11-2.069-.183-3.113-.217-.473-.017-.955-.026-1.434-.026Z" transform="translate(-47.184 -15.235)" fill="#cbcbcb"/>
      <ellipse id="Ellipse_516" data-name="Ellipse 516" cx="0.284" cy="0.758" rx="0.284" ry="0.758" transform="matrix(0.535, -0.845, 0.845, 0.535, 173.317, 79.636)" fill="#3f3d56"/>
      <path id="Path_31986" data-name="Path 31986" d="M220.693,92.973h0a1.327,1.327,0,0,1,1.831-.411h0l16.818,10.65a1.327,1.327,0,0,1,.411,1.831h0l-19.06-12.07Z" transform="translate(-47.184 -15.235)" fill="#5745de"/>
      <path id="Path_31987" data-name="Path 31987" d="M219.1,93.536l.529-.836a.907.907,0,0,1,1.251-.281h0l19.148,12.126a1.074,1.074,0,0,1,.333,1.482l-.44.694h0L219.1,93.536Z" transform="translate(-47.184 -15.235)" fill="#2f2e41"/>
      <rect id="Rectangle_2449" data-name="Rectangle 2449" width="0.379" height="1.517" transform="matrix(0.535, -0.845, 0.845, 0.535, 174.566, 79.081)" fill="#d0cde1"/>
      <rect id="Rectangle_2450" data-name="Rectangle 2450" width="0.379" height="1.517" transform="matrix(0.535, -0.845, 0.845, 0.535, 176.328, 80.196)" fill="#d0cde1"/>
      <circle id="Ellipse_517" data-name="Ellipse 517" cx="11.953" cy="11.953" r="11.953" transform="translate(195.41 15.906)" fill="#ffb8b8"/>
      <path id="Path_31988" data-name="Path 31988" d="M265.931,134.05a42.673,42.673,0,0,1-29.2-2.282l.918-24.537.069-1.908.026-.62.032-.913.023-.583.109-.006c.2-.014.646-.046,1.291-.083.749-.043,1.756-.1,2.93-.146.278-.011.565-.023.861-.037,6.182-.23,15.836-.278,17.113,1.584l.161,1.1.258,1.771.528,3.619S267.053,122.944,265.931,134.05Z" transform="translate(-47.184 -15.235)" fill="#2f2e41"/>
      <path id="Path_31989" data-name="Path 31989" d="M268.965,72.164l-2.354,21.747-4.484,9.918-1.662,3.678-24.052-.292,2.478-16.764c-3.5-9.038,4.81-12.682,4.81-12.682l8.619-17.659s2.3-1.148,8.291-1.437c5.573-.269,1.18.576,1.18.576C269.079,58.521,268.965,72.164,268.965,72.164Z" transform="translate(-47.184 -15.235)" fill="#ccc"/>
      <path id="Path_31990" data-name="Path 31990" d="M261.732,95.06l-4.484,9.918c-1.44-2.694-2.536-5.745-2.536-7.547,0-4.956,4.956-2.332,4.956-2.332s-4.009-21.939-4.009-28.5C255.659,62.243,259.292,81.58,261.732,95.06Z" transform="translate(-47.184 -15.235)" opacity="0.2"/>
      <path id="Path_31991" data-name="Path 31991" d="M268.324,35.812a13.4,13.4,0,0,0-3.516-4.951,2.614,2.614,0,0,0,1.47-1.239,2.774,2.774,0,0,0-.409-2.868,5.221,5.221,0,0,0-2.142-1.541,4.233,4.233,0,0,0,1.95.375c.813-.085,1.626-.723,1.577-1.514-.046-.754-.788-1.264-1.454-1.658l-1.3-.766a6.738,6.738,0,0,0,.337-.766,5.312,5.312,0,0,0-1.149-5.65c1.415,1.44,1.053,3.669-.344,5.477-.045.058-.093.115-.14.173l-.831-.491a5.843,5.843,0,0,0-2.211-.922,1.974,1.974,0,0,0-2.043.937c-.351.766.048,1.743-.409,2.455a2.243,2.243,0,0,1-2.029.725,4.6,4.6,0,0,0-2.233.186,2.076,2.076,0,0,0-.826,2.66,2.827,2.827,0,0,0,.805,1.024,37.459,37.459,0,0,0-5.912,1.479A20.9,20.9,0,0,0,241,31.85a7.322,7.322,0,0,0-3.174,6.108c.182,2.387,2.553,6.145,4.916,5.764l.36-1.126a7.6,7.6,0,0,1,8.689,1.545c.027-1.5,2.314-2,3.454-1.022s1.36,2.636,1.448,4.136.172,3.134,1.16,4.266a4.1,4.1,0,0,0,3.97,1.1,7.618,7.618,0,0,0,3.627-2.249A13.921,13.921,0,0,0,268.324,35.812Z" transform="translate(-47.184 -15.235)" fill="#2f2e41"/>
      <path id="Path_31992" data-name="Path 31992" d="M230.2,105.78a5.215,5.215,0,0,0,7.748-1.977l32.562.644,2.155-7.136-37.48-.673a5.243,5.243,0,0,0-4.986,9.142Z" transform="translate(-47.184 -15.235)" fill="#ffb8b8"/>
      <path id="Path_31993" data-name="Path 31993" d="M261.855,58.073s-7.58.583-7.58,7.143S261.126,95.1,261.126,95.1s-4.956-2.624-4.956,2.332,8.309,19.388,9.184,9.767c0,0,12.536,6.122,11.808-5.394s-8.6-35.86-8.6-35.86S267.686,57.635,261.855,58.073Z" transform="translate(-47.184 -15.235)" fill="#ccc"/>
    </g>
  </g>
</svg>
