<svg xmlns="http://www.w3.org/2000/svg" xmlns:xlink="http://www.w3.org/1999/xlink" width="250"
    height="250" viewBox="0 0 250 250">
    <defs>
        <clipPath id="clip-path">
            <rect id="Rectangle_2444" data-name="Rectangle 2444" width="250" height="250"
                transform="translate(63 113)" fill="#fff" />
        </clipPath>
    </defs>
    <g id="Mask_Group_1" data-name="Mask Group 1" transform="translate(-63 -113)"
        clip-path="url(#clip-path)">
        <g id="undraw_choose_re_7d5a" transform="translate(68.006 113)">
            <path id="Path_31951" data-name="Path 31951"
                d="M357.625,282.016l-10.993,10.12,8.736-14.659c-6.883-12.482-18.14-23.269-18.14-23.269s-23.354,22.375-23.354,39.963S324.331,317.9,337.229,317.9s23.354-6.141,23.354-23.729A30.859,30.859,0,0,0,357.625,282.016Z"
                transform="translate(-137.516 -68.133)" fill="#f2f2f2" />
            <path id="Path_31952" data-name="Path 31952"
                d="M343.8,292.684v.867c-.052,10.077-1.751,17.94-5.086,23.476-.047.082-.1.159-.146.24l-.373-.227-.356-.223c3.7-5.979,5.009-14.429,5.056-23.219,0-.283.009-.571,0-.858-.013-3.721-.24-7.485-.605-11.142-.026-.283-.056-.571-.086-.858-.506-4.824-1.236-9.433-1.983-13.438-.051-.283-.107-.566-.163-.845-1.292-6.773-2.609-11.678-2.91-12.764-.034-.133-.056-.206-.06-.223l.408-.116,0,0,.412-.116c0,.017.077.262.2.717.459,1.7,1.652,6.313,2.824,12.4.052.275.107.558.159.841.609,3.249,1.206,6.88,1.678,10.691q.18,1.436.322,2.833c.034.288.064.575.09.858Q343.784,287.5,343.8,292.684Z"
                transform="translate(-137.516 -68.133)" fill="#fff" />
            <path id="Path_31953" data-name="Path 31953"
                d="M340.942,266.349c-.288.039-.579.077-.876.107a23.68,23.68,0,0,1-2.421.124,23.032,23.032,0,0,1-9.957-2.249l-.545.687a23.885,23.885,0,0,0,10.5,2.421,24.5,24.5,0,0,0,2.584-.137c.292-.03.584-.069.871-.112a23.683,23.683,0,0,0,6.846-2.073q-.277-.354-.541-.7A22.954,22.954,0,0,1,340.942,266.349Z"
                transform="translate(-137.516 -68.133)" fill="#fff" />
            <path id="Path_31954" data-name="Path 31954"
                d="M343.1,280.714q-.444.026-.888.026c-.09,0-.185,0-.275,0a23.154,23.154,0,0,1-19-9.927c-.172.253-.343.507-.511.764A24.014,24.014,0,0,0,341.938,281.6c.12,0,.24,0,.36,0,.3,0,.6-.013.893-.026a23.886,23.886,0,0,0,12.725-4.464c-.137-.253-.275-.506-.416-.76a22.994,22.994,0,0,1-12.4,4.365Z"
                transform="translate(-137.516 -68.133)" fill="#fff" />
            <path id="Path_31955" data-name="Path 31955"
                d="M343.8,292.684c-.3.026-.6.043-.9.056-.322.013-.644.021-.966.021a23.216,23.216,0,0,1-22.258-16.7c-.193.348-.386.691-.571,1.039a24.067,24.067,0,0,0,22.828,16.524c.322,0,.644,0,.961-.021s.605-.026.906-.047a24,24,0,0,0,15.837-7.73c-.09-.318-.193-.631-.3-.948a23.142,23.142,0,0,1-15.541,7.811Z"
                transform="translate(-137.516 -68.133)" fill="#fff" />
            <path id="Rectangle_1_-_Outline" data-name="Rectangle 1 - Outline"
                d="M318.094,122.188,198.528,106.945a7.762,7.762,0,0,0-.971-.063,7.409,7.409,0,0,0-.957.06,7.325,7.325,0,0,0-.94.184,7.508,7.508,0,0,0-.919.31,7.824,7.824,0,0,0-.855.413,8.134,8.134,0,0,0-.811.517,8.685,8.685,0,0,0-.763.623,9.478,9.478,0,0,0-.712.723,10.2,10.2,0,0,0-.649.817q-.306.43-.575.9t-.5.97q-.23.5-.42,1.042-.2.556-.344,1.137t-.247,1.182q-.1.6-.149,1.22t-.052,1.255q0,.634.052,1.265t.149,1.25q.1.623.248,1.233t.344,1.206q.19.576.42,1.126t.5,1.07q.269.52.575,1.011t.649.948q.343.455.712.868t.763.775q.394.364.811.68a10.14,10.14,0,0,0,.855.583,9.339,9.339,0,0,0,.919.492,8.617,8.617,0,0,0,.94.372,8.147,8.147,0,0,0,.957.253,7.928,7.928,0,0,0,.971.132L318.1,140.239a3.029,3.029,0,0,0,1.033-.1,3.239,3.239,0,0,0,.5-.184,3.693,3.693,0,0,0,.484-.271,4.312,4.312,0,0,0,.447-.341,5.013,5.013,0,0,0,.422-.413,5.938,5.938,0,0,0,.394-.484q.191-.259.366-.553t.332-.612q.157-.319.293-.662t.253-.71q.116-.367.212-.755t.174-.818q.073-.416.124-.845t.075-.869q.025-.44.025-.89t-.025-.895q-.023-.445-.075-.884t-.124-.87q-.074-.431-.174-.853t-.212-.8q-.115-.384-.253-.757t-.293-.723q-.156-.35-.332-.679t-.366-.626q-.19-.3-.394-.563t-.422-.5a5.792,5.792,0,0,0-.447-.431,4.862,4.862,0,0,0-.484-.368,4.082,4.082,0,0,0-.5-.284,3.551,3.551,0,0,0-.511-.2,3.258,3.258,0,0,0-.523-.111"
                transform="translate(-137.516 -68.133)" fill="#5745de" />
            <path id="Rectangle_3_-_Outline" data-name="Rectangle 3 - Outline"
                d="M318.094,156.569,198.528,153.7a7.687,7.687,0,0,0-1.929.2,7.873,7.873,0,0,0-.94.282,8.333,8.333,0,0,0-.919.4,8.9,8.9,0,0,0-.855.5,9.406,9.406,0,0,0-.811.6,10.124,10.124,0,0,0-.763.7q-.369.376-.712.8t-.649.885q-.306.46-.575.955t-.5,1.022q-.23.527-.42,1.085-.2.577-.344,1.173t-.247,1.207q-.1.611-.149,1.236t-.052,1.26q0,.635.052,1.26t.149,1.235q.1.608.248,1.2t.344,1.171q.19.559.42,1.085t.5,1.019q.269.493.575.951t.649.878q.343.422.712.8a10.024,10.024,0,0,0,.763.7,9.31,9.31,0,0,0,.811.6,8.815,8.815,0,0,0,.855.494,8.275,8.275,0,0,0,.919.4,7.835,7.835,0,0,0,.94.275,7.649,7.649,0,0,0,.957.155,7.727,7.727,0,0,0,.971.032l119.565-3.638a3.112,3.112,0,0,0,.523-.06,3.25,3.25,0,0,0,.512-.148,3.621,3.621,0,0,0,.5-.236,4.236,4.236,0,0,0,.484-.321,5.009,5.009,0,0,0,.447-.387,5.855,5.855,0,0,0,.422-.457q.2-.244.394-.524t.366-.591q.176-.312.332-.647t.293-.692q.137-.363.253-.739t.212-.775q.1-.408.174-.832t.125-.858q.05-.435.075-.878t.025-.893q0-.446-.025-.891t-.075-.878q-.05-.435-.125-.857t-.174-.835q-.1-.4-.212-.777t-.253-.735q-.136-.356-.292-.691t-.332-.644q-.176-.311-.366-.589t-.394-.522a5.8,5.8,0,0,0-.422-.454,4.962,4.962,0,0,0-.447-.384,4.2,4.2,0,0,0-.484-.318,3.59,3.59,0,0,0-.5-.231,3.234,3.234,0,0,0-.512-.145,3.106,3.106,0,0,0-.523-.057"
                transform="translate(-137.516 -68.133)" fill="#e4e4e4" />
            <path id="Rectangle_4_-_Outline" data-name="Rectangle 4 - Outline"
                d="M318.094,188.8l-119.566,8.745a7.93,7.93,0,0,0-.971.132,8.14,8.14,0,0,0-.957.253,8.613,8.613,0,0,0-.94.372,9.346,9.346,0,0,0-.919.492,10.143,10.143,0,0,0-.855.583q-.417.319-.811.68t-.763.775q-.369.412-.712.868t-.649.949q-.306.49-.575,1.011t-.5,1.07q-.23.55-.42,1.126-.2.6-.344,1.206t-.247,1.231q-.1.621-.149,1.251t-.052,1.265q0,.635.052,1.255t.149,1.221q.1.6.248,1.182t.344,1.137q.19.538.42,1.042t.5.97q.269.467.575.9a10.205,10.205,0,0,0,.649.817,9.472,9.472,0,0,0,.712.723,8.681,8.681,0,0,0,.763.623,8.138,8.138,0,0,0,.811.517,7.823,7.823,0,0,0,.855.413,7.506,7.506,0,0,0,.919.31,7.318,7.318,0,0,0,.94.184,7.412,7.412,0,0,0,.957.06,7.763,7.763,0,0,0,.971-.063l119.565-15.24a3.26,3.26,0,0,0,.523-.111,3.551,3.551,0,0,0,.511-.2,4.08,4.08,0,0,0,.5-.284,4.86,4.86,0,0,0,.484-.368,5.79,5.79,0,0,0,.447-.431q.215-.232.422-.5t.394-.563q.191-.3.366-.626t.332-.679q.157-.352.293-.723t.253-.762q.116-.39.212-.8t.174-.854q.073-.431.124-.87t.075-.884q.025-.445.025-.9t-.025-.888q-.023-.44-.075-.869t-.124-.847q-.074-.416-.174-.818t-.212-.755q-.115-.366-.253-.71t-.293-.662q-.158-.316-.334-.611t-.366-.553a5.935,5.935,0,0,0-.394-.484,5.01,5.01,0,0,0-.422-.413,4.3,4.3,0,0,0-.447-.341,3.69,3.69,0,0,0-.484-.271,3.245,3.245,0,0,0-.5-.184,3.028,3.028,0,0,0-1.033-.1"
                transform="translate(-137.516 -68.133)" fill="#e4e4e4" />
            <path id="Path_5" data-name="Path 5"
                d="M252.924,190.4a6,6,0,0,0,10.853-4.91l23.173-47.607-11.092-6.724-20.013,50.569q-.115.045-.226.093t-.222.1q-.11.053-.219.112t-.216.124a6,6,0,0,0-2.039,8.241Z"
                transform="translate(-137.516 -68.133)" fill="#9e616a" />
            <path id="Path_8" data-name="Path 8"
                d="M282.526,156.242l-16.462-4.219s.537-1.215,1.411-3.228,2.094-4.82,3.467-8.007,2.9-6.748,4.384-10.267,2.935-7,4.154-10.012,2.6-4.82,3.995-5.831a5.492,5.492,0,0,1,4.036-1.073,7.8,7.8,0,0,1,3.123,1.189,8.505,8.505,0,0,1,1.254.951l3.817,6.941Z"
                transform="translate(-137.516 -68.133)" fill="#ccc" />
            <path id="Ellipse_3_-_Outline" data-name="Ellipse 3 - Outline"
                d="M150.779,152.472a10.694,10.694,0,0,0-1.188.155,10.866,10.866,0,0,0-1.171.287,11.308,11.308,0,0,0-1.15.421,12,12,0,0,0-1.125.553q-.536.3-1.047.655t-.993.76q-.481.406-.935.865t-.873.969q-.42.509-.8,1.055t-.706,1.125q-.327.58-.611,1.192t-.517,1.252q-.242.664-.424,1.342t-.3,1.367q-.122.689-.183,1.388t-.061,1.4q0,.7.061,1.39T138.94,170q.121.665.3,1.306t.423,1.256q.235.594.517,1.148a12.263,12.263,0,0,0,.612,1.068,11.714,11.714,0,0,0,.706.982,11.374,11.374,0,0,0,.8.9,10.91,10.91,0,0,0,.873.794,10.331,10.331,0,0,0,.935.678,9.954,9.954,0,0,0,2.041,1,9.762,9.762,0,0,0,2.273.517,9.994,9.994,0,0,0,1.171.052,10.508,10.508,0,0,0,1.188-.084,10.882,10.882,0,0,0,1.182-.217,11.1,11.1,0,0,0,1.155-.347,11.564,11.564,0,0,0,1.124-.474,12.27,12.27,0,0,0,1.089-.6q.515-.321,1-.689t.946-.784q.458-.416.884-.878t.819-.969q.4-.507.745-1.044t.654-1.1q.3-.566.564-1.158t.473-1.209q.221-.639.387-1.288t.277-1.308q.111-.659.166-1.325t.056-1.338q0-.672-.056-1.327t-.166-1.292q-.111-.635-.277-1.252t-.387-1.21q-.214-.574-.473-1.114t-.567-1.045a11.718,11.718,0,0,0-1.4-1.867,11.067,11.067,0,0,0-.817-.805,10.472,10.472,0,0,0-.884-.7,10.111,10.111,0,0,0-.946-.595,10,10,0,0,0-1.005-.486,9.752,9.752,0,0,0-2.212-.628,9.9,9.9,0,0,0-1.155-.115,10.364,10.364,0,0,0-1.182.02"
                transform="translate(-137.516 -68.133)" fill="#e4e4e4" />
            <path id="Ellipse_3_-_Outline-2" data-name="Ellipse 3 - Outline"
                d="M150.779,201.036a10.7,10.7,0,0,0-1.188.155,10.885,10.885,0,0,0-1.171.287,11.308,11.308,0,0,0-1.15.421,12,12,0,0,0-1.125.553q-.536.3-1.047.655t-.993.76q-.481.406-.935.865t-.873.969q-.42.509-.8,1.055t-.706,1.125q-.327.58-.611,1.192t-.517,1.252q-.242.664-.424,1.342t-.3,1.367q-.122.689-.183,1.388t-.061,1.4q0,.7.061,1.39t.183,1.351q.121.665.3,1.306t.423,1.256q.235.594.517,1.148a12.266,12.266,0,0,0,.612,1.068,11.716,11.716,0,0,0,.706.982,11.377,11.377,0,0,0,.8.9,10.913,10.913,0,0,0,.873.794,10.33,10.33,0,0,0,.935.678,9.955,9.955,0,0,0,2.041,1,9.761,9.761,0,0,0,2.273.517,9.99,9.99,0,0,0,1.171.052,10.515,10.515,0,0,0,1.188-.084,10.89,10.89,0,0,0,1.182-.217,11.106,11.106,0,0,0,1.155-.347,11.565,11.565,0,0,0,1.124-.474,12.284,12.284,0,0,0,1.089-.6q.515-.321,1-.689t.946-.784q.458-.416.884-.878t.819-.969q.4-.507.745-1.044t.654-1.1q.3-.566.564-1.158t.473-1.209q.221-.639.387-1.288t.277-1.308q.111-.659.166-1.325t.056-1.338q0-.672-.056-1.327t-.166-1.292q-.111-.635-.277-1.252t-.387-1.21q-.214-.574-.473-1.114t-.567-1.045a11.717,11.717,0,0,0-1.4-1.867,11.069,11.069,0,0,0-.817-.805,10.481,10.481,0,0,0-.884-.7,10.116,10.116,0,0,0-.946-.595,9.995,9.995,0,0,0-1.005-.486,9.751,9.751,0,0,0-2.212-.628,9.9,9.9,0,0,0-1.155-.115,10.364,10.364,0,0,0-1.182.02"
                transform="translate(-137.516 -68.133)" fill="#e4e4e4" />
            <path id="Ellipse_2_-_Outline" data-name="Ellipse 2 - Outline"
                d="M150.781,99.863a10.447,10.447,0,0,0-1.188.039,10.293,10.293,0,0,0-1.171.174,10.4,10.4,0,0,0-1.15.31,10.775,10.775,0,0,0-1.125.444,11.2,11.2,0,0,0-1.047.551,11.493,11.493,0,0,0-.993.664,12,12,0,0,0-.935.775q-.455.418-.875.886t-.8.979q-.376.51-.706,1.057t-.612,1.136q-.284.582-.517,1.2-.241.639-.423,1.3t-.3,1.338q-.122.679-.183,1.37t-.061,1.395q0,.7.061,1.395t.183,1.369q.121.677.3,1.335t.423,1.3q.235.616.517,1.2t.614,1.126q.33.546.706,1.052t.8.973q.421.465.873.878a11.9,11.9,0,0,0,.93.772,11.39,11.39,0,0,0,.993.658,11.108,11.108,0,0,0,1.047.545,10.7,10.7,0,0,0,1.125.437,10.292,10.292,0,0,0,2.321.465,10.511,10.511,0,0,0,2.37-.072,10.368,10.368,0,0,0,1.155-.235,10.514,10.514,0,0,0,1.124-.365,10.923,10.923,0,0,0,1.089-.492,11.366,11.366,0,0,0,1.005-.589,11.684,11.684,0,0,0,.946-.693q.458-.372.884-.792t.819-.89q.4-.469.745-.972t.654-1.039q.306-.536.564-1.1t.473-1.161q.221-.617.387-1.25t.277-1.281q.111-.65.166-1.311t.056-1.332q0-.671-.056-1.332t-.166-1.308q-.111-.647-.277-1.28t-.387-1.248q-.214-.595-.473-1.16t-.567-1.1q-.3-.531-.654-1.033t-.742-.967q-.391-.464-.817-.883t-.884-.787a11.574,11.574,0,0,0-.945-.688,11.272,11.272,0,0,0-1.005-.583,10.845,10.845,0,0,0-1.089-.486,10.457,10.457,0,0,0-1.124-.358,10.328,10.328,0,0,0-1.155-.227,10.459,10.459,0,0,0-1.182-.1m0-1.293a11.48,11.48,0,0,1,4.978,1.288,13.065,13.065,0,0,1,3.993,3.225,15.206,15.206,0,0,1,2.655,4.663,17.006,17.006,0,0,1,0,11.3,15.333,15.333,0,0,1-2.655,4.68,13.188,13.188,0,0,1-3.993,3.249,11.533,11.533,0,0,1-4.978,1.321,11.382,11.382,0,0,1-5.08-1.013,12.843,12.843,0,0,1-4.226-3.116,15.044,15.044,0,0,1-2.889-4.771,16.989,16.989,0,0,1,0-11.855,15.172,15.172,0,0,1,2.889-4.789,12.962,12.962,0,0,1,4.226-3.143,11.424,11.424,0,0,1,5.083-1.045Z"
                transform="translate(-137.516 -68.133)" fill="#5745de" />
            <path id="Path_1" data-name="Path 1"
                d="M150.78,117.092l-4.069-8.478.966-.629,3.352,6.965L165.1,98.407l.852.908Z"
                transform="translate(-137.516 -68.133)" fill="#5745de" />
            <g id="Group_1" data-name="Group 1">
                <path id="Path_1-2" data-name="Path 1-2"
                    d="M298.885,284.468l-10.074-.039,3.249,26.324,6.826.034Z"
                    transform="translate(-137.516 -68.133)" fill="#9e616a" />
                <path id="Path_2" data-name="Path 2"
                    d="M300.626,317.411l-22-.116v-.278a8.627,8.627,0,0,1,.164-1.682,8.411,8.411,0,0,1,1.268-3.056,8.636,8.636,0,0,1,2.379-2.367,8.415,8.415,0,0,1,3.062-1.255,8.628,8.628,0,0,1,1.683-.155h0l13.441.066Z"
                    transform="translate(-137.516 -68.133)" fill="#2f2e41" />
            </g>
            <g id="Group_2" data-name="Group 2">
                <path id="Path_3" data-name="Path 3"
                    d="M266.629,284.343l-10.045-.039,3.238,26.288,6.807.034Z"
                    transform="translate(-137.516 -68.133)" fill="#9e616a" />
                <path id="Path_4" data-name="Path 4"
                    d="M268.364,317.239l-21.939-.115v-.278a8.634,8.634,0,0,1,.164-1.679,8.408,8.408,0,0,1,1.265-3.052,8.612,8.612,0,0,1,2.373-2.365,8.385,8.385,0,0,1,3.054-1.252,8.6,8.6,0,0,1,1.679-.155h0l13.4.066Z"
                    transform="translate(-137.516 -68.133)" fill="#2f2e41" />
            </g>
            <path id="Path_6" data-name="Path 6"
                d="M266.2,176.751l-16.892,63.04,6.183,60.429,13.691.378L266.2,246.033l17.079-27.23,3.7,82.165,12.419-.878,6.908-70.645a80.224,80.224,0,0,0,5.13-17.177,76.489,76.489,0,0,0,1.214-14.034,65.641,65.641,0,0,0-.728-9.463,34.633,34.633,0,0,0-.682-3.47l-5.037-5.106Z"
                transform="translate(-137.516 -68.133)" fill="#2f2e41" />
            <path id="Path_31956" data-name="Path 31956"
                d="M288.583,187.294c-2.841,0-5.506-.091-7.923-.271a59.5,59.5,0,0,1-7.354-.968,26.187,26.187,0,0,1-6-1.888,9.625,9.625,0,0,1-3.89-3.07l-.115-.167,4.617-30.049,4.979-33.786a9.208,9.208,0,0,1,9.395-7.868l15.594.478a8.74,8.74,0,0,1,8.456,9.267l-2.047,33.6,7.551,33.143-.535.075c-.215.029-1.044.138-2.342.284-1.7.191-3.429.363-5.149.511-2.433.21-4.815.375-7.078.49C293.873,187.221,291.123,187.292,288.583,187.294Z"
                transform="translate(-137.516 -68.133)" fill="#ccc" />
            <path id="Path_9" data-name="Path 9"
                d="M279.929,103.255h-.012a2.491,2.491,0,0,1-2.49-2.493V86.86a18.579,18.579,0,0,1,1.466-7.251,18.879,18.879,0,0,1,9.919-9.971A18.59,18.59,0,0,1,314.73,86.694v13.924a2.5,2.5,0,0,1-.2.975,2.536,2.536,0,0,1-1.336,1.339,2.5,2.5,0,0,1-.976.2l-32.294.122Z"
                transform="translate(-137.516 -68.133)" fill="#2f2e41" />
            <path id="Ellipse_1" data-name="Ellipse 1"
                d="M304.5,82.092a13.7,13.7,0,0,1-15.847,19.74,13.545,13.545,0,0,1-8.147-6.527A13.7,13.7,0,0,1,296.342,75.57a13.544,13.544,0,0,1,8.158,6.522Z"
                transform="translate(-137.516 -68.133)" fill="#9e616a" />
            <path id="Path_10" data-name="Path 10"
                d="M273.018,87.991a14.7,14.7,0,0,1,1.159-5.735,14.924,14.924,0,0,1,7.844-7.884,14.7,14.7,0,0,1,5.735-1.188l2.783-.014h.094A14.672,14.672,0,0,1,305.3,87.852v.278l-5.886.024L297.4,82.547l-.4,5.618-3.04.013-1.012-2.829-.2,2.833-19.724.088Z"
                transform="translate(-137.516 -68.133)" fill="#2f2e41" />
            <path id="Path_11" data-name="Path 11"
                d="M249.32,117.238a6.458,6.458,0,0,0-2.483,1.217,6.287,6.287,0,0,0-1.442,1.617,6.561,6.561,0,0,0-.948,4.093,6.281,6.281,0,0,0,.58,2.085,6.39,6.39,0,0,0,9.176,2.691l.168-.111q.083-.056.163-.115t.158-.119l.154-.123,32.482,11.561a4.9,4.9,0,0,0,5.614-1.754l7.7-10.662-9.31-6.269-4.886,5.55-29.726-5.913q-.049-.116-.1-.23t-.109-.228q-.058-.113-.119-.225t-.129-.222a6.385,6.385,0,0,0-6.944-2.842Z"
                transform="translate(-137.516 -68.133)" fill="#9e616a" />
            <path id="Path_12" data-name="Path 12"
                d="M286.971,123.4c.972-1.213,2.33-2.787,3.71-4.349s2.781-3.109,3.838-4.267,1.768-1.925,1.768-1.925a7.654,7.654,0,0,1,13.9,5.647,7.543,7.543,0,0,1-1.142,2.8s-1.06,1.387-2.659,3.456-3.74,4.825-5.9,7.564-4.339,5.464-6.019,7.476-2.864,3.311-3.03,3.2l-5.863-17.427C285.414,125.459,286,124.611,286.971,123.4Z"
                transform="translate(-137.516 -68.133)" fill="#ccc" />
            <path id="Path_13" data-name="Path 13"
                d="M290.451,102.817a2.451,2.451,0,0,0,.1,1.346,2.506,2.506,0,0,0,.329.617,2.535,2.535,0,0,0,.407.438,2.487,2.487,0,0,0,1.616.587l.111,0,.111-.008q.056,0,.111-.012l.111-.018,2.089-.38,2.878-6.148v5.631l9.5-1.71v-23.9l-15.924.076.394.457a10.953,10.953,0,0,1,2.48,5.389,17.855,17.855,0,0,1-.115,6.073,32.2,32.2,0,0,1-1.7,5.931,47.452,47.452,0,0,1-2.265,4.972,2.5,2.5,0,0,0-.238.657Z"
                transform="translate(-137.516 -68.133)" fill="#2f2e41" />
            <path id="Path_31957" data-name="Path 31957"
                d="M180.152,318.133H376.988a.517.517,0,0,0,0-1.033H180.152a.517.517,0,0,0,0,1.033Z"
                transform="translate(-137.516 -68.133)" fill="#cacaca" />
        </g>
    </g>
</svg>
