<svg xmlns="http://www.w3.org/2000/svg" xmlns:xlink="http://www.w3.org/1999/xlink" width="250" height="250" viewBox="0 0 250 250">
  <defs>
    <clipPath id="clip-path">
      <rect id="Rectangle_2446" data-name="Rectangle 2446" width="250" height="250" transform="translate(63 128)" fill="#fff"/>
    </clipPath>
  </defs>
  <g id="Mask_Group_3" data-name="Mask Group 3" transform="translate(-63 -128)" clip-path="url(#clip-path)">
    <g id="undraw_shopping_app_flsj" transform="translate(63 148.686)">
      <path id="Path_31994" data-name="Path 31994" d="M146.93,71.469H145.8v-31.1a18,18,0,0,0-18-18H61.916a18,18,0,0,0-18,18v170.6a18,18,0,0,0,18,18H127.8a18,18,0,0,0,18-18V93.6h1.135Z" transform="translate(-43.919 -22.375)" fill="#e6e6e6"/>
      <path id="Path_31995" data-name="Path 31995" d="M128.524,27.057h-8.6a6.385,6.385,0,0,1-5.912,8.8H76.27a6.385,6.385,0,0,1-5.912-8.8H62.326A13.44,13.44,0,0,0,48.885,40.5V210.842a13.44,13.44,0,0,0,13.44,13.44h66.2a13.44,13.44,0,0,0,13.44-13.44V40.5a13.44,13.44,0,0,0-13.44-13.44Z" transform="translate(-43.919 -22.375)" fill="#fff"/>
      <path id="Path_31996" data-name="Path 31996" d="M75.921,61.687H71.969a.524.524,0,0,0-.524.524v1.735a.524.524,0,0,0,.524.524h.655v2.6h2.643v-2.6h.655a.524.524,0,0,0,.524-.524V62.211A.524.524,0,0,0,75.921,61.687Z" transform="translate(-43.919 -22.375)" fill="#e6e6e6"/>
      <path id="Path_31997" data-name="Path 31997" d="M79.88,77.564a20.32,20.32,0,0,1-3.535-12.048.429.429,0,0,0-.335-.428v-.75H71.836v.739h-.058a.428.428,0,0,0-.428.429q0,.016,0,.031a18.545,18.545,0,0,1-3.331,12.333,1.18,1.18,0,0,0-.214.715l.456,14.119a1.222,1.222,0,0,0,1.212,1.18h9.442a1.223,1.223,0,0,0,1.213-1.2l.176-13.709A2.474,2.474,0,0,0,79.88,77.564Z" transform="translate(-43.919 -22.375)" fill="#e6e6e6"/>
      <path id="Path_31998" data-name="Path 31998" d="M78.385,82.254H70.167a.844.844,0,0,0-.834.972L70.575,91.3h7.131l1.508-8.045a.844.844,0,0,0-.829-1Z" transform="translate(-43.919 -22.375)" fill="#fff"/>
      <path id="Path_31999" data-name="Path 31999" d="M119.92,103.982h-3.953a.524.524,0,0,0-.524.524v1.735a.524.524,0,0,0,.524.524h.655v2.6h2.643v-2.6h.655a.524.524,0,0,0,.524-.524v-1.735a.524.524,0,0,0-.524-.524Z" transform="translate(-43.919 -22.375)" fill="#e6e6e6"/>
      <path id="Path_32000" data-name="Path 32000" d="M123.879,119.86a20.32,20.32,0,0,1-3.535-12.048.429.429,0,0,0-.334-.428v-.75h-4.175v.739h-.058a.428.428,0,0,0-.428.429q0,.016,0,.031a18.545,18.545,0,0,1-3.331,12.333,1.18,1.18,0,0,0-.214.715L112.262,135a1.222,1.222,0,0,0,1.212,1.18h9.442a1.223,1.223,0,0,0,1.213-1.2l.176-13.709a2.474,2.474,0,0,0-.425-1.413Z" transform="translate(-43.919 -22.375)" fill="#e6e6e6"/>
      <path id="Path_32001" data-name="Path 32001" d="M122.385,124.55h-8.218a.844.844,0,0,0-.834.972l1.242,8.072h7.131l1.508-8.045a.844.844,0,0,0-.829-1Z" transform="translate(-43.919 -22.375)" fill="#fff"/>
      <path id="Path_32002" data-name="Path 32002" d="M70.365,163.776H68.49a.249.249,0,0,0-.249.249v.823a.249.249,0,0,0,.249.249H68.8v1.233h1.253V165.1h.311a.249.249,0,0,0,.249-.249v-.823a.249.249,0,0,0-.249-.249Z" transform="translate(-43.919 -22.375)" fill="#e6e6e6"/>
      <path id="Path_32003" data-name="Path 32003" d="M72.242,171.308a9.639,9.639,0,0,1-1.677-5.715.2.2,0,0,0-.159-.2v-.356h-1.98v.351H68.4a.2.2,0,0,0-.2.2s0,.01,0,.015a8.8,8.8,0,0,1-1.58,5.85.56.56,0,0,0-.1.339l.216,6.7a.58.58,0,0,0,.575.56h4.479a.58.58,0,0,0,.575-.569l.083-6.5A1.173,1.173,0,0,0,72.242,171.308Z" transform="translate(-43.919 -22.375)" fill="#e6e6e6"/>
      <rect id="Rectangle_2451" data-name="Rectangle 2451" width="4.273" height="2.137" transform="translate(23.406 151.395)" fill="#fff"/>
      <path id="Path_32004" data-name="Path 32004" d="M79.092,163.776H77.217a.249.249,0,0,0-.249.249v.823a.249.249,0,0,0,.249.249h.311v1.233h1.253V165.1h.311a.249.249,0,0,0,.249-.249v-.823a.249.249,0,0,0-.249-.249Z" transform="translate(-43.919 -22.375)" fill="#e6e6e6"/>
      <path id="Path_32005" data-name="Path 32005" d="M80.97,171.308a9.639,9.639,0,0,1-1.677-5.715.2.2,0,0,0-.159-.2v-.356h-1.98v.351h-.027a.2.2,0,0,0-.2.2s0,.01,0,.015a8.8,8.8,0,0,1-1.58,5.85.56.56,0,0,0-.1.339l.217,6.7a.58.58,0,0,0,.575.56h4.479a.58.58,0,0,0,.575-.569l.083-6.5A1.174,1.174,0,0,0,80.97,171.308Z" transform="translate(-43.919 -22.375)" fill="#e6e6e6"/>
      <rect id="Rectangle_2452" data-name="Rectangle 2452" width="4.273" height="2.137" transform="translate(32.133 151.395)" fill="#fff"/>
      <path id="Path_32006" data-name="Path 32006" d="M87.82,163.776H85.945a.249.249,0,0,0-.249.249v.823a.249.249,0,0,0,.249.249h.311v1.233h1.253V165.1h.311a.249.249,0,0,0,.249-.249v-.823a.249.249,0,0,0-.249-.249Z" transform="translate(-43.919 -22.375)" fill="#e6e6e6"/>
      <path id="Path_32007" data-name="Path 32007" d="M89.7,171.308a9.639,9.639,0,0,1-1.677-5.715.2.2,0,0,0-.159-.2v-.356h-1.98v.351h-.027a.2.2,0,0,0-.2.2s0,.01,0,.015a8.8,8.8,0,0,1-1.58,5.85.56.56,0,0,0-.1.339l.216,6.7a.58.58,0,0,0,.575.56h4.479a.58.58,0,0,0,.575-.569l.083-6.5A1.174,1.174,0,0,0,89.7,171.308Z" transform="translate(-43.919 -22.375)" fill="#e6e6e6"/>
      <rect id="Rectangle_2453" data-name="Rectangle 2453" width="4.273" height="2.137" transform="translate(40.861 151.395)" fill="#fff"/>
      <path id="Path_32008" data-name="Path 32008" d="M113.054,147.414H109.1a.524.524,0,0,0-.524.524v1.735a.524.524,0,0,0,.524.524h.655v2.6H112.4v-2.6h.655a.524.524,0,0,0,.524-.524v-1.735A.524.524,0,0,0,113.054,147.414Z" transform="translate(-43.919 -22.375)" fill="#e6e6e6"/>
      <path id="Path_32009" data-name="Path 32009" d="M117.013,163.291a20.32,20.32,0,0,1-3.535-12.048.429.429,0,0,0-.335-.428v-.75h-4.174v.739h-.058a.428.428,0,0,0-.428.429q0,.016,0,.031a18.545,18.545,0,0,1-3.331,12.333,1.18,1.18,0,0,0-.214.715l.456,14.119a1.222,1.222,0,0,0,1.212,1.18h9.442a1.223,1.223,0,0,0,1.213-1.2l.176-13.709a2.474,2.474,0,0,0-.425-1.413Z" transform="translate(-43.919 -22.375)" fill="#e6e6e6"/>
      <path id="Path_32010" data-name="Path 32010" d="M115.518,167.981H107.3a.844.844,0,0,0-.834.972l1.242,8.072h7.131l1.508-8.045a.844.844,0,0,0-.829-1Z" transform="translate(-43.919 -22.375)" fill="#fff"/>
      <path id="Path_32011" data-name="Path 32011" d="M115.212,95.7H91.651c1.647-8.906,1.268-19.66,0-31.225h23.561C113.977,76.044,113.608,86.8,115.212,95.7Z" transform="translate(-43.919 -22.375)" fill="#e6e6e6"/>
      <circle id="Ellipse_518" data-name="Ellipse 518" cx="5.677" cy="5.677" r="5.677" transform="translate(53.977 51.187)" fill="#fff"/>
      <path id="Path_32012" data-name="Path 32012" d="M93.638,137.148H70.077c1.647-8.906,1.268-19.66,0-31.225H93.638C92.4,117.488,92.035,128.242,93.638,137.148Z" transform="translate(-43.919 -22.375)" fill="#e6e6e6"/>
      <circle id="Ellipse_519" data-name="Ellipse 519" cx="5.677" cy="5.677" r="5.677" transform="translate(32.403 92.631)" fill="#fff"/>
      <path id="Path_32013" data-name="Path 32013" d="M128.553,97.69H104.992c1.647-8.906,1.268-19.66,0-31.225h23.561C127.319,78.031,126.95,88.785,128.553,97.69Z" transform="translate(-43.919 -22.375)" fill="#e6e6e6"/>
      <circle id="Ellipse_520" data-name="Ellipse 520" cx="5.677" cy="5.677" r="5.677" transform="translate(67.319 53.174)" fill="#fff"/>
      <path id="Path_32014" data-name="Path 32014" d="M128.553,96.271H104.992c1.647-8.906,1.268-19.66,0-31.225h23.561C127.319,76.611,126.95,87.365,128.553,96.271Z" transform="translate(-43.919 -22.375)" fill="#e6e6e6"/>
      <circle id="Ellipse_521" data-name="Ellipse 521" cx="5.677" cy="5.677" r="5.677" transform="translate(67.319 51.755)" fill="#fff"/>
      <path id="Path_32015" data-name="Path 32015" d="M128.553,97.69H104.992c1.647-8.906,1.268-19.66,0-31.225h23.561C127.319,78.031,126.95,88.785,128.553,97.69Z" transform="translate(-43.919 -22.375)" fill="#e6e6e6"/>
      <circle id="Ellipse_522" data-name="Ellipse 522" cx="5.677" cy="5.677" r="5.677" transform="translate(67.319 53.174)" fill="#fff"/>
      <rect id="Rectangle_2454" data-name="Rectangle 2454" width="77.211" height="8.516" transform="translate(12.817 71.625)" fill="#e6e6e6"/>
      <rect id="Rectangle_2455" data-name="Rectangle 2455" width="77.211" height="8.516" transform="translate(12.817 113.921)" fill="#e6e6e6"/>
      <rect id="Rectangle_2456" data-name="Rectangle 2456" width="77.211" height="8.516" transform="translate(12.817 156.217)" fill="#e6e6e6"/>
      <path id="Path_32016" data-name="Path 32016" d="M268.259,213.141l-19.236-13.605c6.488-6.32,12.388-15.318,18.031-25.493l19.236,13.605C278.6,196.377,272.092,204.944,268.259,213.141Z" transform="translate(-43.919 -22.375)" fill="#5745de"/>
      <circle id="Ellipse_523" data-name="Ellipse 523" cx="5.677" cy="5.677" r="5.677" transform="translate(218.668 164.926)" fill="#fff"/>
      <path id="Path_32017" data-name="Path 32017" d="M175.468,151.057h-2.111a.28.28,0,0,0-.28.28v.927a.28.28,0,0,0,.28.28h.35v1.389h1.412v-1.389h.35a.28.28,0,0,0,.28-.28v-.927a.28.28,0,0,0-.28-.28Z" transform="translate(-43.919 -22.375)" fill="#e6e6e6"/>
      <path id="Path_32018" data-name="Path 32018" d="M177.583,159.539a10.855,10.855,0,0,1-1.888-6.436.229.229,0,0,0-.179-.228v-.4h-2.23v.395h-.031a.229.229,0,0,0-.229.229q0,.008,0,.017a9.907,9.907,0,0,1-1.78,6.589.63.63,0,0,0-.114.382l.244,7.543a.653.653,0,0,0,.647.63h5.044a.653.653,0,0,0,.648-.641l.094-7.323A1.322,1.322,0,0,0,177.583,159.539Z" transform="translate(-43.919 -22.375)" fill="#5745de"/>
      <path id="Path_32019" data-name="Path 32019" d="M175.028,151.359a.6.6,0,0,1-1.208,0" transform="translate(-43.919 -22.375)" opacity="0.2"/>
      <rect id="Rectangle_2457" data-name="Rectangle 2457" width="4.258" height="2.839" transform="translate(128.424 138.617)" fill="#fff"/>
      <path id="Path_32020" data-name="Path 32020" d="M242.287,180.523h-3.952a.524.524,0,0,0-.524.524v1.735a.524.524,0,0,0,.524.524h.655v2.6h2.643v-2.6h.655a.524.524,0,0,0,.524-.524v-1.735a.524.524,0,0,0-.524-.524Z" transform="translate(-43.919 -22.375)" fill="#e6e6e6"/>
      <path id="Path_32021" data-name="Path 32021" d="M246.246,196.4a20.32,20.32,0,0,1-3.535-12.048.428.428,0,0,0-.335-.428v-.75H238.2v.739h-.058a.428.428,0,0,0-.428.429q0,.016,0,.031a18.545,18.545,0,0,1-3.331,12.333,1.18,1.18,0,0,0-.214.715l.456,14.119a1.222,1.222,0,0,0,1.212,1.18h9.442a1.223,1.223,0,0,0,1.213-1.2l.176-13.709A2.474,2.474,0,0,0,246.246,196.4Z" transform="translate(-43.919 -22.375)" fill="#5745de"/>
      <path id="Path_32022" data-name="Path 32022" d="M241.463,181.089a1.131,1.131,0,0,1-2.261,0" transform="translate(-43.919 -22.375)" opacity="0.2"/>
      <path id="Path_32023" data-name="Path 32023" d="M244.751,201.091h-8.218a.844.844,0,0,0-.834.972l1.242,8.072h7.131l1.508-8.045a.844.844,0,0,0-.829-1Z" transform="translate(-43.919 -22.375)" fill="#fff"/>
      <path id="Path_32024" data-name="Path 32024" d="M231.01,213.118H207.449c1.647-8.906,1.268-19.66,0-31.225H231.01C229.775,193.458,229.406,204.212,231.01,213.118Z" transform="translate(-43.919 -22.375)" fill="#5745de"/>
      <circle id="Ellipse_524" data-name="Ellipse 524" cx="5.677" cy="5.677" r="5.677" transform="translate(169.775 168.602)" fill="#fff"/>
      <path id="Path_32025" data-name="Path 32025" d="M90.722,92.474l5.289-.481,3.366-8.174-6.01-3.366Z" fill="#ffb8b8"/>
      <path id="Path_32026" data-name="Path 32026" d="M183.181,137.289h0a2.982,2.982,0,0,0-2.591-4.087l-8.212-.49-1.209,4.021,8.454,2.322A2.982,2.982,0,0,0,183.181,137.289Z" transform="translate(-43.919 -22.375)" fill="#ffb8b8"/>
      <path id="Path_32027" data-name="Path 32027" d="M174.364,139.123l-.09-7.545-18.241-2.911L141.979,112.55a4.6,4.6,0,0,0-6-.82h0a4.6,4.6,0,0,0-.8,7.016l11.593,14.267Z" transform="translate(-43.919 -22.375)" fill="#575a89"/>
      <path id="Path_32028" data-name="Path 32028" d="M130.554,224h4.808l11.926-53.923,12.356,16.658,7.213,36.063h4.568l-.962-38.707-16.108-41.352H138.487c-4.336,7.848-7.738,15.937-3.847,24.282Z" transform="translate(-43.919 -22.375)" fill="#2f2e41"/>
      <path id="Path_32029" data-name="Path 32029" d="M163.909,227.274a1.255,1.255,0,0,0,.978,1.61l11.766,2.088a1.936,1.936,0,0,0,2.2-1.327h0a1.924,1.924,0,0,0-.941-2.288,17.99,17.99,0,0,1-6.489-5.641c-1.293,1.2-2.739,1.091-4.273.2l-1.628.2Z" transform="translate(-43.919 -22.375)" fill="#2f2e41"/>
      <path id="Path_32030" data-name="Path 32030" d="M128.327,227.274a1.255,1.255,0,0,0,.979,1.61l11.766,2.088a1.936,1.936,0,0,0,2.2-1.327h0a1.924,1.924,0,0,0-.941-2.288,17.99,17.99,0,0,1-6.489-5.641c-1.293,1.2-2.739,1.091-4.273.2l-1.628.2Z" transform="translate(-43.919 -22.375)" fill="#2f2e41"/>
      <circle id="Ellipse_525" data-name="Ellipse 525" cx="6.732" cy="6.732" r="6.732" transform="translate(92.765 73.36)" fill="#ffb8b8"/>
      <path id="Path_32031" data-name="Path 32031" d="M137.406,144.54l17.55-.481L149.8,127.838c3.2-5.135-.021-10.265-4.583-15.393l-3.606-2.4-5.77-.481h0a14.165,14.165,0,0,0-3.815,9.868A63.567,63.567,0,0,0,137.406,144.54Z" transform="translate(-43.919 -22.375)" fill="#575a89"/>
      <path id="Path_32032" data-name="Path 32032" d="M177.728,155.46h0a2.982,2.982,0,0,0-.774-4.777L169.6,147l-2.693,3.221,6.859,5.46a2.982,2.982,0,0,0,3.966-.224Z" transform="translate(-43.919 -22.375)" fill="#ffb8b8"/>
      <path id="Path_32033" data-name="Path 32033" d="M168.9,153.676l2.885-6.972-15.626-9.852-6.579-20.346a4.6,4.6,0,0,0-5.189-3.112h0a4.6,4.6,0,0,0-3.5,6.135l5.046,17.678Z" transform="translate(-43.919 -22.375)" fill="#575a89"/>
      <path id="Path_32034" data-name="Path 32034" d="M132.357,99.822c0,2.619,1.7,6.676,3.847,8.415,1.444,1.17,3.352,1.121,4.087-.481a19.054,19.054,0,0,1,7.934-7.934c6.1-3.238-2.164-8.779-7.934-7.934C135.955,92.523,132.357,95.441,132.357,99.822Z" transform="translate(-43.919 -22.375)" fill="#2f2e41"/>
      <circle id="Ellipse_526" data-name="Ellipse 526" cx="4.808" cy="4.808" r="4.808" transform="translate(87.716 64.225)" fill="#2f2e41"/>
      <path id="Path_32035" data-name="Path 32035" d="M141.973,89.725a4.805,4.805,0,0,0-4.448-4.79c.119-.009.239-.018.361-.018a4.808,4.808,0,0,1,0,9.617c-.122,0-.241-.009-.361-.018a4.805,4.805,0,0,0,4.448-4.79Z" transform="translate(-43.919 -22.375)" fill="#2f2e41"/>
      <ellipse id="Ellipse_527" data-name="Ellipse 527" cx="1.082" cy="1.443" rx="1.082" ry="1.443" transform="translate(98.535 79.611)" fill="#ffb8b8"/>
      <path id="Path_32036" data-name="Path 32036" d="M235.854,192.806H161l-15.851-74.93H131.624v-3.362h16.253l15.851,74.93h72.126Z" fill="#3f3d56"/>
      <circle id="Ellipse_528" data-name="Ellipse 528" cx="7.205" cy="7.205" r="7.205" transform="translate(164.766 192.085)" fill="#3f3d56"/>
      <circle id="Ellipse_529" data-name="Ellipse 529" cx="7.205" cy="7.205" r="7.205" transform="translate(218.562 192.085)" fill="#3f3d56"/>
      <path id="Path_32037" data-name="Path 32037" d="M278.408,213.6H205.582l-12.849-63.5h97.734a3.453,3.453,0,0,1,3.411,3.988l-12.059,56.595a3.436,3.436,0,0,1-3.41,2.917Zm-72.035-.961h72.035a2.479,2.479,0,0,0,2.461-2.105l12.059-56.595a2.492,2.492,0,0,0-2.462-2.879H193.9Z" transform="translate(-43.919 -22.375)" fill="#3f3d56"/>
      <path id="Path_32038" data-name="Path 32038" d="M175.82,191.019l-8.415-62.738.948-.157,8.415,62.738Z" fill="#3f3d56"/>
      <path id="Path_32039" data-name="Path 32039" d="M222.611,190.537l-.948-.154,8.169-62.258.948.154Z" fill="#3f3d56"/>
      <rect id="Rectangle_2458" data-name="Rectangle 2458" width="0.961" height="62.738" transform="translate(199.357 128.203)" fill="#3f3d56"/>
      <rect id="Rectangle_2459" data-name="Rectangle 2459" width="0.961" height="92.989" transform="translate(153.718 145.973) rotate(-89.861)" fill="#3f3d56"/>
      <rect id="Rectangle_2460" data-name="Rectangle 2460" width="81.695" height="0.961" transform="translate(158.456 175.247) rotate(-0.392)" fill="#3f3d56"/>
      <ellipse id="Ellipse_530" data-name="Ellipse 530" cx="5.284" cy="2.882" rx="5.284" ry="2.882" transform="translate(127.782 112.832)" fill="#3f3d56"/>
    </g>
  </g>
</svg>
