<svg xmlns="http://www.w3.org/2000/svg" xmlns:xlink="http://www.w3.org/1999/xlink" width="18" height="18" viewBox="0 0 18 18">
  <defs>
    <clipPath id="clip-path">
      <rect id="Rectangle_2591" data-name="Rectangle 2591" width="18" height="18" transform="translate(15.563 434.563)" fill="#fff"/>
    </clipPath>
  </defs>
  <g id="Mask_Group_17" data-name="Mask Group 17" transform="translate(-15.563 -434.563)" clip-path="url(#clip-path)">
    <g id="preparing" transform="translate(18.152 435.403)">
      <g id="Group_13658" data-name="Group 13658" transform="translate(1.411 1.159)">
        <g id="Group_13657" data-name="Group 13657">
          <g id="Group_13656" data-name="Group 13656">
            <path id="Path_32204" data-name="Path 32204" d="M10.933,1.8H9.689V1.246c0-.18-.2-.262-.377-.262H8.346A1.465,1.465,0,0,0,6.888,0,1.49,1.49,0,0,0,5.431.984h-.95c-.18,0-.36.082-.36.262V1.8H2.876A1.392,1.392,0,0,0,1.5,3.129v9.384a1.318,1.318,0,0,0,1.376,1.245h8.057a1.318,1.318,0,0,0,1.376-1.245V3.129A1.392,1.392,0,0,0,10.933,1.8ZM4.776,1.639h.9a.36.36,0,0,0,.311-.295.95.95,0,0,1,.9-.737.933.933,0,0,1,.884.737.36.36,0,0,0,.328.295h.933v1.31H4.776Zm6.878,10.874a.664.664,0,0,1-.721.59H2.876a.664.664,0,0,1-.721-.59V3.129a.737.737,0,0,1,.721-.671H4.121v.835a.344.344,0,0,0,.36.311H9.312a.36.36,0,0,0,.377-.311V2.457h1.245a.737.737,0,0,1,.721.671v9.384Z" transform="translate(-1.5 0)" fill="#b8b7b7"/>
            <path id="Path_32205" data-name="Path 32205" d="M5.673,7.449a.328.328,0,0,0-.459-.016l-1.048,1-.442-.459a.328.328,0,0,0-.459-.016.344.344,0,0,0,0,.475l.671.688a.3.3,0,0,0,.229.1.327.327,0,0,0,.229-.1L5.673,7.907a.311.311,0,0,0,.019-.44Z" transform="translate(-1.529 -0.127)" fill="#b8b7b7"/>
            <path id="Path_32206" data-name="Path 32206" d="M10.427,8.167H6.661a.328.328,0,1,0,0,.655h3.767a.328.328,0,1,0,0-.655Z" transform="translate(-1.584 -0.142)" fill="#b8b7b7"/>
            <path id="Path_32207" data-name="Path 32207" d="M5.673,4.782a.328.328,0,0,0-.459-.016l-1.048,1-.442-.459a.328.328,0,0,0-.459-.016.344.344,0,0,0,0,.475l.671.688a.3.3,0,0,0,.229.1.327.327,0,0,0,.229-.1L5.673,5.241a.311.311,0,0,0,.019-.44Z" transform="translate(-1.529 -0.081)" fill="#b8b7b7"/>
            <path id="Path_32208" data-name="Path 32208" d="M10.427,5.5H6.661a.328.328,0,1,0,0,.655h3.767a.328.328,0,0,0,0-.655Z" transform="translate(-1.584 -0.095)" fill="#b8b7b7"/>
            <path id="Path_32209" data-name="Path 32209" d="M5.673,10.115a.328.328,0,0,0-.459-.016l-1.048,1-.442-.459a.328.328,0,0,0-.459-.016.344.344,0,0,0,0,.475l.671.688a.3.3,0,0,0,.229.1.327.327,0,0,0,.229-.1l1.277-1.212a.311.311,0,0,0,.019-.44Z" transform="translate(-1.529 -0.174)" fill="#b8b7b7"/>
            <path id="Path_32210" data-name="Path 32210" d="M10.427,10.834H6.661a.328.328,0,1,0,0,.655h3.767a.328.328,0,0,0,0-.655Z" transform="translate(-1.584 -0.188)" fill="#b8b7b7"/>
          </g>
        </g>
      </g>
    </g>
  </g>
</svg>
