<svg xmlns="http://www.w3.org/2000/svg" width="60" height="15.333" viewBox="0 0 60 15.333">
    <g id="Paypal" transform="translate(0 -22.333)">
        <path id="Path_32276" data-name="Path 32276" d="M46.381,26.333H43.143a.633.633,0,0,0-.476.381L41.333,35.1a.253.253,0,0,0,.286.286h1.714a.253.253,0,0,0,.286-.286L44,32.714a.436.436,0,0,1,.476-.381h1.048q3.286,0,3.714-3.143a2.5,2.5,0,0,0-.381-2.1,3.841,3.841,0,0,0-2.476-.762m.381,3.143c-.19,1.143-1.048,1.143-1.9,1.143h-.571l.381-2.19c0-.1.1-.19.286-.19h.19c.571,0,1.143,0,1.429.381.19.1.19.381.19.857" fill="#139ad6"/>
        <g id="Group_14166" data-name="Group 14166">
            <path id="Path_32277" data-name="Path 32277" d="M23.048,26.333H19.81a.633.633,0,0,0-.476.381L18,35.1a.253.253,0,0,0,.286.286H19.81A.633.633,0,0,0,20.286,35l.381-2.286a.436.436,0,0,1,.476-.381H22.19q3.286,0,3.714-3.143a2.5,2.5,0,0,0-.381-2.1,3.661,3.661,0,0,0-2.476-.762m.381,3.143c-.19,1.143-1.048,1.143-1.9,1.143h-.476l.381-2.19c0-.1.1-.19.286-.19h.19c.571,0,1.143,0,1.429.381a1.02,1.02,0,0,1,.1.857" fill="#263b80"/>
            <path id="Path_32278" data-name="Path 32278" d="M32.857,29.381H31.333c-.1,0-.286.1-.286.19l-.1.476-.1-.19a2.24,2.24,0,0,0-1.81-.667,3.66,3.66,0,0,0-3.524,3.143,2.839,2.839,0,0,0,.571,2.381,2.4,2.4,0,0,0,2,.762,3.044,3.044,0,0,0,2.19-.857l-.1.476a.253.253,0,0,0,.286.286H31.9A.633.633,0,0,0,32.381,35l.857-5.333c-.1-.1-.286-.286-.381-.286m-2.19,3.048a1.842,1.842,0,0,1-1.81,1.524,1.523,1.523,0,0,1-1.048-.381,2.031,2.031,0,0,1-.286-1.143,1.7,1.7,0,0,1,2.762-1.143,1.663,1.663,0,0,1,.381,1.143" fill="#263b80"/>
        </g>
        <path id="Path_32279" data-name="Path 32279" d="M56.1,29.381H54.571c-.1,0-.286.1-.286.19l-.1.476-.1-.19a2.24,2.24,0,0,0-1.81-.667,3.66,3.66,0,0,0-3.524,3.143,2.839,2.839,0,0,0,.571,2.381,2.4,2.4,0,0,0,2,.762,3.044,3.044,0,0,0,2.19-.857l-.1.476a.253.253,0,0,0,.286.286h1.429A.633.633,0,0,0,55.619,35l.857-5.333c-.1-.1-.19-.286-.381-.286M53.9,32.429a1.842,1.842,0,0,1-1.81,1.524,1.523,1.523,0,0,1-1.048-.381,2.031,2.031,0,0,1-.286-1.143,1.7,1.7,0,0,1,2.762-1.143,1.093,1.093,0,0,1,.381,1.143" fill="#139ad6"/>
        <path id="Path_32280" data-name="Path 32280" d="M41.143,29.381H39.524a.5.5,0,0,0-.381.19l-2.1,3.238L36.1,29.762a.44.44,0,0,0-.476-.286H34.1c-.19,0-.286.19-.286.381L35.524,34.9,33.9,37.19c-.1.19,0,.476.19.476h1.524a.5.5,0,0,0,.381-.19l5.238-7.524c.286-.286.1-.571-.1-.571" fill="#263b80"/>
        <path id="Path_32281" data-name="Path 32281" d="M57.9,26.619,56.571,35.19a.253.253,0,0,0,.286.286H58.19a.633.633,0,0,0,.476-.381L60,26.714a.253.253,0,0,0-.286-.286H58.19c-.1-.1-.19,0-.286.19" fill="#139ad6"/>
        <path id="Path_32282" data-name="Path 32282" d="M10.952,23.476c-.667-.762-1.9-1.143-3.619-1.143H2.571A.817.817,0,0,0,1.9,22.9L0,35.381a.436.436,0,0,0,.381.476H3.333L4.1,31.19v.19a.817.817,0,0,1,.667-.571H6.19c2.762,0,4.857-1.143,5.524-4.286v-.286h0a3.326,3.326,0,0,0-.762-2.762" fill="#263b80"/>
        <path id="Path_32283" data-name="Path 32283" d="M11.619,26.238h0v.286C10.952,29.762,8.857,30.81,6.1,30.81H4.667A.817.817,0,0,0,4,31.381l-.952,5.81a.349.349,0,0,0,.381.381H5.9a.533.533,0,0,0,.571-.476V37l.476-2.952v-.19a.533.533,0,0,1,.571-.476H7.9c2.381,0,4.286-.952,4.762-3.81a3.5,3.5,0,0,0-.476-2.857.975.975,0,0,0-.571-.476" fill="#139ad6"/>
        <path id="Path_32284" data-name="Path 32284" d="M10.952,25.952c-.1,0-.19-.1-.286-.1a.35.35,0,0,1-.286-.1,5.031,5.031,0,0,0-1.238-.1H5.429a.35.35,0,0,0-.286.1.524.524,0,0,0-.286.476L4.1,31.19v.19a.817.817,0,0,1,.667-.571H6.19c2.762,0,4.857-1.143,5.524-4.286a.35.35,0,0,1,.1-.286c-.19-.1-.286-.19-.476-.19-.286-.1-.286-.1-.381-.1" fill="#232c65"/>
    </g>
</svg>
