<svg xmlns="http://www.w3.org/2000/svg" width="24" height="24" viewBox="0 0 24 24">
  <g id="Group_13275" data-name="Group 13275" transform="translate(-16 -437.001)">
    <g id="Group_11210" data-name="Group 11210" transform="translate(16 437.001)">
      <path id="Path_31884" data-name="Path 31884" d="M0,11.691A11.7,11.7,0,0,1,3.49,3.666,11.81,11.81,0,0,1,9.707.244a11.163,11.163,0,0,1,7.8,1.178,11.986,11.986,0,0,1,6.182,8.05,11.1,11.1,0,0,1-1.3,8.36,11.944,11.944,0,0,1-7.447,5.752A11.214,11.214,0,0,1,5.46,21.954,11.988,11.988,0,0,1,0,11.691M11.98,21.812a9.987,9.987,0,0,0,2-.189,9.345,9.345,0,0,0,6.34-4.309,9.819,9.819,0,0,0,1.3-7.3,9.243,9.243,0,0,0-4.883-6.679,9.851,9.851,0,0,0-6.714-.966,9.274,9.274,0,0,0-6.582,4.7A9.925,9.925,0,0,0,2.3,13.6a9.347,9.347,0,0,0,2.492,5.179,9.686,9.686,0,0,0,7.186,3.034" transform="translate(0 0)" fill="#689dde"/>
      <g id="Group_11247" data-name="Group 11247" transform="translate(5.39 4.715)">
        <path id="Subtraction_6" data-name="Subtraction 6" d="M6.627,14.957a11.466,11.466,0,0,1-2.549-1.549,10.351,10.351,0,0,1-2.434-2.815A11.7,11.7,0,0,1,.7,8.527,10.606,10.606,0,0,1,.242,6.833c-.062-.347-.106-.7-.155-1.05A16.255,16.255,0,0,1,0,3.456a6.653,6.653,0,0,1,.109-1.04A.444.444,0,0,1,.58,2.029a8.421,8.421,0,0,0,1.41-.107,9.062,9.062,0,0,0,1.922-.513A14.359,14.359,0,0,0,5.9.448c.192-.11.377-.233.564-.352A.492.492,0,0,1,7.039.09,13.684,13.684,0,0,0,9.3,1.286a9.24,9.24,0,0,0,1.987.588,10.422,10.422,0,0,0,1.669.154.478.478,0,0,1,.458.422,8.416,8.416,0,0,1,.1,1.64,9.851,9.851,0,0,1-.046,1.446c-.041.293-.044.585-.072.876a4.179,4.179,0,0,1-.132.454q-.146.656-.334,1.3a10.845,10.845,0,0,1-.949,2.227,10.167,10.167,0,0,1-2.155,2.684A11.186,11.186,0,0,1,6.878,14.96a.3.3,0,0,1-.121.028A.311.311,0,0,1,6.627,14.957Zm.129-1.689h0Zm.082-.012a.472.472,0,0,0,.1-.048A.472.472,0,0,1,6.838,13.255Zm-.192-.01-.034-.015ZM4.379,11.612A8.838,8.838,0,0,1,2.7,9.3,8.815,8.815,0,0,0,4.379,11.612ZM3.621,6.724A.739.739,0,0,0,3.63,7.8c.653.64,1.315,1.273,1.978,1.9a.673.673,0,0,0,.5.2.774.774,0,0,0,.58-.264q.547-.522,1.09-1.051,1.169-1.136,2.337-2.274a.7.7,0,0,0,.242-.58.754.754,0,0,0-1.118-.612,1.791,1.791,0,0,0-.323.26q-1.344,1.3-2.685,2.608c-.1.1-.155.08-.244-.007-.428-.418-.862-.832-1.3-1.246A.8.8,0,0,0,4.141,6.5.733.733,0,0,0,3.621,6.724ZM1.66,5.805C1.574,5.2,1.576,4.6,1.542,4,1.576,4.6,1.574,5.2,1.66,5.805ZM12,4.16c-.005-.058-.006-.113-.006-.167C11.992,4.047,11.993,4.1,12,4.16ZM6.679,1.791c-.2.118-.4.233-.609.34A14.281,14.281,0,0,1,3.552,3.16,11.106,11.106,0,0,1,1.928,3.5c-.375.051-.378.032-.385.417,0,.021,0,.042,0,.063,0-.021,0-.042,0-.063.007-.385.01-.366.385-.417A11.059,11.059,0,0,0,3.552,3.16,14.265,14.265,0,0,0,6.069,2.131c.206-.107.409-.222.609-.34a.154.154,0,0,1,.077-.027h0A.151.151,0,0,0,6.679,1.791Zm5.1,1.726c.12,0,.174.073.2.185a1.057,1.057,0,0,1,.017.219,1.057,1.057,0,0,0-.017-.219c-.024-.112-.078-.181-.2-.185l-.047,0ZM6.827,1.788q.115.068.231.134-.116-.066-.231-.134Z" fill="#c4defe"/>
      </g>
    </g>
    <path id="Path_31913" data-name="Path 31913" d="M24.336,360.474a.675.675,0,0,1-.5-.2c-.663-.631-1.325-1.263-1.979-1.9a.739.739,0,0,1-.009-1.074.753.753,0,0,1,1.075.015c.433.414.866.828,1.295,1.246.089.087.146.1.244.007q1.338-1.309,2.685-2.608a1.771,1.771,0,0,1,.324-.259.754.754,0,0,1,1.118.612.7.7,0,0,1-.242.581q-1.166,1.139-2.337,2.273-.544.527-1.091,1.051A.774.774,0,0,1,24.336,360.474Z" transform="translate(3.166 91.149)" fill="#689dde"/>
  </g>
</svg>
