<svg xmlns="http://www.w3.org/2000/svg" width="24" height="24" viewBox="0 0 24 24">
  <g id="Group_11204" data-name="Group 11204" transform="translate(-1 -0.999)">
    <g id="Group_11204-2" data-name="Group 11204" transform="translate(1 0.999)">
      <ellipse id="Ellipse_500" data-name="Ellipse 500" cx="7.438" cy="7.435" rx="7.438" ry="7.435" transform="translate(4.562 4.566)" fill="#e9f3ff"/>
      <path id="Path_31876" data-name="Path 31876" d="M0,11.691A11.7,11.7,0,0,1,3.49,3.666,11.81,11.81,0,0,1,9.707.244a11.163,11.163,0,0,1,7.8,1.178,11.986,11.986,0,0,1,6.182,8.05,11.1,11.1,0,0,1-1.3,8.36,11.944,11.944,0,0,1-7.447,5.752A11.214,11.214,0,0,1,5.46,21.954,11.988,11.988,0,0,1,0,11.691M11.98,21.812a9.987,9.987,0,0,0,2-.189,9.345,9.345,0,0,0,6.34-4.309,9.819,9.819,0,0,0,1.3-7.3,9.243,9.243,0,0,0-4.883-6.679,9.85,9.85,0,0,0-6.714-.966,9.274,9.274,0,0,0-6.582,4.7A9.925,9.925,0,0,0,2.3,13.6a9.347,9.347,0,0,0,2.492,5.179,9.686,9.686,0,0,0,7.186,3.034" transform="translate(0 0)" fill="#689dde"/>
      <g id="Group_10990" data-name="Group 10990" transform="translate(7.408 7.534)">
        <g id="Group_10994" data-name="Group 10994" transform="translate(0 0)">
          <path id="Path_31689" data-name="Path 31689" d="M7.317,2.744A2.755,2.755,0,0,0,5.7.232,2.572,2.572,0,0,0,4.624,0,2.728,2.728,0,1,0,7.317,2.744M4.586,6.4c.655,0,1.31-.007,1.965,0a2.328,2.328,0,0,1,1.91.981,2.293,2.293,0,0,1,.468,1.354c0,.1.012.189.139.182s.124-.095.117-.184-.018-.189-.029-.284a2.642,2.642,0,0,0-2.5-2.3c-1.366-.024-2.733-.039-4.1,0A2.557,2.557,0,0,0,.2,7.791a2.61,2.61,0,0,0-.2.962c0,.085.012.162.117.168S.251,8.86.251,8.77c0-.034,0-.067,0-.1A2.414,2.414,0,0,1,2.671,6.4H4.586" transform="translate(0 0.001)" fill="none" stroke="#689dde" stroke-width="1.5"/>
          <path id="Path_31690" data-name="Path 31690" d="M47.125,2.745A2.725,2.725,0,1,1,44.432,0a2.717,2.717,0,0,1,2.693,2.745m-5.2-.018A2.477,2.477,0,1,0,44.351.252a2.473,2.473,0,0,0-2.422,2.475" transform="translate(-39.809 0)" fill="none" stroke="#689dde" stroke-width="1.5"/>
          <path id="Path_31691" data-name="Path 31691" d="M4.586,137.186H2.671a2.414,2.414,0,0,0-2.415,2.267c0,.033,0,.067,0,.1,0,.09-.029.158-.133.151S0,139.623,0,139.538a2.611,2.611,0,0,1,.2-.962,2.557,2.557,0,0,1,2.357-1.635c1.365-.042,2.732-.027,4.1,0a2.642,2.642,0,0,1,2.5,2.3c.011.094.021.189.029.284s0,.177-.117.184-.137-.087-.139-.182a2.293,2.293,0,0,0-.468-1.354,2.328,2.328,0,0,0-1.91-.981c-.655-.009-1.31,0-1.965,0" transform="translate(0 -130.783)" fill="none" stroke="#689dde" stroke-width="1.5"/>
        </g>
      </g>
    </g>
  </g>
</svg>
