<svg xmlns="http://www.w3.org/2000/svg" width="24" height="24" viewBox="0 0 24 24">
  <g id="Group_13896" data-name="Group 13896" transform="translate(-20 -729)">
    <rect id="Rectangle_2649" data-name="Rectangle 2649" width="24" height="24" transform="translate(20 729)" fill="#fff"/>
    <g id="Iconly_Bold_Add_User" data-name="Iconly/Bold/Add User" transform="translate(22 732)">
      <g id="Add_User" data-name="Add User">
        <path id="Add_User-2" data-name="Add User" d="M0,15.746c0-2.585,3.454-3.231,7.5-3.231,4.067,0,7.5.669,7.5,3.253S11.545,19,7.5,19C3.434,19,0,18.329,0,15.746Zm16.1-5.658V8.911H14.9a.912.912,0,0,1,0-1.823h1.2V5.911a.9.9,0,1,1,1.8,0V7.088h1.2a.912.912,0,0,1,0,1.823H17.9v1.177a.9.9,0,1,1-1.8,0ZM2.537,5.027a4.963,4.963,0,1,1,9.925,0,4.963,4.963,0,1,1-9.925,0Z" fill="#689dde"/>
      </g>
    </g>
  </g>
</svg>
