<svg id="Icon_Default_Show" data-name="Icon / Default / Show" xmlns="http://www.w3.org/2000/svg" width="79.001" height="63.597" viewBox="0 0 79.001 63.597">
  <path id="Combined_Shape" data-name="Combined Shape" d="M12.063,53.6C4.4,47.329,0,39.381,0,31.8S4.4,16.271,12.063,10A44.143,44.143,0,0,1,39.5,0,44.163,44.163,0,0,1,66.938,9.995C74.6,16.264,79,24.215,79,31.8S74.6,47.332,66.938,53.6A44.163,44.163,0,0,1,39.5,63.6,44.143,44.143,0,0,1,12.063,53.6Zm4.112-39.321C9.756,19.381,5.925,25.932,5.925,31.8S9.756,44.219,16.176,49.323A38.291,38.291,0,0,0,39.5,57.675a38.271,38.271,0,0,0,23.327-8.353c6.419-5.1,10.251-11.651,10.251-17.523S69.244,19.378,62.825,14.278A38.271,38.271,0,0,0,39.5,5.925,38.283,38.283,0,0,0,16.176,14.278ZM24.052,31.8A15.449,15.449,0,1,1,39.5,47.247,15.468,15.468,0,0,1,24.052,31.8Zm5.925,0A9.525,9.525,0,1,0,39.5,22.275,9.535,9.535,0,0,0,29.977,31.8Z" fill="#191b27"/>
</svg>
