<svg id="Group_11210" data-name="Group 11210" xmlns="http://www.w3.org/2000/svg" width="23.995" height="24" viewBox="0 0 23.995 24">
  <path id="Path_31884" data-name="Path 31884" d="M0,11.691A11.7,11.7,0,0,1,3.489,3.665,11.807,11.807,0,0,1,9.7.244a11.159,11.159,0,0,1,7.8,1.178,11.985,11.985,0,0,1,6.181,8.05,11.1,11.1,0,0,1-1.3,8.36,11.942,11.942,0,0,1-7.446,5.752,11.21,11.21,0,0,1-9.479-1.631A11.989,11.989,0,0,1,0,11.691M11.977,21.812a9.984,9.984,0,0,0,2-.189,9.343,9.343,0,0,0,6.339-4.309,9.821,9.821,0,0,0,1.3-7.3A9.243,9.243,0,0,0,16.73,3.339a9.847,9.847,0,0,0-6.713-.966,9.273,9.273,0,0,0-6.58,4.7A9.926,9.926,0,0,0,2.3,13.6a9.348,9.348,0,0,0,2.491,5.179,9.684,9.684,0,0,0,7.185,3.034" transform="translate(0 0)" fill="#689dde"/>
  <path id="Path_27803" data-name="Path 27803" d="M-211.968-10.127q0,1.8,0,3.6a2.483,2.483,0,0,1-2.593,2.593q-2.747,0-5.494,0a2.485,2.485,0,0,1-2.6-2.59q0-3.6,0-7.2a2.446,2.446,0,0,1,2.526-2.564.786.786,0,0,0,.864-.5,2.037,2.037,0,0,1,2.047-1.167,2.116,2.116,0,0,1,1.963,1.358.414.414,0,0,0,.482.3,2.635,2.635,0,0,1,1.316.205,2.415,2.415,0,0,1,1.483,2.281C-211.957-12.582-211.968-11.355-211.968-10.127Zm-5.37.613c.686,0,1.372,0,2.058,0,.427,0,.706-.234.716-.591s-.277-.618-.716-.618q-2.031,0-4.062,0c-.429,0-.708.235-.715.591s.277.617.716.618C-218.673-9.513-218.005-9.514-217.337-9.514Zm.026-2.741c.686,0,1.372,0,2.058,0a.622.622,0,0,0,.69-.585.623.623,0,0,0-.687-.62q-2.058-.006-4.115,0a.623.623,0,0,0-.69.617.618.618,0,0,0,.687.587C-218.683-12.253-218-12.256-217.311-12.255Zm-.01,4.269c-.6,0-1.208,0-1.812,0a.617.617,0,0,0-.684.594.616.616,0,0,0,.665.614q1.84.006,3.679,0a.615.615,0,0,0,.669-.609.616.616,0,0,0-.678-.6C-216.1-7.988-216.708-7.985-217.322-7.985Zm.006-8.921a.6.6,0,0,0-.6.589.605.605,0,0,0,.608.608.607.607,0,0,0,.6-.59A.607.607,0,0,0-217.315-16.906Z" transform="translate(229.308 22.947)" fill="#689dde"/>
</svg>
